<svg xmlns="http://www.w3.org/2000/svg" width="18.356" height="22.852" viewBox="0 0 18.356 22.852">
  <g id="Group_89397" data-name="Group 89397" transform="translate(-175.143 -319.823)">
    <path id="Path_57209" data-name="Path 57209" d="M183.242,349.949a3.678,3.678,0,1,1-3.678-3.678A3.678,3.678,0,0,1,183.242,349.949Z" transform="translate(-0.743 -10.952)" fill="#753bbd"/>
    <path id="Path_57210" data-name="Path 57210" d="M203.1,348.928a2.658,2.658,0,1,1-2.658-2.657A2.658,2.658,0,0,1,203.1,348.928Z" transform="translate(-9.597 -10.933)" fill="#753bbd"/>
    <circle id="Ellipse_738" data-name="Ellipse 738" cx="5.412" cy="5.412" r="5.412" transform="translate(177.678 327.477) rotate(-45)" fill="#753bbd"/>
    <line id="Line_1256" data-name="Line 1256" x1="2.805" y2="4.979" transform="translate(180.308 331.403)" fill="none" stroke="#753bbd" stroke-linecap="round" stroke-linejoin="round" stroke-width="3"/>
    <line id="Line_1257" data-name="Line 1257" x1="2.484" y1="4.748" transform="translate(187.43 331.473)" fill="none" stroke="#753bbd" stroke-linecap="round" stroke-linejoin="round" stroke-width="3"/>
    <circle id="Ellipse_739" data-name="Ellipse 739" cx="2.412" cy="2.412" r="2.412" transform="translate(181.92 327.477) rotate(-45)" fill="#fff"/>
  </g>
</svg>
