<svg xmlns="http://www.w3.org/2000/svg" width="372" height="474" viewBox="0 0 372 474">
  <rect width="372" height="473" rx="10" fill="#4a25aa"/>
  <g transform="translate(-103.881 357.625) rotate(-9)" opacity="0.15">
    <path d="M640.141,205.332c.259,5.854.518,11.762-2.436,16.219-1.97,2.957-4.094,4.3-6.53,4.256-8.448-.369-18.5-19.024-22.338-26.073l-1.088-2.021a70.223,70.223,0,0,0-59.554-35.505,66.088,66.088,0,0,0-39.856,12.232c-6.113,4.46-10.518,11.039-14.771,17.417a90.224,90.224,0,0,1-10.418,13.631c-3.11,3.159-7.616,6.528-11.5,4.714-4.46-2.018-5.8-12.7-6.741-20.418-.415-3.113-.726-5.756-1.192-7.619q-.777-2.959-1.552-5.911c-2.591-10-5.238-20.317-5.652-30.786-.311-8.4.985-18.606,2.384-29.387,3.475-26.8,7.411-57.167-11.921-73.752-14.875-12.8-34.725-17.155-50.533-11.195-5.183,1.969-10.625,5.338-15.86,8.6-14.616,9.07-28.4,17.674-41.256,2.125-3.473-4.146-4.976-8.966-6.43-13.631-2.485-7.878-5.076-16.067-17.308-19.021-14.046-3.369-26.332,6.323-31.307,17.674-6.942,15.756-8.549,33.481-10.055,50.533l-.518,5.494c-.153,1.762-.308,3.576-.464,5.39-2.024,23.323-4.146,47.423-30.786,52.813-3.369.674-6.9,1.088-10.262,1.555a101.4,101.4,0,0,0-14,2.436c-4.872,1.244-9.536,4.561-14.046,7.774-7.774,5.546-15.134,10.78-23.737,6.79-4.872-2.28-7.2-7.463-8.189-10.314A65.752,65.752,0,0,1,170.1,139.4c-.207-1.4-.415-2.8-.671-4.2a77.166,77.166,0,0,0-10.576-27c-1.244-1.969-2.54-3.732-3.783-5.442-2.9-3.887-5.6-7.567-6.79-12.491-2.332-9.381-.881-18.5.622-28.195,1.348-8.655,2.8-17.622,1.195-26.692-2.076-12.128-9.384-27.106-23.585-32.807C113.038-2.869,100.029,1.384,87.435,5.53c-8.033,2.643-16.43,5.39-24.67,5.442-21.872,0-42.448-.155-62.764-1.091v2.591c20.317.936,40.893,1.091,62.764,1.091,8.655-.052,17.207-2.851,25.5-5.546,12.7-4.2,24.67-8.137,37.265-3.058C138.745,10.3,145.587,24.4,147.556,35.85c1.5,8.6.1,17.363-1.192,25.811-1.5,9.536-3.058,19.384-.622,29.231,1.348,5.442,4.2,9.329,7.2,13.424a58.168,58.168,0,0,1,3.68,5.286,73.877,73.877,0,0,1,10.262,26.07c.262,1.348.466,2.747.674,4.146a60.087,60.087,0,0,0,2.229,10.314c1.918,5.7,5.287,9.9,9.536,11.869,10,4.613,18.3-1.3,26.329-7.049,4.509-3.162,8.814-6.219,13.216-7.36a111.17,111.17,0,0,1,13.683-2.384c3.424-.415,6.948-.881,10.42-1.555,28.555-5.753,30.835-31.978,32.807-55.146.155-1.814.308-3.628.515-5.39l.469-5.442c1.555-16.9,3.11-34.362,9.9-49.755,4.512-10.369,15.707-19.228,28.3-16.17,10.835,2.591,12.957,9.381,15.448,17.259,1.555,4.924,3.161,10,6.893,14.512,14.357,17.259,30.423,7.256,44.624-1.607,5.39-3.317,10.469-6.479,15.393-8.344,14.978-5.7,33.792-1.451,48,10.729,18.244,15.7,14.405,45.3,11.037,71.472-1.4,10.884-2.747,21.2-2.436,29.8.415,10.729,3.11,21.2,5.756,31.3.515,1.969,1.034,3.942,1.5,5.908a58.938,58.938,0,0,1,1.14,7.308c1.088,8.814,2.488,19.8,8.241,22.494,4.149,1.869,9.174.052,14.46-5.287,4.094-4.146,7.463-9.174,10.677-13.994,4.354-6.479,8.448-12.594,14.149-16.792A64.521,64.521,0,0,1,548.194,164.8a67.72,67.72,0,0,1,57.273,34.155l1.088,2.021c4.768,8.759,14.564,26.954,24.515,27.42,3.369.207,6.271-1.661,8.811-5.393,3.421-5.183,3.11-11.817,2.9-17.619" transform="translate(0 44.799)" fill="#fff"/>
    <path d="M440.549,129.416c-3.421-17.414-6.274-37.731-1.3-56.649,4.506-17.155,7.3-33.64-7.308-46.286-7.829-6.79-19.7-9.122-30.945-6.219-9.536,2.54-18.71,8.6-26.588,17.674-.933,1.088-1.863,2.232-2.8,3.372-4.405,5.338-8.966,10.832-15.341,12.594-9.588,2.643-13.786-3.32-18.658-10.158-3.576-4.976-7.256-10.158-13.372-12.079-9.9-3.159-20.109,3.732-24.67,11.82-4.872,8.655-5.39,19.125-5.8,27.573-1.14,23.686-17.052,58.048-43.9,60.9-4.354.466-8.555.57-12.594.726-10,.311-19.49.622-29.8,5.7-1.762.881-3.473,1.762-5.183,2.7-9.847,5.079-19.125,9.951-30.475,6.582-11.923-3.473-15.811-18.192-19.594-32.393-2.848-10.936-5.857-22.183-12.439-28.661-5.6-5.442-12.957-8.814-20.058-12.024-9.329-4.3-18.192-8.293-22.8-16.689-1.866-3.424-2.8-7.152-3.783-11.143A53.72,53.72,0,0,0,89.3,35.344C83.289,24.046,70.331,19.177,58.67,15.5Q29.672,6.474,0,0V2.64Q29.231,9.015,57.893,17.984c11.195,3.521,23.582,8.137,29.076,18.606A44.728,44.728,0,0,1,90.6,47.371c.988,3.991,2.021,8.085,4.043,11.765,5.027,9.122,14.667,13.527,24.051,17.777,6.89,3.162,14.046,6.375,19.277,11.506,6.119,6.012,8.966,16.948,11.765,27.469,3.942,14.927,8.036,30.372,21.356,34.259,12.332,3.628,22.545-1.659,32.393-6.79l5.131-2.643c9.847-4.82,19.021-5.131,28.765-5.442,4.094-.155,8.293-.259,12.75-.726,29.594-3.162,45.039-39.649,46.231-63.386.415-8.137.881-18.3,5.494-26.381,4.043-7.2,13.012-13.372,21.613-10.68,5.287,1.713,8.707,6.53,12.024,11.146,4.978,6.994,10.107,14.2,21.457,11.143,7.155-1.969,12.027-7.826,16.689-13.478.933-1.088,1.817-2.229,2.747-3.262,7.515-8.655,16.274-14.515,25.3-16.847,10.415-2.747,21.405-.567,28.606,5.652,13.475,11.661,10.731,27.311,6.479,43.64-5.128,19.436-2.226,40.167,1.247,57.841.726,3.783,1.5,7.619,2.332,11.454,4.146,19.8,8.393,40.271,5.442,60.225a55.718,55.718,0,0,0-.625,7.878h2.591a50.909,50.909,0,0,1,.573-7.463c3.058-20.472-1.244-41.152-5.442-61.158-.832-3.835-1.61-7.619-2.332-11.454" transform="translate(0 77.853)" fill="#fff"/>
    <path d="M151.5,50.068l-3.418-4.2c-10.576-13.113-22.6-27.936-38.1-37.42C70.749-15.547,36.076,16.586,8.192,42.4,5.96,44.47,3.838,46.44,1.713,48.357,1.143,48.876.57,49.446,0,50.068H3.631C5.7,48.2,7.774,46.284,9.951,44.315c27.21-25.24,61.161-56.6,98.684-33.637,15.137,9.225,26.487,23.271,37.42,36.8l2.073,2.591Z" transform="translate(465.786 237.277)" fill="#fff"/>
    <path d="M408.775,120.346c-3.21-17.518-12.957-32.341-26.8-40.582-21.2-12.7-49.963-10.366-66.859,5.338-3.835,3.524-7.36,7.463-10.78,11.3-4.561,5.131-9.329,10.418-14.771,14.719-8.6,6.79-19.384,11.4-32.082,13.735-6.323,1.14-12.75,1.088-19.021,1.088-6.53,0-13.271-.052-19.957,1.244-3.887.777-7.878,1.659-12.021,2.54-29.027,6.271-61.886,13.424-82.3-12.8-5.03-6.479-8.917-14.046-12.649-21.3-7-13.631-14.253-27.728-29.283-35.451-12.7-6.479-23.271-16.326-33.533-25.862-6.012-5.546-12.234-11.3-18.817-16.378A173.028,173.028,0,0,0,0,0V2.9A168.533,168.533,0,0,1,28.3,19.954c6.53,5.024,12.7,10.729,18.658,16.274,10.366,9.64,21.094,19.591,34.1,26.277,14.3,7.308,21.042,20.42,28.195,34.31,3.784,7.36,7.722,15.03,12.905,21.664,21.356,27.521,55.094,20.213,84.9,13.786,4.094-.881,8.085-1.762,11.975-2.54,6.427-1.244,13.061-1.192,19.436-1.192,6.375.052,12.957.052,19.485-1.14,13.116-2.436,24.31-7.2,33.225-14.253,5.646-4.405,10.469-9.8,15.134-15.03A152.165,152.165,0,0,1,316.883,87.02C333,72.042,360.419,69.865,380.632,81.993c13.216,7.878,22.545,22.027,25.552,38.82,2.8,15.445-.1,30.682-8.137,42.344h3.11c7.671-12.024,10.418-27.314,7.619-42.81" transform="translate(0 124.188)" fill="#fff"/>
    <path d="M641.229,133.826c-5.494,11.869-10.573,24.1-15.03,36.384-4.3,11.817-9.381,23.582-19.905,26.536-9.07,2.54-18.085-2.7-26.8-7.774-2.591-1.5-5.286-3.058-7.927-4.405-14.408-7.256-31.875-8.137-48.045-2.384-5.5,1.918-10.158,5.649-14.67,9.225-5.336,4.2-10.311,8.189-16.585,9.536-5.546,1.244-9.482.829-12.024-1.3-4.509-3.628-4.354-12.283-4.247-20.628l.049-1.659c.055-4.043.158-8.085.262-12.232.671-24.567,1.4-52.4-9.487-75.514C453.14,60.437,423.08,45.77,386.437,50.382c-3.006.363-5.8.881-8.5,1.348-10.832,1.918-19.384,3.421-30.372-4.561-7.256-5.235-13.009-12.439-18.606-19.384-1.14-1.451-2.28-2.905-3.473-4.3C318.85,15.4,310.612,6.536,299.935,2.441c-21.509-8.3-45.972,5.753-57.222,24.048-14.094,23.064-11.5,56.13-9.64,80.282l.1.933c.881,11.247,1.762,22.856-1.759,33.429-3.32,10.055-12.545,20.058-23.74,20.058h-.311c-11.35-.155-19.954-10.21-23.116-19.488-2.07-6.116-2.332-12.594-2.591-18.866a96.718,96.718,0,0,0-1.348-14.356c-1.088-5.287-1.811-10.677-2.54-15.963-.671-4.82-1.4-9.8-2.332-14.667-4.61-24.411-14.3-42.085-28.765-52.45-21.353-15.289-40.945-8.137-61.624-.57-2.436.881-4.924,1.814-7.414,2.7-19.174,6.686-42.03,5.7-62.243,4.872-3.009-.155-5.911-.259-8.814-.363L0,31.776v2.643l6.479.207c2.9.1,5.8.207,8.811.363,20.42.829,43.588,1.814,63.179-5.03,2.54-.878,5.027-1.811,7.463-2.692,20.058-7.363,38.975-14.253,59.24.259,13.893,9.951,23.219,27.052,27.728,50.792.933,4.872,1.61,9.8,2.28,14.564.728,5.287,1.5,10.78,2.591,16.119a96.848,96.848,0,0,1,1.3,13.942c.259,6.479.521,13.164,2.747,19.591,3.475,10.107,12.905,21.042,25.5,21.25h.36c13.009,0,22.7-11.247,26.228-21.82,3.68-11.091,2.744-22.96,1.863-34.466l-.1-.933c-1.863-23.789-4.405-56.389,9.28-78.728C255.621,10.474,278.737-2.949,299,4.877c10.158,3.887,18.088,12.387,24.515,20.265,1.14,1.4,2.28,2.8,3.421,4.25,5.7,7.1,11.61,14.46,19.122,19.9,11.872,8.6,21.356,6.945,32.292,4.976,2.7-.466,5.442-.933,8.448-1.348,35.4-4.457,64.475,9.692,77.691,37.783,10.628,22.6,9.9,48.874,9.228,74.322-.1,4.146-.207,8.241-.262,12.283l-.049,1.659c-.107,8.966-.262,18.244,5.183,22.7,3.213,2.591,7.878,3.213,14.253,1.814,6.838-1.5,12.332-5.857,17.622-10.055,4.351-3.473,8.86-7,13.939-8.811,15.445-5.546,32.24-4.716,45.975,2.28,2.591,1.3,5.232,2.8,7.774,4.3,9.225,5.39,18.71,10.884,28.868,8.033,11.713-3.262,17.1-15.7,21.613-28.143,4.457-12.18,9.485-24.359,14.927-36.176" transform="translate(0 -0.001)" fill="#fff"/>
    <path d="M79.92,10.054A79.443,79.443,0,0,0,48.771.31C31.771-1.245,15.6,3.212,0,10.054H6.841C20.317,4.767,34.155,1.606,48.512,2.9a75.274,75.274,0,0,1,25.655,7.152Z" transform="translate(504.091 277.29)" fill="#fff"/>
    <path d="M429.144,156.263c-.726-11.143-3.991-22.131-7.152-32.756-5.131-17.414-10-33.792-4.976-50.947a21.352,21.352,0,0,0-1.451-16.119c-2.335-4.3-5.442-7.049-9.329-8.085-8.863-2.436-19.747,4.094-28.506,9.381a84.5,84.5,0,0,1-8.448,4.714c-6.585,2.8-13.738,3.216-20.631,3.579-7.36.415-14.976.829-22.128,4.043a68.136,68.136,0,0,0-30.374,27.78c-2.073,3.524-3.832,7.36-5.6,11.039-5.6,11.972-10.936,23.271-24.826,27.365-6.064,1.762-12.335,1.088-18.969.363-2.485-.259-4.924-.518-7.411-.674-11.039-.57-21.353,2.8-31.253,6.064-7.2,2.384-14.667,4.872-22.286,5.7-19.177,2.229-37.939-9.536-43.588-27.314-5.183-16.274-13.475-28.454-26.173-38.353-5.5-4.3-11.975-7.515-18.192-10.625-8.811-4.3-17.881-8.759-24.1-16.378A118.49,118.49,0,0,1,65.874,43.8c-3.164-4.872-6.427-9.951-10.573-14.3C46.176,19.85,30.628,11.244,19.07,6.479A155.353,155.353,0,0,0,0,0V2.7A154.588,154.588,0,0,1,18.085,8.863c11.3,4.714,26.484,13.061,35.347,22.39,3.942,4.2,7.155,9.171,10.262,13.942A114.63,114.63,0,0,0,71.731,56.7c6.582,8.033,15.911,12.594,24.93,17.052,6.168,3.058,12.488,6.168,17.829,10.314,12.232,9.588,20.265,21.405,25.241,37.109,6.064,18.917,26.015,31.512,46.387,29.128,7.878-.881,15.445-3.421,22.753-5.8,9.744-3.213,19.747-6.53,30.372-5.96,2.384.156,4.82.415,7.256.674,6.582.726,13.426,1.451,19.954-.466,15.03-4.405,20.835-16.792,26.433-28.765,1.713-3.628,3.527-7.411,5.5-10.832a65.556,65.556,0,0,1,29.231-26.692c6.686-3.058,13.735-3.421,21.143-3.835,7.155-.415,14.564-.829,21.564-3.835a89.033,89.033,0,0,0,8.759-4.823c8.344-5.024,18.71-11.244,26.484-9.119,3.213.881,5.753,3.11,7.722,6.841a18.625,18.625,0,0,1,1.241,14.1c-5.284,17.933-.049,35.451,4.978,52.45,3.11,10.469,6.323,21.353,7.049,32.237a70.337,70.337,0,0,1-7.152,35.088h2.851a72.535,72.535,0,0,0,6.893-35.3" transform="translate(0 95.786)" fill="#fff"/>
    <path d="M381.254,84.273c-10.314-14.978-26.43-14.253-40.841-11.558-11.921,2.229-18.4,7.567-26.588,14.253-1.5,1.3-3.11,2.591-4.872,3.939-23.686,18.814-50.17,21.716-78.212,24.826-9.07.985-18.448,2.021-27.725,3.628-3.268.57-6.686,1.192-10.158,1.866-29.231,5.546-62.4,11.817-81.788-13.735a134.07,134.07,0,0,1-10.469-17c-1.241-2.28-2.488-4.561-3.783-6.738A181.531,181.531,0,0,0,26.744,15.393C18.4,10.884,10.055,5.96,1.3.777.881.518.415.259,0,0V3.058C8.811,8.241,17.1,13.164,25.5,17.674A179.367,179.367,0,0,1,94.59,85.051c1.3,2.177,2.485,4.405,3.729,6.686A136.477,136.477,0,0,0,109,109.047c20.372,26.847,55.822,20.109,84.328,14.719,3.473-.622,6.839-1.3,10.158-1.866,9.174-1.607,18.5-2.591,27.521-3.628,28.454-3.11,55.249-6.064,79.557-25.292,1.762-1.4,3.369-2.747,4.924-3.991,8.189-6.738,14.149-11.61,25.4-13.735,14.253-2.7,28.765-3.265,38.252,10.521,4.405,6.427,4.976,15.7,1.448,24.152-2.848,6.893-8.137,13.372-16.222,19.85-1.814,1.451-3.628,2.8-5.494,4.043h4.457c.881-.674,1.765-1.348,2.643-2.021,8.448-6.738,13.994-13.579,17.055-20.835,3.832-9.277,3.159-19.539-1.765-26.692" transform="translate(0 153.523)" fill="#fff"/>
  </g>
  <g transform="matrix(-0.946, 0.326, -0.326, -0.946, 437.723, 23.318)" opacity="0.15">
    <path d="M640.141,205.332c.259,5.854.518,11.762-2.436,16.219-1.97,2.957-4.094,4.3-6.53,4.256-8.448-.369-18.5-19.024-22.338-26.073l-1.088-2.021a70.223,70.223,0,0,0-59.554-35.505,66.088,66.088,0,0,0-39.856,12.232c-6.113,4.46-10.518,11.039-14.771,17.417a90.224,90.224,0,0,1-10.418,13.631c-3.11,3.159-7.616,6.528-11.5,4.714-4.46-2.018-5.8-12.7-6.741-20.418-.415-3.113-.726-5.756-1.192-7.619q-.777-2.959-1.552-5.911c-2.591-10-5.238-20.317-5.652-30.786-.311-8.4.985-18.606,2.384-29.387,3.475-26.8,7.411-57.167-11.921-73.752-14.875-12.8-34.725-17.155-50.533-11.195-5.183,1.969-10.625,5.338-15.86,8.6-14.616,9.07-28.4,17.674-41.256,2.125-3.473-4.146-4.976-8.966-6.43-13.631-2.485-7.878-5.076-16.067-17.308-19.021-14.046-3.369-26.332,6.323-31.307,17.674-6.942,15.756-8.549,33.481-10.055,50.533l-.518,5.494c-.153,1.762-.308,3.576-.464,5.39-2.024,23.323-4.146,47.423-30.786,52.813-3.369.674-6.9,1.088-10.262,1.555a101.4,101.4,0,0,0-14,2.436c-4.872,1.244-9.536,4.561-14.046,7.774-7.774,5.546-15.134,10.78-23.737,6.79-4.872-2.28-7.2-7.463-8.189-10.314A65.752,65.752,0,0,1,170.1,139.4c-.207-1.4-.415-2.8-.671-4.2a77.166,77.166,0,0,0-10.576-27c-1.244-1.969-2.54-3.732-3.783-5.442-2.9-3.887-5.6-7.567-6.79-12.491-2.332-9.381-.881-18.5.622-28.195,1.348-8.655,2.8-17.622,1.195-26.692-2.076-12.128-9.384-27.106-23.585-32.807C113.038-2.869,100.029,1.384,87.435,5.53c-8.033,2.643-16.43,5.39-24.67,5.442-21.872,0-42.448-.155-62.764-1.091v2.591c20.317.936,40.893,1.091,62.764,1.091,8.655-.052,17.207-2.851,25.5-5.546,12.7-4.2,24.67-8.137,37.265-3.058C138.745,10.3,145.587,24.4,147.556,35.85c1.5,8.6.1,17.363-1.192,25.811-1.5,9.536-3.058,19.384-.622,29.231,1.348,5.442,4.2,9.329,7.2,13.424a58.168,58.168,0,0,1,3.68,5.286,73.877,73.877,0,0,1,10.262,26.07c.262,1.348.466,2.747.674,4.146a60.087,60.087,0,0,0,2.229,10.314c1.918,5.7,5.287,9.9,9.536,11.869,10,4.613,18.3-1.3,26.329-7.049,4.509-3.162,8.814-6.219,13.216-7.36a111.17,111.17,0,0,1,13.683-2.384c3.424-.415,6.948-.881,10.42-1.555,28.555-5.753,30.835-31.978,32.807-55.146.155-1.814.308-3.628.515-5.39l.469-5.442c1.555-16.9,3.11-34.362,9.9-49.755,4.512-10.369,15.707-19.228,28.3-16.17,10.835,2.591,12.957,9.381,15.448,17.259,1.555,4.924,3.161,10,6.893,14.512,14.357,17.259,30.423,7.256,44.624-1.607,5.39-3.317,10.469-6.479,15.393-8.344,14.978-5.7,33.792-1.451,48,10.729,18.244,15.7,14.405,45.3,11.037,71.472-1.4,10.884-2.747,21.2-2.436,29.8.415,10.729,3.11,21.2,5.756,31.3.515,1.969,1.034,3.942,1.5,5.908a58.938,58.938,0,0,1,1.14,7.308c1.088,8.814,2.488,19.8,8.241,22.494,4.149,1.869,9.174.052,14.46-5.287,4.094-4.146,7.463-9.174,10.677-13.994,4.354-6.479,8.448-12.594,14.149-16.792A64.521,64.521,0,0,1,548.194,164.8a67.72,67.72,0,0,1,57.273,34.155l1.088,2.021c4.768,8.759,14.564,26.954,24.515,27.42,3.369.207,6.271-1.661,8.811-5.393,3.421-5.183,3.11-11.817,2.9-17.619" transform="translate(0 44.799)" fill="#fff"/>
    <path d="M440.549,129.416c-3.421-17.414-6.274-37.731-1.3-56.649,4.506-17.155,7.3-33.64-7.308-46.286-7.829-6.79-19.7-9.122-30.945-6.219-9.536,2.54-18.71,8.6-26.588,17.674-.933,1.088-1.863,2.232-2.8,3.372-4.405,5.338-8.966,10.832-15.341,12.594-9.588,2.643-13.786-3.32-18.658-10.158-3.576-4.976-7.256-10.158-13.372-12.079-9.9-3.159-20.109,3.732-24.67,11.82-4.872,8.655-5.39,19.125-5.8,27.573-1.14,23.686-17.052,58.048-43.9,60.9-4.354.466-8.555.57-12.594.726-10,.311-19.49.622-29.8,5.7-1.762.881-3.473,1.762-5.183,2.7-9.847,5.079-19.125,9.951-30.475,6.582-11.923-3.473-15.811-18.192-19.594-32.393-2.848-10.936-5.857-22.183-12.439-28.661-5.6-5.442-12.957-8.814-20.058-12.024-9.329-4.3-18.192-8.293-22.8-16.689-1.866-3.424-2.8-7.152-3.783-11.143A53.72,53.72,0,0,0,89.3,35.344C83.289,24.046,70.331,19.177,58.67,15.5Q29.672,6.474,0,0V2.64Q29.231,9.015,57.893,17.984c11.195,3.521,23.582,8.137,29.076,18.606A44.728,44.728,0,0,1,90.6,47.371c.988,3.991,2.021,8.085,4.043,11.765,5.027,9.122,14.667,13.527,24.051,17.777,6.89,3.162,14.046,6.375,19.277,11.506,6.119,6.012,8.966,16.948,11.765,27.469,3.942,14.927,8.036,30.372,21.356,34.259,12.332,3.628,22.545-1.659,32.393-6.79l5.131-2.643c9.847-4.82,19.021-5.131,28.765-5.442,4.094-.155,8.293-.259,12.75-.726,29.594-3.162,45.039-39.649,46.231-63.386.415-8.137.881-18.3,5.494-26.381,4.043-7.2,13.012-13.372,21.613-10.68,5.287,1.713,8.707,6.53,12.024,11.146,4.978,6.994,10.107,14.2,21.457,11.143,7.155-1.969,12.027-7.826,16.689-13.478.933-1.088,1.817-2.229,2.747-3.262,7.515-8.655,16.274-14.515,25.3-16.847,10.415-2.747,21.405-.567,28.606,5.652,13.475,11.661,10.731,27.311,6.479,43.64-5.128,19.436-2.226,40.167,1.247,57.841.726,3.783,1.5,7.619,2.332,11.454,4.146,19.8,8.393,40.271,5.442,60.225a55.718,55.718,0,0,0-.625,7.878h2.591a50.909,50.909,0,0,1,.573-7.463c3.058-20.472-1.244-41.152-5.442-61.158-.832-3.835-1.61-7.619-2.332-11.454" transform="translate(0 77.853)" fill="#fff"/>
    <path d="M151.5,50.068l-3.418-4.2c-10.576-13.113-22.6-27.936-38.1-37.42C70.749-15.547,36.076,16.586,8.192,42.4,5.96,44.47,3.838,46.44,1.713,48.357,1.143,48.876.57,49.446,0,50.068H3.631C5.7,48.2,7.774,46.284,9.951,44.315c27.21-25.24,61.161-56.6,98.684-33.637,15.137,9.225,26.487,23.271,37.42,36.8l2.073,2.591Z" transform="translate(465.786 237.277)" fill="#fff"/>
    <path d="M408.775,120.346c-3.21-17.518-12.957-32.341-26.8-40.582-21.2-12.7-49.963-10.366-66.859,5.338-3.835,3.524-7.36,7.463-10.78,11.3-4.561,5.131-9.329,10.418-14.771,14.719-8.6,6.79-19.384,11.4-32.082,13.735-6.323,1.14-12.75,1.088-19.021,1.088-6.53,0-13.271-.052-19.957,1.244-3.887.777-7.878,1.659-12.021,2.54-29.027,6.271-61.886,13.424-82.3-12.8-5.03-6.479-8.917-14.046-12.649-21.3-7-13.631-14.253-27.728-29.283-35.451-12.7-6.479-23.271-16.326-33.533-25.862-6.012-5.546-12.234-11.3-18.817-16.378A173.028,173.028,0,0,0,0,0V2.9A168.533,168.533,0,0,1,28.3,19.954c6.53,5.024,12.7,10.729,18.658,16.274,10.366,9.64,21.094,19.591,34.1,26.277,14.3,7.308,21.042,20.42,28.195,34.31,3.784,7.36,7.722,15.03,12.905,21.664,21.356,27.521,55.094,20.213,84.9,13.786,4.094-.881,8.085-1.762,11.975-2.54,6.427-1.244,13.061-1.192,19.436-1.192,6.375.052,12.957.052,19.485-1.14,13.116-2.436,24.31-7.2,33.225-14.253,5.646-4.405,10.469-9.8,15.134-15.03A152.165,152.165,0,0,1,316.883,87.02C333,72.042,360.419,69.865,380.632,81.993c13.216,7.878,22.545,22.027,25.552,38.82,2.8,15.445-.1,30.682-8.137,42.344h3.11c7.671-12.024,10.418-27.314,7.619-42.81" transform="translate(0 124.188)" fill="#fff"/>
    <path d="M641.229,133.826c-5.494,11.869-10.573,24.1-15.03,36.384-4.3,11.817-9.381,23.582-19.905,26.536-9.07,2.54-18.085-2.7-26.8-7.774-2.591-1.5-5.286-3.058-7.927-4.405-14.408-7.256-31.875-8.137-48.045-2.384-5.5,1.918-10.158,5.649-14.67,9.225-5.336,4.2-10.311,8.189-16.585,9.536-5.546,1.244-9.482.829-12.024-1.3-4.509-3.628-4.354-12.283-4.247-20.628l.049-1.659c.055-4.043.158-8.085.262-12.232.671-24.567,1.4-52.4-9.487-75.514C453.14,60.437,423.08,45.77,386.437,50.382c-3.006.363-5.8.881-8.5,1.348-10.832,1.918-19.384,3.421-30.372-4.561-7.256-5.235-13.009-12.439-18.606-19.384-1.14-1.451-2.28-2.905-3.473-4.3C318.85,15.4,310.612,6.536,299.935,2.441c-21.509-8.3-45.972,5.753-57.222,24.048-14.094,23.064-11.5,56.13-9.64,80.282l.1.933c.881,11.247,1.762,22.856-1.759,33.429-3.32,10.055-12.545,20.058-23.74,20.058h-.311c-11.35-.155-19.954-10.21-23.116-19.488-2.07-6.116-2.332-12.594-2.591-18.866a96.718,96.718,0,0,0-1.348-14.356c-1.088-5.287-1.811-10.677-2.54-15.963-.671-4.82-1.4-9.8-2.332-14.667-4.61-24.411-14.3-42.085-28.765-52.45-21.353-15.289-40.945-8.137-61.624-.57-2.436.881-4.924,1.814-7.414,2.7-19.174,6.686-42.03,5.7-62.243,4.872-3.009-.155-5.911-.259-8.814-.363L0,31.776v2.643l6.479.207c2.9.1,5.8.207,8.811.363,20.42.829,43.588,1.814,63.179-5.03,2.54-.878,5.027-1.811,7.463-2.692,20.058-7.363,38.975-14.253,59.24.259,13.893,9.951,23.219,27.052,27.728,50.792.933,4.872,1.61,9.8,2.28,14.564.728,5.287,1.5,10.78,2.591,16.119a96.848,96.848,0,0,1,1.3,13.942c.259,6.479.521,13.164,2.747,19.591,3.475,10.107,12.905,21.042,25.5,21.25h.36c13.009,0,22.7-11.247,26.228-21.82,3.68-11.091,2.744-22.96,1.863-34.466l-.1-.933c-1.863-23.789-4.405-56.389,9.28-78.728C255.621,10.474,278.737-2.949,299,4.877c10.158,3.887,18.088,12.387,24.515,20.265,1.14,1.4,2.28,2.8,3.421,4.25,5.7,7.1,11.61,14.46,19.122,19.9,11.872,8.6,21.356,6.945,32.292,4.976,2.7-.466,5.442-.933,8.448-1.348,35.4-4.457,64.475,9.692,77.691,37.783,10.628,22.6,9.9,48.874,9.228,74.322-.1,4.146-.207,8.241-.262,12.283l-.049,1.659c-.107,8.966-.262,18.244,5.183,22.7,3.213,2.591,7.878,3.213,14.253,1.814,6.838-1.5,12.332-5.857,17.622-10.055,4.351-3.473,8.86-7,13.939-8.811,15.445-5.546,32.24-4.716,45.975,2.28,2.591,1.3,5.232,2.8,7.774,4.3,9.225,5.39,18.71,10.884,28.868,8.033,11.713-3.262,17.1-15.7,21.613-28.143,4.457-12.18,9.485-24.359,14.927-36.176" transform="translate(0 -0.001)" fill="#fff"/>
    <path d="M79.92,10.054A79.443,79.443,0,0,0,48.771.31C31.771-1.245,15.6,3.212,0,10.054H6.841C20.317,4.767,34.155,1.606,48.512,2.9a75.274,75.274,0,0,1,25.655,7.152Z" transform="translate(504.091 277.29)" fill="#fff"/>
    <path d="M429.144,156.263c-.726-11.143-3.991-22.131-7.152-32.756-5.131-17.414-10-33.792-4.976-50.947a21.352,21.352,0,0,0-1.451-16.119c-2.335-4.3-5.442-7.049-9.329-8.085-8.863-2.436-19.747,4.094-28.506,9.381a84.5,84.5,0,0,1-8.448,4.714c-6.585,2.8-13.738,3.216-20.631,3.579-7.36.415-14.976.829-22.128,4.043a68.136,68.136,0,0,0-30.374,27.78c-2.073,3.524-3.832,7.36-5.6,11.039-5.6,11.972-10.936,23.271-24.826,27.365-6.064,1.762-12.335,1.088-18.969.363-2.485-.259-4.924-.518-7.411-.674-11.039-.57-21.353,2.8-31.253,6.064-7.2,2.384-14.667,4.872-22.286,5.7-19.177,2.229-37.939-9.536-43.588-27.314-5.183-16.274-13.475-28.454-26.173-38.353-5.5-4.3-11.975-7.515-18.192-10.625-8.811-4.3-17.881-8.759-24.1-16.378A118.49,118.49,0,0,1,65.874,43.8c-3.164-4.872-6.427-9.951-10.573-14.3C46.176,19.85,30.628,11.244,19.07,6.479A155.353,155.353,0,0,0,0,0V2.7A154.588,154.588,0,0,1,18.085,8.863c11.3,4.714,26.484,13.061,35.347,22.39,3.942,4.2,7.155,9.171,10.262,13.942A114.63,114.63,0,0,0,71.731,56.7c6.582,8.033,15.911,12.594,24.93,17.052,6.168,3.058,12.488,6.168,17.829,10.314,12.232,9.588,20.265,21.405,25.241,37.109,6.064,18.917,26.015,31.512,46.387,29.128,7.878-.881,15.445-3.421,22.753-5.8,9.744-3.213,19.747-6.53,30.372-5.96,2.384.156,4.82.415,7.256.674,6.582.726,13.426,1.451,19.954-.466,15.03-4.405,20.835-16.792,26.433-28.765,1.713-3.628,3.527-7.411,5.5-10.832a65.556,65.556,0,0,1,29.231-26.692c6.686-3.058,13.735-3.421,21.143-3.835,7.155-.415,14.564-.829,21.564-3.835a89.033,89.033,0,0,0,8.759-4.823c8.344-5.024,18.71-11.244,26.484-9.119,3.213.881,5.753,3.11,7.722,6.841a18.625,18.625,0,0,1,1.241,14.1c-5.284,17.933-.049,35.451,4.978,52.45,3.11,10.469,6.323,21.353,7.049,32.237a70.337,70.337,0,0,1-7.152,35.088h2.851a72.535,72.535,0,0,0,6.893-35.3" transform="translate(0 95.786)" fill="#fff"/>
    <path d="M381.254,84.273c-10.314-14.978-26.43-14.253-40.841-11.558-11.921,2.229-18.4,7.567-26.588,14.253-1.5,1.3-3.11,2.591-4.872,3.939-23.686,18.814-50.17,21.716-78.212,24.826-9.07.985-18.448,2.021-27.725,3.628-3.268.57-6.686,1.192-10.158,1.866-29.231,5.546-62.4,11.817-81.788-13.735a134.07,134.07,0,0,1-10.469-17c-1.241-2.28-2.488-4.561-3.783-6.738A181.531,181.531,0,0,0,26.744,15.393C18.4,10.884,10.055,5.96,1.3.777.881.518.415.259,0,0V3.058C8.811,8.241,17.1,13.164,25.5,17.674A179.367,179.367,0,0,1,94.59,85.051c1.3,2.177,2.485,4.405,3.729,6.686A136.477,136.477,0,0,0,109,109.047c20.372,26.847,55.822,20.109,84.328,14.719,3.473-.622,6.839-1.3,10.158-1.866,9.174-1.607,18.5-2.591,27.521-3.628,28.454-3.11,55.249-6.064,79.557-25.292,1.762-1.4,3.369-2.747,4.924-3.991,8.189-6.738,14.149-11.61,25.4-13.735,14.253-2.7,28.765-3.265,38.252,10.521,4.405,6.427,4.976,15.7,1.448,24.152-2.848,6.893-8.137,13.372-16.222,19.85-1.814,1.451-3.628,2.8-5.494,4.043h4.457c.881-.674,1.765-1.348,2.643-2.021,8.448-6.738,13.994-13.579,17.055-20.835,3.832-9.277,3.159-19.539-1.765-26.692" transform="translate(0 153.523)" fill="#fff"/>
  </g>
</svg>