<svg xmlns="http://www.w3.org/2000/svg" width="17.131" height="20.968" viewBox="0 0 17.131 20.968">
  <g id="Group_89480" data-name="Group 89480" transform="translate(-694.886 -652.819)">
    <path id="Path_57268" data-name="Path 57268" d="M915.7,705.461a3.914,3.914,0,1,1-3.914-3.914A3.914,3.914,0,0,1,915.7,705.461Z" transform="translate(-207.054 -47.37)" fill="#753bbd"/>
    <path id="Path_57269" data-name="Path 57269" d="M711.883,669.482h-.007c-.085-.5-.994-5.3-4.533-6a29.913,29.913,0,0,1-3.92-.779,9.654,9.654,0,0,1-1.913-.647c-3.89-1.555-3.289-5.7-3.942-7.917l-.007-.022c0,.007,0,.007,0-.031-.376-1.809-3.377-2.2-2.517,2.353a21.518,21.518,0,0,0,2.1,6.719,7.753,7.753,0,0,1,.57,1.2,14.029,14.029,0,0,1,.322,5.059l-.022,2.5s2.129,1.9,6.9,1.864a9.844,9.844,0,0,0,7.11-2.909Z" transform="translate(0 0)" fill="#753bbd"/>
  </g>
</svg>
