<svg width="42" height="42" viewBox="0 0 42 42" fill="none" xmlns="http://www.w3.org/2000/svg">
<path d="M42 21C42 32.598 32.598 42 21 42C9.40202 42 0 32.598 0 21C0 9.40202 9.40202 0 21 0C32.598 0 42 9.40202 42 21Z" fill="#FFEB82"/>
<path fill-rule="evenodd" clip-rule="evenodd" d="M30.5131 14.5269C31.1753 15.2158 31.1601 16.3175 30.4793 16.9875L18.7731 28.5074C18.4226 28.8524 17.9434 29.03 17.4555 28.9958C16.9676 28.9617 16.5172 28.719 16.2169 28.3284L10.3625 20.7138C9.77928 19.9553 9.91419 18.8621 10.6638 18.272C11.4134 17.6819 12.4938 17.8184 13.077 18.5769L17.7521 24.6576L28.0814 14.4926C28.7623 13.8226 29.851 13.838 30.5131 14.5269Z" fill="#743BBC"/>
</svg>
