<svg xmlns="http://www.w3.org/2000/svg" width="17" height="17" viewBox="0 0 17 17" fill="none">
    <circle cx="8.5" cy="8.5" r="8.5" fill="#E7E6FC"/>
    <path d="M7.59063 4.08008H9.64695L9.42663 9.73496H7.81095L7.59063 4.08008ZM8.61879 12.746C8.27607 12.746 7.99863 12.644 7.78647 12.44C7.58247 12.2278 7.48047 11.9749 7.48047 11.6811C7.48047 11.371 7.58247 11.114 7.78647 10.91C7.99863 10.706 8.27607 10.604 8.61879 10.604C8.95335 10.604 9.22671 10.706 9.43887 10.91C9.65919 11.114 9.76935 11.371 9.76935 11.6811C9.76935 11.9749 9.65919 12.2278 9.43887 12.44C9.22671 12.644 8.95335 12.746 8.61879 12.746Z"
          fill="#743BBC"/>
</svg>
