<svg xmlns="http://www.w3.org/2000/svg" width="25" height="25" viewBox="0 0 25 25"><g transform="translate(-182 -2945)"><g transform="translate(-344.927 21.478)"><g transform="translate(534.789 2931.384)"><path d="M9.276,1.5H0A1.5,1.5,0,0,1-1.5,0,1.5,1.5,0,0,1,0-1.5H9.276a1.5,1.5,0,0,1,1.5,1.5A1.5,1.5,0,0,1,9.276,1.5Z" transform="translate(0 4.638)" fill="#888b8d"/><path d="M9.276,1.5H0A1.5,1.5,0,0,1-1.5,0,1.5,1.5,0,0,1,0-1.5H9.276a1.5,1.5,0,0,1,1.5,1.5A1.5,1.5,0,0,1,9.276,1.5Z" transform="translate(4.638 0) rotate(90)" fill="#888b8d"/></g></g><path d="M12.5,3A9.5,9.5,0,1,0,22,12.5,9.511,9.511,0,0,0,12.5,3m0-3A12.5,12.5,0,1,1,0,12.5,12.5,12.5,0,0,1,12.5,0Z" transform="translate(182 2945)" fill="#888b8d"/></g></svg>