<svg xmlns="http://www.w3.org/2000/svg" width="18.807" height="20.773" viewBox="0 0 18.807 20.773">
  <path id="Path_57243" data-name="Path 57243" d="M241.609,502.674a3.056,3.056,0,0,0,2.9,0l6.5-3.756a3.068,3.068,0,0,0,1.449-2.51V488.9a3.068,3.068,0,0,0-1.449-2.51l-6.5-3.755a3.056,3.056,0,0,0-2.9,0l-6.506,3.755a3.068,3.068,0,0,0-1.449,2.51v7.512a3.068,3.068,0,0,0,1.449,2.51Zm-5.164-6.039a.587.587,0,0,1-.141-.227v-6.163l5.43,3.135v6.307Zm13.242-.011-5.3,3.064v-6.309l5.43-3.135v6.144A.576.576,0,0,1,249.687,496.624Zm-6.771-11.689a.448.448,0,0,1,.143-.019.993.993,0,0,1,.124.01l5.272,3.043-5.4,3.117-5.4-3.116Z" transform="translate(-233.654 -482.266)" fill="#753bbd"/>
</svg>
