<svg xmlns="http://www.w3.org/2000/svg" width="18.444" height="18.704" viewBox="0 0 18.444 18.704">
  <path id="Path_57267" data-name="Path 57267" d="M284.183,87.711a.905.905,0,0,0-.718-.354h-.205L279.7,100.505a1.147,1.147,0,0,1-1.107.844h-9.023c-.4,0-1.787-.2-1.928-1.049s.307-1.4.657-1.4h9.278a1.148,1.148,0,0,0,1.107-.844L282.215,85.2A.947.947,0,0,0,281.3,84h-10.2a1.447,1.447,0,0,0-1.4,1.064l-3.636,13.294c-.754,3.763,1.457,4.327,3.673,4.345h9.967a1.1,1.1,0,0,0,1.062-.814L284.338,88.5A.9.9,0,0,0,284.183,87.711Z" transform="translate(-265.925 -84)" fill="#753bbd"/>
</svg>
