<svg id="LOGO" xmlns="http://www.w3.org/2000/svg" xmlns:xlink="http://www.w3.org/1999/xlink" width="151.8" height="69.136" viewBox="0 0 151.8 69.136">
  <defs>
    <clipPath id="clip-path">
      <rect id="Rectangle_2513" data-name="Rectangle 2513" width="151.8" height="69.136" fill="none"/>
    </clipPath>
  </defs>
  <path id="Path_1143" data-name="Path 1143" d="M166.43,124.132h4.928v5.319h4.514v-5.319h4.851v14.944h-4.851v-5.734h-4.514v5.734H166.43Z" transform="translate(-106.737 -79.61)" fill="#888b8d"/>
  <g id="Group_1387" data-name="Group 1387">
    <g id="Group_1386" data-name="Group 1386" clip-path="url(#clip-path)">
      <path id="Path_1144" data-name="Path 1144" d="M114.452,124.132h7.264c4.851,0,6.616,2.7,6.616,5.448,0,2.7-1.765,5.37-6.616,5.37h-2.335v4.125h-4.929Zm6.979,7.265c1.4,0,2.075-.7,2.075-1.79s-.674-1.816-2.075-1.816h-2.05V131.4Z" transform="translate(-73.402 -79.61)" fill="#888b8d"/>
      <path id="Path_1145" data-name="Path 1145" d="M277.308,124.132h7.6c4.852,0,6.617,2.724,6.617,5.474a4.412,4.412,0,0,1-2.491,4.151l2.932,5.319h-5.228l-1.958-4.515h-2.544v4.515h-4.929Zm7.316,7.186c1.375,0,2.1-.674,2.1-1.738,0-1.09-.726-1.79-2.1-1.79h-2.387v3.528Z" transform="translate(-177.846 -79.61)" fill="#888b8d"/>
      <path id="Path_1146" data-name="Path 1146" d="M337.25,123.121c4.67,0,8.328,3.269,8.328,7.757,0,4.774-3.606,7.887-8.328,7.887-4.748,0-8.354-3.113-8.354-7.887,0-4.488,3.659-7.757,8.354-7.757m0,11.856c2.024,0,3.4-1.661,3.4-4.1,0-2.308-1.4-3.969-3.4-3.969-2.024,0-3.4,1.661-3.4,3.969,0,2.439,1.349,4.1,3.4,4.1" transform="translate(-210.931 -78.961)" fill="#888b8d"/>
      <path id="Path_1147" data-name="Path 1147" d="M388.51,133.541a9.989,9.989,0,0,0,4.8,1.486c1.193,0,1.738-.363,1.738-.934,0-1.972-8.1-.8-8.1-6.123,0-2.879,2.439-4.851,6.485-4.851a13.07,13.07,0,0,1,5.8,1.3l-1.528,3.511a11.581,11.581,0,0,0-4.378-1.153c-.987,0-1.48.363-1.48.882,0,1.868,7.991.519,7.991,6.3,0,2.725-2.153,4.8-6.485,4.8a13.332,13.332,0,0,1-6.591-1.643Z" transform="translate(-248.049 -78.961)" fill="#888b8d"/>
      <path id="Path_1148" data-name="Path 1148" d="M228.869,124.132h-5.008l-6.123,14.944h5.206l.651-1.959h5.541l.651,1.959h5.206Zm-4.189,9.7,1.659-4.612h.052l1.658,4.612Z" transform="translate(-139.642 -79.61)" fill="#888b8d"/>
      <path id="Path_1149" data-name="Path 1149" d="M29.351,3.432C29.707,1.949,30.524.405,31.476.071c-.02-.609-6.148,2.8-6.442,7.713a14.243,14.243,0,0,0,.17,2.879c2.215,1.518,5.084,2.464,11.6,2.9-5.28-4.813-7.968-6.23-7.454-10.13" transform="translate(-16.044 0)" fill="#ffdc32"/>
      <path id="Path_1150" data-name="Path 1150" d="M20.944,59.177c-1.547-.943-1.689-3.381-1.469-5.3.865-3.782-.093-4.4-3.205-7.035a60.724,60.724,0,0,1-5.359-5.055c-4.926-.806-7.861-3.2-8.75-4.454a2.548,2.548,0,0,1-.225-2.959c-.282-.426-1.288.7-1.584,1.631A10.3,10.3,0,0,0,.382,41.42c1.353,3.874,5.244,7.167,8.826,8.484,9.432,3.632,7.964,6.132,9.871,8.144a3.859,3.859,0,0,0,2.436,1.375,2.777,2.777,0,0,1-.571-.247" transform="translate(0 -21.987)" fill="#ffdc32"/>
      <path id="Path_1151" data-name="Path 1151" d="M19.388,28.839a22.274,22.274,0,0,1-3.718-9.382c-.036-.026-.075-.05-.112-.079-5.125-3.6-5.213-5.429-5.2-5.643.012-.1-.165.12-.2.629a16.724,16.724,0,0,0,.73,4.2,21.577,21.577,0,0,0,3.158,6.173c1.222,1.494,2.344,2.765,3.375,3.859.516.086,1.049.157,1.609.2.125.011.237.024.358.038" transform="translate(-6.511 -8.796)" fill="#ffeb82"/>
      <path id="Path_1152" data-name="Path 1152" d="M34.353,34.9a4.459,4.459,0,0,0,.854,4.645c3.256,3.6,6.357,3.55,8.12,6.943.528,1.019,1.053,2.372.658,5.418a5.36,5.36,0,0,1-1.71,3.525c2.889-2.023,4.266-6.913,3.247-11.869-.891-4.142-1.758-6.1-7.556-10.172-.282-.264-.552-.513-.827-.761-6.516-.435-9.385-1.381-11.6-2.9a22.278,22.278,0,0,0,3.717,9.382c-.12-.015-.232-.028-.357-.038-.56-.047-1.093-.118-1.609-.2a60.724,60.724,0,0,0,5.359,5.055c3.112,2.634,4.071,3.253,3.205,7.035-.22,1.917-.079,4.356,1.469,5.3a2.738,2.738,0,0,0,.571.247,5.893,5.893,0,0,0,3.6-.621,2.016,2.016,0,0,1-1.359.046c-.041-.014-.075-.036-.112-.049a2.3,2.3,0,0,1-1.337-2.136c-.135-1.778.36-2.176.037-4.746-.432-3.38-5.8-6.193-6.358-9.359a2.847,2.847,0,0,1,.14-1.559c.366-.881,1.472-2.371,1.847-3.181" transform="translate(-16.379 -19.064)" fill="#ffc300"/>
      <path id="Path_1153" data-name="Path 1153" d="M68.469,40.254c-2.76-2.239-8.023-2.169-9.948-2.4-.22-.012-.426-.028-.64-.042.274.248.545.5.827.761,5.8,4.07,6.665,6.029,7.556,10.172,1.019,4.956-.358,9.847-3.247,11.869a5.593,5.593,0,0,1-.564.35c-.071.04-.143.068-.214.1a5.894,5.894,0,0,1-3.6.621,3.169,3.169,0,0,0,.718.137c4.341.3,9.571-4.574,11.034-7.659s3.7-9.8-1.919-13.909" transform="translate(-37.121 -24.248)" fill="#ffeb82"/>
      <path id="Path_1154" data-name="Path 1154" d="M55.445,55.73c-1.764-3.393-4.865-3.338-8.12-6.943a4.459,4.459,0,0,1-.854-4.645c-.374.81-1.481,2.3-1.847,3.181a2.853,2.853,0,0,0-.14,1.559c.56,3.166,5.926,5.979,6.358,9.359.323,2.569-.172,2.968-.037,4.745a2.3,2.3,0,0,0,1.337,2.136c.037.014.071.035.112.049a2.015,2.015,0,0,0,1.359-.046c.071-.036.143-.063.214-.1a5.49,5.49,0,0,0,.564-.35A5.36,5.36,0,0,0,56.1,61.147c.4-3.046-.13-4.4-.658-5.418" transform="translate(-28.497 -28.309)" fill="#ffdc32"/>
      <path id="Path_1155" data-name="Path 1155" d="M20.743,111.634a4.11,4.11,0,0,1,2.62-.542c.47.017,1.006.067,1.609.143l.282-2.207h0c-.419-.053-.816-.093-1.2-.123l-.119-7.737c2.631,3.684,7.266,4.194,11.19,3.745l-4.187,4.369-2.511,2.69,3.363-.436,8.213-8.079-1.244-1.984s-.13.046-.426.136c-2.91.8-12.03,1.884-14.481-6.148l-2.787-.449.424,13.98a5.121,5.121,0,0,0-2.019.814,8.07,8.07,0,0,0-2.564,3.514l2.032.912a5.971,5.971,0,0,1,1.8-2.595" transform="translate(-10.846 -60.933)" fill="#888b8d"/>
      <path id="Path_1156" data-name="Path 1156" d="M17.878,174.42l-1.565-.612,1.44-3.484-2.4-1h0l-2.421,5.939,6.211,2.467s1.8-4.132,3.146-7.49l-2.655-.285c-.93,2.316-1.693,4.316-1.757,4.467" transform="translate(-8.295 -108.592)" fill="#888b8d"/>
      <path id="Path_1157" data-name="Path 1157" d="M33.48,145.488a16.077,16.077,0,0,1-3.155-.437c-.392-.1-.7-.187-.908-.254-.1-.032-.181-.058-.232-.077l-.5-.179-.835,2.015.288.114a17.512,17.512,0,0,0,5.262,1.042,15.2,15.2,0,0,0,6.116-1.032l-.793-2.07a13.1,13.1,0,0,1-5.242.878" transform="translate(-17.86 -92.699)" fill="#888b8d"/>
      <path id="Path_1158" data-name="Path 1158" d="M27.2,152.078c-.359-.122-1.342-.54-1.345-.543l-.81,1.95a11.466,11.466,0,0,0,5.434,1.385,19.263,19.263,0,0,0,3.948-.154s-.356-2.032-.368-2.125a18.5,18.5,0,0,1-6.859-.514" transform="translate(-16.064 -97.184)" fill="#888b8d"/>
      <path id="Path_1159" data-name="Path 1159" d="M28.226,160.037a14.457,14.457,0,0,1-3.912-.7c-.482-.157-.86-.31-1.115-.42-.128-.055-.223-.1-.284-.13l-.122-.066-.857,2.061a15.559,15.559,0,0,0,6.209,1.478,15.359,15.359,0,0,0,1.943-.053l-.19-2.217a13.29,13.29,0,0,1-1.673.045" transform="translate(-14.069 -101.794)" fill="#888b8d"/>
    </g>
  </g>
</svg>
