<svg xmlns="http://www.w3.org/2000/svg" width="960" height="976" viewBox="0 0 960 976">
  <g transform="translate(427.311 -514.313) rotate(36)" opacity="0.147">
    <path d="M1915.466,1197.281c-11.308-2.47-24.123-5.27-34.6-12.068-11.641-7.55-18.543-19.744-17.578-31.065.6-7.058,3.991-13.384,7.272-19.5,2.509-4.678,5.1-9.514,6.4-14.615,4.173-16.376-4.805-32.869-14.362-48.355-13.793-22.354-28.055-45.469-48.26-63.009-22.208-19.285-49.408-28.058-72.732-23.482-10.118,1.989-19.726,6.4-29.018,10.669-5.383,2.474-10.953,5.03-16.6,7.111-9.056,3.339-31.85,9.762-47.869-2.672-12.659-9.826-16.7-29.89-9.394-46.669,7.516-17.264,23.8-28.043,36.139-34.044,9.845-4.79,20.387-8.31,30.579-11.711,5.411-1.807,11.008-3.675,16.426-5.709,7.465-2.8,15.075-6.216,20.172-12.158,4.769-5.564,7.254-14.667,2.781-21.3-6.148-9.12-19.556-7.533-32.758-5.125-28.942,5.276-49.546,4.945-62.99-1.009-4.726-2.093-9.413-4.233-14.091-6.369-17.3-7.9-35.193-16.068-54.125-21.208-30.715-8.34-59.8-8.551-84.091-.6-3.971,1.3-7.944,2.856-11.787,4.36a162.287,162.287,0,0,1-16.475,5.773c-14.2,3.855-45.088,6.207-49.986-11.124-1.97-6.975,1.671-13.428,5.19-19.667,2.049-3.634,4.168-7.389,5.19-11.232,3.533-13.307-5.68-26.1-16.161-37.944-11.1-12.543-23.68-26.76-40.381-33.3-15.818-6.191-33.45-4.773-50.5-3.4-4.347.35-8.844.711-13.228.941-19.8,1.031-46.136-1.755-59.151-20.879-2.964-4.358-4.979-9.287-6.927-14.055a87.23,87.23,0,0,0-5.558-11.868c-10.929-18.245-30.789-32.916-53.124-39.242-5.789-1.64-10.8-6.355-14.907-14.013-1.128-2.1-2.147-4.3-3.134-6.423a65.473,65.473,0,0,0-6.253-11.412c-7.592-10.29-22-16.213-38.488-15.817-11.009.256-21.973,2.947-32.575,5.55-3.453.847-7.021,1.723-10.543,2.5a237.024,237.024,0,0,1-55.535,5.566c-2.939-.054-5.888-.162-8.835-.27-10.553-.384-21.469-.785-31.864,1.441-17.284,3.7-32.128,14.358-46.482,24.66-6.526,4.683-13.273,9.524-20.2,13.689-5.987,3.6-13.867,7.5-21.676,5.764-6.264-1.4-11.981-6.463-16.1-14.264-5.133-9.719-7.036-20.766-8.876-31.45l-.388-2.244c-1.95-11.228-4.385-22.982-10.737-32.447-7.258-10.814-18.046-17.034-32.063-18.48-33.223-3.436-74.572,20.267-92.06,37.361-1.891,1.849-3.765,3.8-5.577,5.68-4.423,4.6-9,9.348-14.279,13.159-8.678,6.267-18.275,8.729-26.321,6.753-8.88-2.18-15.128-9.235-18.8-14.768a115.211,115.211,0,0,1-7.355-13.569c-1.21-2.495-2.461-5.075-3.789-7.547-1.687-3.14-3.6-6.344-5.447-9.444-7.086-11.877-14.412-24.16-12.467-37.736,1.3-9.049,6.588-16.772,11.7-24.241.938-1.37,1.874-2.735,2.782-4.1a147.306,147.306,0,0,0,19.779-44.184c4.485-17.113,3.405-30.453-3.209-39.649-8.234-11.45-23.973-14.815-35.1-16.35a212.3,212.3,0,0,0-40.185-1.681c-2.749.147-5.424.455-8.011.756-7.521.871-14.628,1.7-22.124-1.6l-5.22-2.288c-19.028-8.327-38.7-16.937-55.413-30.1-6.607-5.2-16.949-5.955-27.664-2.009a111.274,111.274,0,0,0-14.8,7.2c-3.846,2.111-7.824,4.3-11.933,6.066-13.475,5.807-27.638,6.779-39.879,2.739-13.584-4.48-24.3-15.618-27.287-28.373-.527-2.254-.846-4.6-1.156-6.876-.678-5-1.319-9.716-4-13.61-4.062-5.91-11.56-8.091-18.811-10.2l-.911-.266c-25.381-7.423-43.414-19.125-53.6-34.789-5.372-8.266-8.61-17.726-11.742-26.876a169.828,169.828,0,0,0-7.45-19.2,84.173,84.173,0,0,0-37.823-38c-5.475-2.759-15.7-7.914-23.456-7.776-5.471.083-11.127,2.41-16.6,4.661a74.212,74.212,0,0,1-11.242,3.945c-10.5,2.4-21.3,1.451-31.747.53l-.183-.015c-23.795-2.1-46.273-4.082-69.391-8.933l-50.077-10.5c-8.374-1.757-17.038-3.57-25.614-2.391l-.248-1.782c8.9-1.226,18.106.706,26.23,2.41L94.823,198c23.015,4.828,45.44,6.808,69.182,8.9l.18.015c10.307.909,20.963,1.849,31.19-.491a71.725,71.725,0,0,0,10.958-3.857c5.624-2.313,11.441-4.707,17.254-4.8,7.263-.109,15.951,3.764,24.293,7.968a85.979,85.979,0,0,1,38.633,38.824,171.166,171.166,0,0,1,7.535,19.4c3.1,9.046,6.3,18.4,11.548,26.479,9.939,15.291,27.636,26.743,52.594,34.041l.908.264c7.2,2.1,15.364,4.473,19.791,10.911,2.919,4.247,3.621,9.4,4.3,14.387.3,2.231.617,4.538,1.125,6.708,2.853,12.158,13.1,22.787,26.1,27.075,11.821,3.9,25.531,2.949,38.6-2.684,4.03-1.737,7.969-3.9,11.779-5.991a112.567,112.567,0,0,1,15.04-7.309c11.307-4.165,22.3-3.31,29.4,2.285,16.527,13.017,36.1,21.578,55.022,29.861l5.223,2.29c7.048,3.1,13.918,2.306,21.192,1.462,2.614-.3,5.317-.616,8.122-.765a214.165,214.165,0,0,1,40.527,1.7c11.452,1.579,27.675,5.071,36.313,17.082,6.942,9.651,8.115,23.5,3.488,41.157A149.15,149.15,0,0,1,655.1,507.645c-.912,1.376-1.852,2.748-2.8,4.125-5,7.3-10.168,14.845-11.405,23.479-1.856,12.946,5.3,24.951,12.23,36.559,1.859,3.116,3.78,6.339,5.486,9.514,1.346,2.505,2.605,5.1,3.824,7.612a113.632,113.632,0,0,0,7.234,13.36c3.5,5.267,9.416,11.973,17.734,14.015,7.538,1.842,16.588-.51,24.839-6.463,5.151-3.717,9.668-8.411,14.036-12.949,1.822-1.894,3.706-3.85,5.616-5.717,17.733-17.334,59.731-41.348,93.5-37.866,14.576,1.506,25.8,7.989,33.373,19.268,6.548,9.758,9.033,21.724,11.016,33.143l.388,2.245c1.818,10.546,3.695,21.45,8.695,30.916,2.24,4.244,7.157,11.62,14.9,13.347,7.187,1.6,14.657-2.125,20.355-5.551,6.865-4.127,13.581-8.947,20.078-13.609,14.5-10.409,29.5-21.173,47.156-24.956,10.611-2.277,21.639-1.872,32.3-1.481,2.939.108,5.875.216,8.8.269a235.137,235.137,0,0,0,55.113-5.523c3.5-.775,7.063-1.649,10.5-2.495,10.7-2.625,21.756-5.339,32.962-5.6,17.067-.389,32.04,5.788,39.98,16.549a66.8,66.8,0,0,1,6.436,11.722c.974,2.1,1.986,4.273,3.088,6.33,3.864,7.212,8.511,11.631,13.812,13.133,22.764,6.448,43.019,21.421,54.176,40.051a88.4,88.4,0,0,1,5.681,12.111c1.913,4.682,3.89,9.521,6.747,13.721,12.544,18.432,38.233,21.1,57.57,20.093,4.36-.226,8.843-.587,13.178-.936,17.254-1.391,35.092-2.827,51.3,3.518,17.106,6.7,29.839,21.086,41.071,33.782,10.814,12.216,20.3,25.471,16.553,39.6-1.081,4.067-3.259,7.925-5.363,11.657-3.491,6.191-6.793,12.039-5.022,18.293,4.485,15.878,34.688,13.432,47.78,9.876a160.909,160.909,0,0,0,16.289-5.713c3.865-1.513,7.864-3.077,11.883-4.4,24.624-8.057,54.06-7.86,85.122.577,19.074,5.178,37.034,13.379,54.4,21.308,4.671,2.133,9.351,4.271,14.07,6.361,13.105,5.8,33.363,6.091,61.938.882,10.857-1.977,27.255-4.968,34.574,5.89,4.978,7.384,2.3,17.4-2.908,23.482-5.359,6.252-13.213,9.784-20.9,12.671-5.45,2.046-11.063,3.92-16.488,5.732-10.139,3.385-20.625,6.884-30.362,11.621-12.067,5.869-27.981,16.386-35.276,33.144-6.988,16.05-3.182,35.193,8.846,44.53,15.306,11.877,37.368,5.64,46.144,2.406,5.579-2.058,11.116-4.6,16.469-7.06,9.387-4.311,19.092-8.768,29.421-10.8,23.879-4.69,51.636,4.243,74.262,23.886,20.412,17.723,34.746,40.954,48.61,63.424,9.758,15.817,18.925,32.685,14.574,49.744-1.353,5.316-4,10.251-6.557,15.022-3.339,6.231-6.5,12.114-7.065,18.8-.908,10.667,5.674,22.21,16.767,29.4,10.2,6.621,22.3,9.264,34.005,11.822Z" transform="translate(7.116 70.983)" fill="#fff"/>
    <path d="M1282.791,534.337c-6.171,0-12.351-1.934-18.378-3.819q-1.335-.417-2.658-.825c-9.856-3.011-20.146-5.138-30.1-7.2-9.78-2.023-19.9-4.116-29.634-7.049-23.874-7.194-40.811-18.616-50.341-33.947a127.378,127.378,0,0,1-6.912-13.44c-4.819-10.355-9.372-20.136-18.772-25.165-9.8-5.247-20.755-3.505-32.344-1.665-4.12.655-8.376,1.33-12.546,1.656-2.6.2-5.21.446-7.828.688-12.918,1.2-26.284,2.436-38.917-1.123-10.3-2.9-19.444-8.83-28.284-14.561-2.508-1.628-5.014-3.252-7.543-4.809-9.338-5.746-23.393-13.118-37.613-10.752-12.7,2.112-22.185,10.9-32.225,20.2a172.835,172.835,0,0,1-13.077,11.325c-28.143,21.194-71.33,20.065-98.328-2.572-14.852-12.455-24.412-29.757-33.659-46.49-6.647-12.031-13.522-24.472-22.325-35.068-.864-1.041-1.754-2.075-2.644-3.111-4.444-5.163-9.037-10.5-10.921-17.156-1.84-6.5-.822-13.292.161-19.865.219-1.459.436-2.915.623-4.365,2.962-23.044-10.29-44.443-33.76-54.515-12.078-5.183-25.34-7.526-38.164-9.793-5.168-.914-10.512-1.858-15.719-2.976-10.547-2.265-23.647-6.13-31.373-15.983-8.106-10.339-8.18-23.881-8.252-36.977a130.977,130.977,0,0,0-1.045-19.243c-1.045-6.663-3.159-11.494-6.463-14.77-5.864-5.813-15.24-6.43-22.726-6.311-12.023.184-24.319,1.7-36.211,3.162-21.92,2.7-44.587,5.49-66.272.01-2.884-.73-5.8-1.615-8.623-2.472-8.219-2.5-16.717-5.078-25.168-3.981-6.591.853-12.767,3.915-18.741,6.877-1.968.976-3.934,1.95-5.919,2.853-10.709,4.873-19.687,5.7-26.689,2.436-23.42-10.892-31.457-38.828-37.681-66.509l-1.229-5.521C359.2,67.645,353.731,42.97,337.461,25.214L338.789,24c16.6,18.114,22.12,43.027,27.462,67.122l1.228,5.514c6.127,27.244,14.005,54.726,36.684,65.274,6.5,3.025,14.978,2.2,25.186-2.445,1.966-.894,3.915-1.861,5.865-2.827,6.1-3.027,12.419-6.159,19.308-7.052,8.839-1.145,17.521,1.5,25.922,4.046,2.8.851,5.7,1.73,8.54,2.449,21.357,5.4,43.855,2.63,65.613-.05,11.938-1.47,24.282-2.99,36.4-3.176,7.867-.115,17.682.547,24.022,6.833,3.587,3.556,5.867,8.714,6.974,15.769a132.331,132.331,0,0,1,1.066,19.514c.073,13.381.143,26.021,7.868,35.874,7.371,9.4,20.084,13.133,30.334,15.335,5.175,1.112,10.5,2.053,15.654,2.964,12.925,2.284,26.292,4.646,38.561,9.91,24.229,10.4,37.9,32.537,34.836,56.4-.188,1.462-.408,2.931-.629,4.4-.955,6.383-1.944,12.983-.209,19.106,1.776,6.271,6.238,11.458,10.552,16.473.9,1.044,1.794,2.086,2.666,3.134,8.911,10.727,15.827,23.244,22.516,35.349,9.166,16.588,18.644,33.742,33.24,45.98,26.378,22.124,68.588,23.227,96.088,2.514A171.126,171.126,0,0,0,927.475,431.2c9.792-9.071,19.92-18.45,33.153-20.65,14.819-2.464,29.268,5.094,38.85,10.993,2.544,1.566,5.061,3.2,7.581,4.831,8.728,5.659,17.752,11.51,27.794,14.34,12.312,3.469,25.5,2.245,38.263,1.063,2.625-.244,5.244-.486,7.852-.689,4.1-.32,8.319-.991,12.4-1.639,11.379-1.805,23.142-3.674,33.476,1.856,9.931,5.313,14.824,15.827,19.555,25.993a125.85,125.85,0,0,0,6.811,13.248c9.291,14.948,25.889,26.109,49.332,33.175,9.661,2.911,19.736,4.995,29.477,7.01,9.992,2.065,20.323,4.2,30.261,7.238.883.27,1.775.548,2.667.828,7.841,2.454,15.953,4.985,23.69,3.043,5.413-1.359,10.02-4.734,14.653-8.368,9.319-7.306,18.375-15.166,26.919-23.36,1.892-1.816,3.778-3.659,5.663-5.505,10.6-10.374,21.555-21.1,35.143-27.46,11.108-5.2,23.411-7.194,35.311-9.125,5.608-.91,11.406-1.851,16.992-3.115,12.432-2.81,34.339-10.334,41.382-29.142,6.791-18.134-4.126-38.5-18.424-49.235-15.752-11.837-36.5-16.152-53.161-19.62l-.246-.051c-18.778-3.906-38.2-7.946-53.986-19.018-19.953-13.99-30.848-37.292-29.89-63.93.569-15.746,5.549-31.084,9.824-42.688,1.124-3.05,2.294-6.1,3.468-9.167,6.527-17.035,13.276-34.649,12.244-52.776-.551-9.646-3.328-19.156-6.014-28.355-1.254-4.29-2.548-8.727-3.61-13.14-2.91-12.1-4.2-24.664-5.451-36.817-.867-8.414-1.762-17.114-3.185-25.569l1.775-.3c1.433,8.513,2.331,17.243,3.2,25.684,1.244,12.095,2.532,24.6,5.412,36.582,1.049,4.369,2.34,8.785,3.587,13.054,2.716,9.3,5.523,18.907,6.084,28.759,1.055,18.511-5.764,36.309-12.36,53.52-1.17,3.057-2.339,6.1-3.461,9.147-4.228,11.477-9.153,26.639-9.712,42.13-.937,26.017,9.679,48.758,29.124,62.392,15.488,10.857,34.72,14.859,53.318,18.728l.246.051c16.841,3.5,37.8,7.864,53.878,19.942,14.83,11.142,26.127,32.344,19.026,51.306-7.34,19.6-29.884,27.376-42.67,30.268-5.641,1.275-11.468,2.22-17.1,3.135-11.778,1.91-23.954,3.886-34.836,8.977-13.31,6.231-24.157,16.848-34.648,27.116-1.89,1.852-3.778,3.7-5.677,5.521-8.585,8.234-17.689,16.134-27.052,23.476-4.793,3.758-9.57,7.252-15.326,8.7a25.7,25.7,0,0,1-6.287.749" transform="translate(129.686 9.223)" fill="#fff"/>
    <path d="M1954.75,1197.339c-5.275-6.271-13.366-9.413-21.192-12.455-8.257-3.21-16.8-6.527-22.311-13.525-4.844-6.146-7.011-14.751-6.441-25.575.219-4.181.793-8.383,1.347-12.448a135.258,135.258,0,0,0,1.391-13.7,67.454,67.454,0,0,0-14.686-43.9c-4.622-5.734-10.258-10.749-15.709-15.6A109.172,109.172,0,0,1,1851,1029.487c-3.94-6.214-8.014-12.638-13.06-18.084-6.466-6.98-14.582-12.423-22.434-17.684-2.327-1.559-4.653-3.12-6.941-4.718-9.02-6.3-20.034-15.112-25.186-27.4-6.7-15.978,1.142-29.715,8.9-38.427,6.7-7.534,14.261-14.607,21.569-21.448,6.411-6,13.042-12.205,19.059-18.687,8.916-9.6,20.24-24,15.672-38.111-2.089-6.448-7.627-12.187-15.2-15.749-6.8-3.2-14.379-4.477-22.2-5.609-28.72-4.164-62.118-6.948-92.077,3.981-5.046,1.841-10.1,4.1-14.988,6.3-11.274,5.05-22.929,10.273-35.449,10.752-14.957.558-29.014-5.629-42.625-11.622-2.418-1.067-4.831-2.129-7.241-3.152l-3.58-1.519c-46.1-19.577-98.352-41.771-141.966-16.684a8.724,8.724,0,0,1-8.043.3,16.87,16.87,0,0,1-8.987-10.957,49.23,49.23,0,0,1-1.038-10.485,43.416,43.416,0,0,0-1.228-10.98c-3.152-10.759-13.923-17.138-24.688-22.747l-48.318-25.175c-14.25-7.425-30.4-15.84-47.519-17.205a129.829,129.829,0,0,0-17.1.156c-9.026.478-18.364.968-27.208-1.627-14.62-4.291-25.259-16.122-32.891-25.95-2.05-2.637-4.043-5.332-6.037-8.028-6.245-8.442-12.7-17.171-20.86-23.893a130.624,130.624,0,0,0-14.608-9.953c-5.682-3.508-11.562-7.136-16.645-11.677-7.473-6.674-13.077-15.161-18.5-23.368-2.471-3.743-5.029-7.615-7.722-11.252-.936-1.263-1.859-2.539-2.78-3.812-7.562-10.458-14.7-20.337-27.142-20.723a217.684,217.684,0,0,0-68.013,8.673c-4.3,1.26-8.652,2.679-12.859,4.05-10.035,3.274-20.41,6.657-31.054,8.178-10.451,1.495-21.286,1.215-31.767.948-15.658-.4-31.856-.82-46.518,4.831a120.6,120.6,0,0,0-13.529,6.563c-3.573,1.921-7.268,3.908-11.063,5.561-7.212,3.141-17.81,6.11-27.344,2.416-13.217-5.125-19.044-20.429-23.3-31.6-9.993-26.255-36.507-50.647-71.112-42.164a152.139,152.139,0,0,1-19.97,3.044c-10.342,1.107-21.037,2.254-30.823,6.827-6.436,3.008-12.784,6.478-18.925,9.837-6.34,3.468-12.9,7.052-19.581,10.146-14.686,6.8-25.967,7.82-34.487,3.116-10.728-5.922-14.089-19.534-12.662-30.4,1.286-9.783,5.688-18.82,9.944-27.56.7-1.433,1.4-2.863,2.078-4.294,9.84-20.65,15.028-38.964,15.859-55.988.905-18.536-.111-37.69-13.558-52.217-11.523-12.449-29.641-15.8-42.811-16.422-7.247-.341-14.652-.06-21.81.213a219.839,219.839,0,0,1-25.942-.043c-28.392-2.3-53.769-15.382-74.85-27.876-2.579-1.528-5.065-3.184-7.47-4.785-7.707-5.132-14.985-9.979-24.42-10.273a109.272,109.272,0,0,0-40.2,6.167c-.921.328-1.84.67-2.76,1.012-4.816,1.784-9.794,3.628-15.039,3.7-6.242.058-13.437-3.209-15.214-9.644-1.256-4.545.5-9.087,2.194-13.48,1.75-4.534,3.4-8.815,1.827-12.869-2.533-6.527-11.183-7.537-19.307-7.666-3.559-.055-7.18-.046-10.828-.037-21.621.057-43.961.108-60.542-13.011-16.081-12.727-25.535-31.756-34.679-50.157-4.539-9.136-9.233-18.583-14.669-27.1-9.838-15.422-19.168-28.641-33.748-34.2-14.04-5.349-29.606-2.013-44.659,1.218l-1.9.4c-31.526,6.73-56.892,9.024-79.816,7.216-26.289-2.071-52.855-12.464-74.808-29.265l1.094-1.429c21.681,16.592,47.908,26.855,73.855,28.9,22.751,1.8,47.949-.49,79.3-7.182l1.9-.406c15.31-3.284,31.14-6.678,45.676-1.139,16.322,6.22,26.9,22.8,34.624,34.909,5.487,8.6,10.2,18.093,14.765,27.269,9.055,18.226,18.418,37.07,34.184,49.547,16.088,12.73,38.109,12.669,59.421,12.623,3.657-.01,7.29-.019,10.86.037,8.214.13,18.021,1.249,20.958,8.814,1.826,4.7-.032,9.514-1.827,14.168-1.664,4.311-3.235,8.382-2.139,12.354,1.534,5.557,8,8.436,13.456,8.322,4.935-.062,9.765-1.852,14.437-3.583.927-.345,1.855-.689,2.781-1.019a110.629,110.629,0,0,1,40.862-6.271c9.949.31,17.435,5.295,25.362,10.573,2.385,1.588,4.852,3.231,7.389,4.734,20.9,12.388,46.052,25.359,74.079,27.629a218.229,218.229,0,0,0,25.726.039c7.2-.274,14.638-.557,21.963-.212,13.507.637,32.11,4.1,44.047,17,13.9,15.015,14.96,34.6,14.035,53.53-.842,17.266-6.087,35.8-16.033,56.673-.684,1.435-1.383,2.871-2.082,4.308-4.193,8.61-8.53,17.516-9.779,27.008-1.348,10.255,1.762,23.071,11.749,28.586,7.982,4.4,18.73,3.368,32.861-3.174,6.629-3.07,13.158-6.64,19.473-10.093,6.164-3.371,12.539-6.856,19.025-9.888,10.06-4.7,20.907-5.864,31.4-6.987a150.478,150.478,0,0,0,19.732-3c35.668-8.741,62.957,16.3,73.223,43.273,5.162,13.561,10.749,26.1,22.266,30.565,8.965,3.476,19.073.62,25.975-2.387,3.727-1.622,7.389-3.592,10.932-5.5a121.957,121.957,0,0,1,13.732-6.656c14.995-5.779,31.372-5.354,47.21-4.953,10.407.267,21.162.544,31.468-.929,10.487-1.5,20.787-4.859,30.748-8.108,4.219-1.376,8.583-2.8,12.913-4.067A219.339,219.339,0,0,1,1142,572.445c13.321.413,21.061,11.116,28.544,21.466.916,1.268,1.835,2.539,2.764,3.794,2.726,3.677,5.3,7.569,7.781,11.332,5.356,8.112,10.9,16.5,18.194,23.018,4.966,4.435,10.774,8.019,16.39,11.487a132.392,132.392,0,0,1,14.811,10.1c8.329,6.862,14.854,15.681,21.16,24.211,1.986,2.684,3.971,5.368,6.011,7.994,7.468,9.614,17.851,21.18,31.977,25.326,8.548,2.51,17.73,2.027,26.606,1.556a131.656,131.656,0,0,1,17.34-.152c17.483,1.394,33.806,9.9,48.208,17.4l48.318,25.175c11.106,5.789,22.23,12.4,25.58,23.836a44.79,44.79,0,0,1,1.3,11.438,47.806,47.806,0,0,0,.986,10.1,14.966,14.966,0,0,0,7.946,9.733,7.056,7.056,0,0,0,6.441-.2c44.388-25.531,97.08-3.155,143.566,16.589l3.577,1.519c2.418,1.024,4.838,2.09,7.266,3.16,13.422,5.912,27.309,12.038,41.828,11.47,12.174-.464,23.666-5.615,34.783-10.6,4.917-2.2,10-4.482,15.108-6.343,30.333-11.063,64.008-8.266,92.949-4.074,7.958,1.153,15.684,2.461,22.707,5.764,8.021,3.772,13.907,9.9,16.145,16.821,4.862,15.013-6.838,29.958-16.065,39.891-6.059,6.528-12.712,12.755-19.146,18.778-7.279,6.814-14.807,13.858-21.457,21.328-7.409,8.327-14.912,21.423-8.579,36.536,4.975,11.862,15.737,20.457,24.556,26.62,2.28,1.593,4.6,3.146,6.913,4.7,7.937,5.32,16.142,10.82,22.754,17.954,5.157,5.568,9.275,12.063,13.257,18.343a107.418,107.418,0,0,0,25.825,30.277c5.5,4.9,11.2,9.963,15.914,15.814a69.3,69.3,0,0,1,15.085,45.084,136.618,136.618,0,0,1-1.409,13.882c-.549,4.027-1.116,8.194-1.333,12.3-.545,10.377,1.492,18.575,6.058,24.366,5.212,6.613,13.147,9.7,21.549,12.96,8.037,3.124,16.346,6.354,21.919,12.974Z" transform="translate(16.069 63.75)" fill="#fff"/>
    <path d="M1409.378,561.347h-.437c-15.723-.122-30.925-6.556-44.339-12.233l-58.664-24.833c-14.19-6.008-30.277-12.816-40.638-25.957a101.982,101.982,0,0,1-7.137-10.853c-4.2-7.025-8.174-13.662-14.723-17.808-8.793-5.565-19.274-4.914-30.376-4.223-9.236.577-18.782,1.17-27.369-2.117-6.3-2.41-13.263-3.409-20-4.374-9.282-1.33-18.882-2.706-26.918-7.8-14.019-8.89-29.116-16.775-44.529-14.247-13.731,2.247-23.9,11.8-34.659,21.909a164.52,164.52,0,0,1-15.8,13.631c-26.116,18.862-65.728,19.845-98.558,2.447-19.923-10.558-38.056-27.376-53.9-49.987-15.115-21.577-23.876-42.452-30.237-72.051-4.166-19.386-10.6-40.856-26.753-53.139-12.643-9.615-29.261-12.136-45.33-14.573-17.567-2.665-35.73-5.42-48.736-17.471-11.522-10.678-16.332-26.216-20.985-41.244q-.7-2.247-1.394-4.475c-3.3-10.467-7.982-21.775-17.727-26.3-8.112-3.768-16.977-1.88-26.361.119a96.647,96.647,0,0,1-14.005,2.274c-9.546.58-18.971-1.962-28.079-4.421-9-2.432-18.316-4.946-27.609-4.354-12.677.806-24.265,6.538-33.508,16.577-.815.885-1.629,1.784-2.446,2.687-6.216,6.872-12.644,13.979-21.5,16.866-10.086,3.288-22.608.233-32.678-7.976-9.045-7.373-15.215-17.354-21.182-27-13.255-21.44-26.961-43.608-34.706-68.178-2.447-7.767-4.41-16.2-6.31-24.361-6-25.781-12.211-52.441-34.775-67.662a66.7,66.7,0,0,0-52.475-9.32c-14.769,3.645-27.034,17.247-38.331,30.867C316.072,63.991,303.866,77.233,287.363,79.5c-11.131,1.534-22-2.353-32.517-6.109-2.2-.786-4.392-1.57-6.58-2.3-35.8-11.978-78.536-11.271-123.579,2.049C103.507,79.4,83.522,89.844,64.2,99.944c-17.385,9.087-35.363,18.48-54.241,24.869l-.577-1.705c18.746-6.343,36.66-15.7,53.985-24.76,19.4-10.14,39.466-20.625,60.815-26.937,45.4-13.425,88.505-14.125,124.66-2.029,2.2.736,4.4,1.523,6.614,2.313,10.307,3.684,20.961,7.489,31.666,6.023,15.861-2.18,27.784-15.136,37.715-27.109,11.487-13.851,23.984-27.69,39.285-31.465a68.549,68.549,0,0,1,53.912,9.575c23.151,15.616,29.44,42.627,35.521,68.746,1.978,8.5,3.847,16.527,6.275,24.228,7.677,24.355,21.322,46.427,34.519,67.773,5.889,9.525,11.978,19.375,20.788,26.556,7.525,6.135,19.616,11.367,30.982,7.661,8.4-2.74,14.664-9.665,20.724-16.362.82-.907,1.636-1.811,2.456-2.7,9.563-10.386,21.569-16.318,34.717-17.154,9.588-.6,19.045,1.944,28.193,4.413,8.968,2.421,18.237,4.927,27.5,4.362A95.4,95.4,0,0,0,673.446,194c9.257-1.973,18.835-4.01,27.492.01,10.381,4.82,15.272,16.552,18.688,27.393q.7,2.23,1.4,4.485c4.582,14.8,9.32,30.106,20.489,40.455,12.6,11.675,30.485,14.388,47.782,17.012,16.293,2.471,33.141,5.025,46.151,14.92,16.617,12.637,23.187,34.487,27.422,54.194,6.308,29.346,14.985,50.031,29.954,71.4,15.673,22.376,33.594,39.005,53.261,49.428,32.24,17.086,71.084,16.156,96.661-2.315a162.883,162.883,0,0,0,15.621-13.484c10.483-9.852,21.328-20.038,35.6-22.373,16.018-2.622,31.465,5.422,45.784,14.5,7.71,4.888,16.7,6.177,26.209,7.54,6.833.979,13.9,1.993,20.385,4.475,8.224,3.147,17.57,2.564,26.615,2,10.895-.678,22.166-1.38,31.45,4.5,6.912,4.374,11.178,11.506,15.3,18.4a100.671,100.671,0,0,0,7.006,10.662c10.076,12.777,25.935,19.491,39.927,25.414l58.664,24.833c13.257,5.611,28.284,11.971,43.65,12.089,17.385.08,34.8-7.9,49.094-22.62,5.136-5.289,8.81-11.4,12.365-17.305,5.194-8.638,10.1-16.8,19.16-22.621,19.123-12.3,41.568-15.348,63.275-18.3,14.937-2.028,30.381-4.125,44.566-9.226,9.513-3.419,20.9-12.855,24.253-24.267,2.407-8.185-.018-16.776-3.187-26.35-5.655-17.091-11.5-34.764-21.173-50.282-8.795-14.117-18.761-30.117-37.137-31.529-19.81-1.523-40.294-3.1-58.891-11.434-16.248-7.283-34.518-22.906-37.066-44.911-1.531-13.231,3.065-26.72,6.758-37.559l.713-2.092c5.154-15.1,10.483-30.718,13.152-46.645,3.147-18.784,2.076-35.517-3.181-49.737-1.62-4.374-3.7-8.68-5.718-12.842-2.965-6.126-6.033-12.461-7.718-19.207-2.726-10.925-1.721-22.35-.746-33.4.3-3.459.62-7.038.813-10.532l1.8.1c-.2,3.523-.511,7.115-.817,10.59-.961,10.9-1.953,22.172.7,32.8,1.639,6.566,4.664,12.816,7.592,18.86,2.033,4.2,4.138,8.545,5.785,13,5.369,14.517,6.469,31.562,3.27,50.658-2.694,16.072-8.046,31.759-13.226,46.931l-.712,2.09c-3.635,10.667-8.158,23.943-6.672,36.77,2.461,21.257,20.217,36.4,36.011,43.477,18.314,8.208,38.639,9.77,58.293,11.282,19.283,1.48,29.508,17.891,38.529,32.37,9.781,15.7,15.663,33.478,21.353,50.668,2.658,8.034,5.966,18.033,3.2,27.424-3.523,11.988-15.431,21.879-25.372,25.453-14.364,5.165-29.905,7.276-44.934,9.316-21.512,2.921-43.755,5.941-62.542,18.025-8.706,5.6-13.508,13.583-18.594,22.035-3.6,5.994-7.335,12.193-12.615,17.63-14.52,14.953-32.247,23.169-49.961,23.169" transform="translate(3.604 6.628)" fill="#fff"/>
    <path d="M2007.816,1255.7c-13.671-4.855-27.807-9.877-40.012-18.352-13.782-9.568-22.621-22.219-24.887-35.626-1.052-6.229-.694-12.663-.348-18.889.429-7.71.874-15.684-1.462-23.033-3.916-12.324-14.693-20.863-25.115-29.117l-2.467-1.96a313.1,313.1,0,0,1-48.086-47.757c-10.7-13.221-33.786-47.312-17.23-78.253,3.7-6.915,8.964-12.964,14.057-18.817,6.426-7.382,13.068-15.016,16.317-24.246,3.371-9.577,2.838-20.117,2.32-30.311-.118-2.3-.234-4.6-.307-6.88a174.932,174.932,0,0,1,6.3-52.536c.345-1.243.7-2.5,1.065-3.758,3.317-11.594,6.747-23.58,1.995-34.093a25.943,25.943,0,0,0-17.127-14.1c-7.021-1.819-14.065-.616-19.344,3.3a113.777,113.777,0,0,1-51.879,21.584,223.517,223.517,0,0,1-24.568,1.577c-11.756.32-23.911.651-35.356,3.79-11.855,3.25-22.837,9.484-33.457,15.514-10.42,5.912-21.194,12.027-32.88,15.409-26.666,7.716-57.439,1.793-94.076-18.105-8.4-4.56-16.761-9.567-24.852-14.409-19.447-11.638-39.556-23.672-61.47-30.313q-8.322-2.521-16.585-4.975c-36.684-10.95-71.333-21.292-105.25-38.441-3.962-2-7.942-4.139-11.791-6.2-9.48-5.087-19.282-10.348-29.54-14.009-4.6-1.643-9.417-3.008-14.077-4.329-8.614-2.442-17.525-4.968-25.525-9.37-11.952-6.575-14.089-11.324-19.251-22.8l-.134-.295c-4.387-9.747-11.974-18.98-22.545-27.445-9.322-7.46-20.62-14.848-34.545-22.585-7.548-4.194-11.588-9-16.266-14.574-1.334-1.591-2.741-3.264-4.319-5.036-15.229-17.113-36.688-27.541-58.877-28.609-17.715-.85-35.287,3.984-52.271,8.661-12.358,3.4-25.137,6.923-38.025,8.3-11.926,1.273-24.275.759-36.222.262-20.167-.84-41.017-1.705-59.586,6.236-3.119,1.334-6.2,2.936-9.177,4.484a104.47,104.47,0,0,1-12.4,5.768c-5.263,1.91-15.362,4.392-23.853-.446-7.694-4.383-11.011-12.8-14.219-20.944-2-5.067-4.059-10.306-7.156-14.575-12.347-17.017-28.183-27.16-47.07-30.145-11.538-1.826-23.461-.642-34.992.5-5.764.57-11.724,1.161-17.593,1.377-12.8.471-36.179-1.168-48.7-17.425-7.011-9.1-9.943-21.883-8.965-39.068.208-3.648.493-7.258.778-10.846,1.027-12.978,2-25.236-.649-38.1-3.061-14.891-18.014-26.487-30.7-34.926-26.482-17.624-57.91-24.708-87.927-29.742-6.155-1.033-12.334-1.993-18.516-2.954-24.465-3.805-49.764-7.74-73.418-16.277-16.834-6.077-28.428-13.244-36.485-22.554a109.681,109.681,0,0,1-7.4-9.984c-3.585-5.247-7.3-10.67-12.244-14.679a33.25,33.25,0,0,0-24.765-7.017,150.376,150.376,0,0,0-18.8,4.01c-11.761,3.052-22.873,5.937-36.817,3.156-19.762-3.941-37.462-15.074-48.56-30.54-3.654-5.091-6.415-10.991-9.082-16.7-3.188-6.819-6.488-13.871-11.292-19.423-3.09-3.573-6.58-6.938-9.956-10.193-3.641-3.511-7.4-7.142-10.8-11.138-12.156-14.311-31.241-34.008-56.56-39.81-16.613-3.805-34.019-1.31-50.854,1.107-6.739.968-13.706,1.967-20.546,2.555a177.124,177.124,0,0,1-84.748-13.669c-13.893-5.965-23.554-12.486-30.406-20.522-8.772-10.288-12.414-23.606-9.511-34.758,3.2-12.261,13.578-22.491,30.857-30.406,21.071-9.653,44.121-13.914,66.413-18.036,26.945-4.983,54.811-10.133,82.614-6.348,8.483,1.156,17.038,3.169,25.313,5.116,16.337,3.846,33.23,7.82,49.842,5.151,11.479-1.845,22.657-6.843,33.468-11.675,15.99-7.15,32.531-14.539,49.872-11.423,11.631,2.092,16.263,11.585,21.163,21.637,1.013,2.074,2.058,4.219,3.177,6.315,3.338,6.265,6.178,12.885,8.926,19.286,2.59,6.034,5.27,12.273,8.349,18.176,7.276,13.947,17.123,26.657,26.642,38.949,9.069,11.707,18.442,23.814,25.651,37.027,1.874,3.434,3.663,7.043,5.395,10.533,6.016,12.12,12.234,24.652,23.134,32.413,19.8,14.1,48.82,6.034,63.512-10.341a123.754,123.754,0,0,0,8.062-10.4c3.7-5.137,7.521-10.446,12.377-14.721,11.761-10.357,30.1-14.444,49.063-10.928,17.071,3.165,32.566,11.329,47.548,19.225,9.272,4.887,14.447,13.518,19.452,21.864,3.67,6.121,7.466,12.45,12.895,17.47,14.442,13.352,30.283,21.89,45.809,24.692a101.189,101.189,0,0,0,14.085,1.175c9.321.345,18.958.7,27.126,6.076,15.447,10.164,26.263,22.538,32.149,36.781,5.375,13,7.726,27.123,10,40.779.522,3.142,1.045,6.282,1.6,9.409,2.795,15.674,7.067,33.56,17.546,47.375,10.227,13.484,25.465,22.131,39.021,28.81,46.385,22.86,94.986,40.359,136.172,13.854,3.772-2.428,7.572-5.049,11.247-7.582,13.014-8.977,26.472-18.259,42.115-21.437,17.231-3.5,35.125.867,50.912,4.719,30.934,7.546,66,16.1,94.362,35.269,6.749,4.561,13.22,9.781,19.476,14.83,11.015,8.887,22.4,18.078,35.5,23.755,7.73,3.35,16.085,5.482,24.164,7.543,8.162,2.082,16.6,4.235,24.469,7.651a161.2,161.2,0,0,1,17.657,9.48,158.233,158.233,0,0,0,17.657,9.466,79,79,0,0,0,42.787,5.44c19.141-2.967,30.6-14.726,43.878-28.341q2.093-2.145,4.25-4.341c2.369-2.4,4.73-4.869,7.106-7.353,14.47-15.142,29.434-30.8,49.825-34.261,8.064-1.369,16.315-.613,24.293.116a132.336,132.336,0,0,0,17.243.821c27.339-1.128,50.7-19.081,74.194-38.979,7.71-6.527,14.726-13.118,15.88-21.952,1.086-8.307-3.447-16.239-8.506-23.572-2.635-3.818-5.447-7.693-8.167-11.438-12.615-17.377-25.661-35.345-27.944-56.676-2.582-24.109-23.346-36.352-41.148-44.324-8.99-4.026-19.117-5.057-28.912-6.054-2.331-.237-4.66-.475-6.973-.75-11.067-1.316-24.964-4.044-34.256-13.525-14.963-15.274-10.535-39.743-7.933-49.554,1.634-6.167,3.8-12.294,5.886-18.22,3.549-10.054,7.218-20.452,8.313-31.152,2.236-21.868-6.219-43.135-14.4-63.7-2.357-5.93-4.8-12.063-6.933-18.1-1.112-3.141-2.356-6.261-3.562-9.279-4.37-10.953-8.5-21.3-7.215-33.542.331-3.155.833-6.343,1.321-9.424,1.026-6.506,2.085-13.234,1.545-19.831-1.134-13.862-8.969-26.041-17.265-37.138l1.441-1.078c8.459,11.312,16.448,23.753,17.618,38.07.558,6.812-.519,13.648-1.561,20.258-.482,3.061-.981,6.225-1.308,9.332-1.239,11.8,2.809,21.948,7.1,32.687,1.21,3.034,2.464,6.171,3.587,9.344,2.126,6.009,4.557,12.125,6.91,18.039,8.255,20.767,16.792,42.242,14.51,64.549-1.117,10.915-4.823,21.415-8.405,31.569-2.079,5.892-4.229,11.985-5.844,18.082-2.521,9.513-6.838,33.218,7.482,47.833,8.9,9.078,22.4,11.715,33.18,13,2.3.274,4.622.509,6.944.746,9.937,1.012,20.211,2.057,29.464,6.2,18.242,8.169,39.525,20.755,42.2,45.775,2.233,20.855,15.133,38.625,27.611,55.811,2.726,3.756,5.547,7.639,8.191,11.473,5.266,7.629,9.974,15.918,8.812,24.829-1.239,9.471-8.513,16.328-16.5,23.093-23.749,20.107-47.376,38.252-75.284,39.4a133.685,133.685,0,0,1-17.481-.825c-7.867-.721-16-1.469-23.828-.136-19.8,3.364-34.558,18.8-48.826,33.73-2.382,2.492-4.751,4.97-7.126,7.376q-2.16,2.187-4.243,4.333c-13.5,13.846-25.154,25.8-44.891,28.863a80.821,80.821,0,0,1-43.774-5.566,159.9,159.9,0,0,1-17.86-9.568,160.224,160.224,0,0,0-17.458-9.38c-7.738-3.358-16.1-5.493-24.195-7.557-8.149-2.079-16.576-4.229-24.438-7.636-13.317-5.775-24.8-15.042-35.909-24.005-6.229-5.025-12.668-10.222-19.354-14.74-28.1-18.987-61.489-27.134-93.781-35.012-15.608-3.807-33.3-8.122-50.125-4.7-15.283,3.1-28.589,12.279-41.454,21.153-3.686,2.542-7.5,5.17-11.294,7.615-41.939,26.988-91.081,9.34-137.941-13.753-13.743-6.773-29.2-15.555-39.659-29.337-10.707-14.12-15.05-32.263-17.884-48.147-.559-3.133-1.083-6.281-1.606-9.43-2.256-13.556-4.589-27.575-9.884-40.387-5.746-13.9-16.337-26-31.478-35.964-7.745-5.1-16.71-5.429-26.2-5.779a102.69,102.69,0,0,1-14.34-1.2c-15.863-2.863-32.016-11.556-46.711-25.142-5.619-5.194-9.482-11.636-13.219-17.867-5.1-8.508-9.917-16.544-18.746-21.2-14.863-7.834-30.233-15.933-47.036-19.049-18.415-3.411-36.2.514-47.545,10.51-4.7,4.14-8.464,9.366-12.1,14.42a124.834,124.834,0,0,1-8.185,10.553c-17.366,19.357-46.926,24.115-65.9,10.605-11.267-8.023-17.589-20.76-23.7-33.079-1.723-3.475-3.508-7.067-5.364-10.472-7.138-13.086-16.47-25.135-25.493-36.786-9.568-12.355-19.465-25.129-26.814-39.217-3.112-5.962-5.8-12.234-8.407-18.3-2.733-6.366-5.559-12.95-8.864-19.149-1.132-2.125-2.186-4.286-3.2-6.373-4.9-10.047-9.129-18.724-19.863-20.654-16.8-3.021-32.355,3.933-48.819,11.293-10.917,4.881-22.206,9.928-33.917,11.811-16.963,2.726-34.033-1.292-50.539-5.176-8.234-1.938-16.749-3.941-25.146-5.085-27.517-3.751-55.238,1.377-82.043,6.335-22.185,4.1-45.124,8.343-65.991,17.9-16.764,7.679-26.813,17.511-29.863,29.224-2.758,10.591.742,23.288,9.139,33.137,6.664,7.817,16.116,14.184,29.747,20.035a175.26,175.26,0,0,0,83.883,13.53c6.79-.584,13.732-1.581,20.442-2.544,17-2.441,34.569-4.964,51.514-1.08,25.839,5.921,45.21,25.892,57.529,40.4,3.336,3.929,7.07,7.528,10.68,11.008,3.4,3.282,6.924,6.677,10.068,10.312,4.967,5.739,8.318,12.906,11.557,19.837,2.636,5.631,5.357,11.456,8.914,16.411,10.836,15.1,28.132,25.971,47.452,29.825,13.541,2.7,24.457-.134,36.013-3.133a151.957,151.957,0,0,1,19.022-4.055,35.107,35.107,0,0,1,26.129,7.4c5.154,4.174,8.94,9.71,12.6,15.061a108.524,108.524,0,0,0,7.27,9.823c7.85,9.067,19.207,16.07,35.738,22.038,23.49,8.477,48.7,12.4,73.083,16.191,6.188.962,12.374,1.924,18.537,2.957,30.214,5.067,61.864,12.21,88.624,30.017,13.778,9.167,28.288,20.619,31.464,36.064,2.7,13.111,1.717,25.492.681,38.6-.284,3.574-.568,7.171-.774,10.806-.952,16.733,1.856,29.12,8.594,37.866,12.025,15.62,34.752,17.178,47.206,16.725,5.813-.213,11.746-.8,17.478-1.369,11.646-1.156,23.687-2.349,35.453-.487,19.378,3.062,35.61,13.447,48.245,30.866,3.231,4.453,5.339,9.8,7.376,14.971,3.235,8.213,6.29,15.972,13.433,20.041,7.866,4.48,17.379,2.122,22.347.318a103.584,103.584,0,0,0,12.185-5.674c3.005-1.563,6.117-3.18,9.3-4.541,18.944-8.106,40-7.229,60.368-6.38,11.879.5,24.164,1.008,35.956-.252,12.741-1.361,25.45-4.86,37.74-8.244,17.12-4.716,34.828-9.6,52.837-8.725,22.665,1.092,44.583,11.739,60.131,29.21,1.589,1.786,3.007,3.473,4.352,5.076,4.754,5.656,8.506,10.123,15.763,14.159,14.012,7.785,25.394,15.227,34.794,22.754,10.8,8.644,18.555,18.1,23.062,28.111l.133.293c4.989,11.084,7.054,15.67,18.479,21.958,7.823,4.3,16.63,6.8,25.15,9.215,4.685,1.329,9.531,2.7,14.189,4.366,10.383,3.707,20.247,9,29.787,14.117,3.839,2.06,7.81,4.192,11.751,6.185,33.774,17.077,68.347,27.4,104.951,38.321q8.269,2.469,16.594,4.978c22.124,6.7,42.332,18.8,61.873,30.492,8.075,4.831,16.423,9.827,24.786,14.37,36.2,19.661,66.525,25.535,92.719,17.958,11.483-3.322,22.161-9.384,32.491-15.247,10.716-6.083,21.8-12.371,33.87-15.684,11.653-3.2,23.92-3.53,35.781-3.852a221.934,221.934,0,0,0,24.373-1.56,111.982,111.982,0,0,0,51.052-21.246c5.716-4.244,13.324-5.551,20.87-3.6a27.762,27.762,0,0,1,18.316,15.1c5.022,11.116,1.5,23.424-1.906,35.329-.359,1.258-.717,2.508-1.062,3.746A173.055,173.055,0,0,0,1882.4,922.4c.072,2.273.188,4.56.3,6.849.527,10.369,1.07,21.089-2.419,31-3.364,9.553-10.122,17.32-16.659,24.829-5.025,5.777-10.223,11.75-13.829,18.486-16.046,29.989,6.575,63.328,17.045,76.271a311.443,311.443,0,0,0,47.808,47.483l2.463,1.955c10.635,8.425,21.631,17.136,25.715,29.984,2.435,7.665,1.981,15.806,1.542,23.678-.342,6.126-.693,12.459.327,18.49,2.183,12.924,10.756,25.157,24.137,34.444,12.01,8.34,26.03,13.321,39.587,18.138Z" transform="translate(13.751 1.136)" fill="#fff"/>
    <path d="M1894.671,1235.67c-20.7-.374-34.568-22.459-38.687-42.818-1.25-6.18-2.044-12.6-2.812-18.812-1.714-13.868-3.487-28.209-10.475-40.3-9.568-16.563-27.153-26.287-44.159-35.687-3.375-1.866-6.736-3.725-10.021-5.627-18.7-10.827-40.86-28.915-40.215-53.608.332-12.726,6.877-24.086,13.2-35.071,1.181-2.049,2.356-4.089,3.487-6.128,16.8-30.316,24.808-64.586,32.557-97.727,5.765-24.663,12.3-52.616,5.57-78.947-6.26-24.505-29.476-48.992-56.067-45.805-14.116,1.687-26.147,10.458-37.78,18.941-3.257,2.374-6.625,4.83-9.981,7.086-42.665,28.69-96.377,33.088-143.763,36.968-5.583.458-11.879.6-15.8-3.587-7.3-7.785,1.67-19.83,5.868-24.646a464.577,464.577,0,0,0,61.656-90.391c4.458-8.554,8.926-19.456,3.872-27.92-5.552-9.3-18.84-9.669-29.8-8.951-11.018.724-22.565,2.234-34.789,3.833-23.547,3.079-47.894,6.267-69.38,3.688-7.614-.912-15-3.411-22.152-5.828-14.527-4.911-28.248-9.553-43.6-1.843-15.7,7.885-21.92,24.585-28.508,42.267-5.492,14.737-11.17,29.974-22.845,39.959-10.72,9.167-26.64,13.41-43.69,11.638-15.566-1.615-30.174-7.568-43.8-13.526-31.12-13.6-57.509-27.646-80.674-42.923-17.561-11.582-32.376-25.553-46.7-39.064-6.968-6.571-14.176-13.365-21.685-19.89-31.728-27.559-75.19-65.356-126.91-64.583-15.921.221-31.789,3.905-47.132,7.47-6.817,1.584-13.865,3.22-20.842,4.538-29.587,5.586-60.117,5.874-89.642,6.152-15.726.148-33.551.317-49.211-6.265-13.2-5.547-23.918-15.44-34.288-25.01-4.592-4.237-9.341-8.619-14.235-12.557-16.458-13.242-44.167-20.582-63.081-16.708-16.976,3.475-32.462-9.3-39.664-22.648-6.187-11.461-8.541-24.534-10.818-37.177-.544-3.025-1.088-6.047-1.682-9.042-2.738-13.806-7.51-31.014-20.219-41.629-9.178-7.665-20.662-10.616-32.822-13.741-9.738-2.5-19.808-5.09-28.456-10.339-6.951-4.218-12.777-10.039-18.414-15.667a149.81,149.81,0,0,0-11.922-11.076c-22.409-17.95-46.153-17.867-71.315-17.781-9.4.03-19.141.065-28.979-.869-13.833-1.315-32.964-13.249-38.3-28.274-2.237-6.3-2.923-15.769,6.518-25.052,5.93-5.832,15.111-9.326,23.988-12.7a123.773,123.773,0,0,0,13.155-5.564c3.691-1.941,8.329-5.433,13.239-9.129,8.469-6.379,17.229-12.972,23.982-14.037,5.339-.84,10.919-2.016,16.317-3.153,18.381-3.87,37.389-7.871,54.793-1.06,17.888,7,33.486,18.864,48.571,30.334q3.034,2.307,6.056,4.588c13.81,10.393,29.3,15.327,45.7,20.553,10.28,3.275,20.91,6.661,31.083,11.519,20.089,9.593,27.635,33.32,30.426,51.536.844,5.5,1.451,11.162,2.039,16.636,1.574,14.656,3.2,29.811,9.514,43.189,8.166,17.307,24.69,32.029,46.526,41.457,19.7,8.508,41.222,12.131,62.03,15.636,32.866,5.534,70.115,11.81,104.628,2.532,7.425-2,14.8-4.739,21.93-7.392,10.76-4,21.884-8.141,33.456-9.82,22.849-3.318,43.808,3.924,64.079,10.929,10.126,3.5,20.594,7.115,31.186,9.383,15.082,3.227,27.877,11.917,40.251,20.322,12.988,8.821,26.416,17.941,42.432,20.641,28.036,4.727,50.048,10.85,73.134,26.743,27.2,18.723,50.834,26.691,70.23,23.662,22.543-3.509,38.389-22.278,53.716-40.428,15.607-18.485,31.746-37.6,55.106-41.026,8.369-1.229,16.89-.2,25.124.789a153.365,153.365,0,0,0,15.532,1.336c24.932.48,48.348-11.472,69.042-21.974,19.053-9.669,38.2-20.68,44.669-39.423,7.668-22.206-5.648-47.688-18.107-67.409-5.341-8.453-10.979-16.843-16.432-24.956-8.732-12.993-17.761-26.428-25.849-40.536-16.637-29.02-35.617-45.361-56.413-48.567-3.8-.586-7.882-.79-11.827-.991-10.313-.519-20.978-1.056-28.261-8.342-5.785-5.789-8.193-15.175-6.6-25.751a102.815,102.815,0,0,1,4.481-16.738c.974-2.967,1.984-6.034,2.816-9.078,8.581-31.478-.531-66.189-7.853-94.08-10.784-41.08-21.936-83.56-39.727-122.944l1.642-.741c17.851,39.522,29.022,82.075,39.826,123.228,7.377,28.1,16.556,63.067,7.849,95.01-.844,3.09-1.86,6.18-2.845,9.168a101.631,101.631,0,0,0-4.41,16.441c-1.5,10.006.721,18.829,6.1,24.21,6.794,6.8,16.647,7.293,27.078,7.819a119.084,119.084,0,0,1,12.012,1.009c21.365,3.293,40.778,19.931,57.7,49.45,8.055,14.053,17.067,27.46,25.783,40.428,5.46,8.123,11.1,16.524,16.458,25,12.675,20.06,26.206,46.028,18.288,68.956-6.693,19.38-26.176,30.6-45.556,40.441-20.884,10.6-44.558,22.646-69.889,22.171a154.969,154.969,0,0,1-15.715-1.35c-8.122-.977-16.513-1.988-24.649-.795-22.683,3.326-38.6,22.177-53.992,40.406-15.539,18.4-31.606,37.433-54.813,41.046-19.873,3.1-43.94-4.967-71.528-23.958-22.913-15.774-43.9-21.643-72.413-26.451-16.405-2.766-30-12-43.143-20.926-12.232-8.307-24.88-16.9-39.617-20.052-10.7-2.29-21.221-5.926-31.4-9.441-20.067-6.934-40.823-14.1-63.232-10.85-11.383,1.653-22.417,5.757-33.088,9.728-7.171,2.667-14.585,5.425-22.092,7.442-34.891,9.377-72.346,3.072-105.393-2.494-20.914-3.522-42.541-7.164-62.445-15.758-22.239-9.6-39.087-24.639-47.441-42.342-6.444-13.652-8.087-28.96-9.676-43.765-.585-5.456-1.19-11.1-2.028-16.556-2.727-17.787-10.043-40.931-29.422-50.184-10.062-4.8-20.632-8.173-30.855-11.429-15.82-5.042-32.177-10.252-46.231-20.83q-3.027-2.278-6.063-4.593c-14.987-11.4-30.485-23.179-48.138-30.089-16.905-6.621-35.644-2.672-53.768,1.145-5.418,1.141-11.022,2.321-16.407,3.17-6.308.994-15.271,7.741-23.179,13.695-4.97,3.742-9.664,7.277-13.483,9.286a124.786,124.786,0,0,1-13.353,5.652c-8.7,3.311-17.705,6.737-23.367,12.305-6.938,6.822-9.041,14.833-6.083,23.166,5.108,14.388,23.479,25.821,36.773,27.085,9.751.925,19.435.886,28.8.86,25.482-.087,49.541-.17,72.446,18.177a150.945,150.945,0,0,1,12.07,11.207c5.561,5.554,11.311,11.3,18.075,15.4,8.421,5.111,18.36,7.665,27.971,10.134,11.818,3.037,24.038,6.177,33.526,14.1,13.143,10.976,18.036,28.564,20.83,42.66.6,3.007,1.143,6.038,1.69,9.073,2.251,12.5,4.579,25.434,10.63,36.642,6.9,12.777,21.641,25.031,37.721,21.739,19.375-3.967,47.743,3.53,64.569,17.07,4.942,3.976,9.714,8.379,14.328,12.637,10.255,9.463,20.859,19.249,33.764,24.672,15.316,6.437,32.941,6.271,48.495,6.126,29.448-.278,59.9-.565,89.326-6.121,6.94-1.31,13.969-2.943,20.768-4.523,15.436-3.584,31.4-7.292,47.516-7.515.491-.008.991-.011,1.483-.011,51.763,0,94.985,37.546,126.632,65.036,7.537,6.546,14.757,13.356,21.738,19.938,14.93,14.078,29.029,27.374,46.46,38.87,23.079,15.22,49.379,29.213,80.4,42.778,13.5,5.9,27.957,11.794,43.268,13.386,16.562,1.711,31.987-2.37,42.332-11.217,11.322-9.682,16.917-24.7,22.329-39.22,6.419-17.229,13.06-35.045,29.387-43.247,16.022-8.048,30.744-3.07,44.984,1.746,7.06,2.386,14.362,4.856,21.789,5.746,21.262,2.551,45.491-.62,68.931-3.685,12.254-1.6,23.829-3.117,34.905-3.846,11.475-.754,25.412-.314,31.467,9.824,5.509,9.228.85,20.706-3.824,29.675a466.449,466.449,0,0,1-61.9,90.741c-3.876,4.448-12.208,15.518-5.914,22.233,3.372,3.6,9.164,3.444,14.339,3.025,47.168-3.865,100.63-8.242,142.906-36.669,3.328-2.238,6.682-4.683,9.925-7.047,11.822-8.617,24.044-17.529,38.627-19.275,27.941-3.335,51.434,21.35,58.024,47.147,6.841,26.758.252,54.94-5.559,79.806-7.777,33.258-15.819,67.651-32.737,98.187-1.135,2.049-2.315,4.1-3.5,6.153-6.217,10.792-12.645,21.951-12.965,34.22-.623,23.811,21.037,41.424,39.318,52.005,3.274,1.9,6.625,3.749,9.988,5.608,17.222,9.523,35.028,19.368,44.846,36.363,7.172,12.413,8.967,26.938,10.7,40.984.763,6.177,1.552,12.565,2.79,18.676,3.981,19.679,17.244,41.02,36.954,41.377Z" transform="translate(143.789 2.548)" fill="#fff"/>
    <path d="M1821.772,1210.831c-23.443-9.83-34.311-36.158-42.66-60.065-8.646-24.766-18.919-49.784-40.826-59.8-6.959-3.184-14.7-4.571-22.193-5.912a117.354,117.354,0,0,1-18.406-4.333c-10.814-3.816-24-13.372-25.579-27.743-1.375-12.506,6.179-23.348,13.486-33.832,1.091-1.567,2.177-3.124,3.22-4.673,17.2-25.513,25.3-56.158,32.443-83.2,8.516-32.211,19.114-72.3,12.5-110.387-5.816-33.457-30-71.978-69.366-77.5-29.852-4.183-57.558,11.809-84.355,27.278-5.608,3.236-11.406,6.584-17.08,9.654-11.789,6.379-26.976,9.734-34.238.021-9.019-12.064,4.9-28.078,9.379-32.7,8.9-9.175,17.416-19.921,13.108-30.055-2.936-6.913-2.564-12.074-2.169-17.538a47.35,47.35,0,0,0-.454-13.633c-2.738-13.808-10.493-24.966-20.746-29.845-13.285-6.325-28.633-2.334-43.473,1.523l-3.181.822a291.753,291.753,0,0,1-121.5,4.8c-2.809-.489-5.648-1.013-8.507-1.542-21.986-4.063-44.721-8.268-63.53,2.3-16.832,9.462-25.468,28.092-33.82,46.107q-1.2,2.593-2.4,5.154c-12.594,26.788-27.152,41.237-44.5,44.173-19.332,3.267-37.269-8.422-53.981-20.676l-109.476-80.269c-12.881-9.444-23.334-19.289-33.443-28.811-17.513-16.491-34.054-32.069-59.979-42.062a204.927,204.927,0,0,0-128.665-5.94c-2.749.778-5.512,1.615-8.285,2.456-14.352,4.351-29.187,8.851-43.835,5.511a86.312,86.312,0,0,1-12.232-4.1c-7.165-2.813-13.933-5.475-21.562-4.621a88.664,88.664,0,0,0-14.38,3.239c-7.1,2.023-14.438,4.117-22.751,3.52-13.825-.99-25.562-7.359-31.393-17.037-5.46-9.06-5.917-17.455-1.321-24.275,7.867-11.672,29.549-16.906,44.857-14.474,10.521,1.671,20.659,5.449,30.463,9.1,3.141,1.171,6.281,2.342,9.434,3.447,11.322,3.965,26.152,8.188,40.416,5.642,13.2-2.357,22.752-10.211,31.987-17.8,6.7-5.514,13.637-11.214,21.969-14.883,15.373-6.768,38.51-3.666,56.95-.2,37.371,7.014,71.343,24.719,108.71,45.42l92.657,51.326c27.721,15.356,57.15,29.614,85.364,20.781,19.151-5.993,33.449-21.713,47.277-36.915,14.88-16.36,30.266-33.277,51.729-38.036,10.493-2.326,21.488-1.422,32.12-.547,12.331,1.013,25.072,2.06,36.689-2.086,10.212-3.646,18.695-11.026,26.9-18.162,7.928-6.9,16.124-14.026,25.99-17.97,9.456-3.779,20.07-4.5,30.332-5.2,14.477-.983,28.153-1.912,38.571-10.755,10.389-8.816,15.007-25.173,11.762-41.67-2.99-15.194-11.189-28.626-19.117-41.616l-57.036-93.45c-18.874-30.925-36.813-57.527-65.248-69.856-1.374-.6-2.793-1.174-4.222-1.759-8.52-3.483-17.333-7.083-20.893-15.422-2.976-6.974-1.014-14.588.883-21.949l.482-1.877A136.906,136.906,0,0,0,1309.2,114.275C1297.5,94.9,1291.873,73.5,1286.428,52.8c-4.175-15.877-8.494-32.293-15.534-47.926l1.642-.738c7.1,15.769,11.438,32.258,15.634,48.205,5.411,20.573,11.007,41.846,22.574,61a138.707,138.707,0,0,1,15.644,105.023l-.482,1.885c-1.822,7.071-3.7,14.383-.97,20.792,3.27,7.659,11.733,11.119,19.917,14.463,1.441.59,2.871,1.174,4.26,1.776,28.918,12.538,47.03,39.376,66.067,70.569l57.036,93.45c7.637,12.513,16.295,26.7,19.345,42.2,2.68,13.631.842,32.186-12.363,43.392-10.87,9.225-25.482,10.218-39.613,11.178-10.125.688-20.593,1.4-29.786,5.073-9.582,3.829-17.662,10.858-25.476,17.655-8.331,7.247-16.944,14.739-27.475,18.5-11.981,4.279-24.923,3.216-37.443,2.186-10.494-.862-21.354-1.758-31.581.511-20.9,4.636-36.1,21.338-50.786,37.49-13.99,15.38-28.457,31.284-48.071,37.42-28.907,9.044-58.714-5.378-86.775-20.922l-92.657-51.326c-37.228-20.623-71.064-38.262-108.169-45.228-18.184-3.412-40.97-6.487-55.894.083-8.1,3.569-14.941,9.19-21.549,14.625-9.415,7.741-19.148,15.745-32.815,18.186-14.675,2.626-29.8-1.678-41.327-5.716-3.166-1.109-6.318-2.283-9.47-3.458-9.719-3.623-19.771-7.369-30.114-9.013-14.772-2.344-35.6,2.6-43.084,13.7-4.236,6.286-3.775,13.8,1.369,22.339,5.53,9.178,16.739,15.224,29.981,16.173,7.989.568,15.177-1.476,22.128-3.458a90.012,90.012,0,0,1,14.674-3.3c8.081-.891,15.37,1.967,22.42,4.734a84.911,84.911,0,0,0,11.974,4.027c14.181,3.234,28.785-1.2,42.913-5.479,2.785-.844,5.559-1.685,8.318-2.464a206.716,206.716,0,0,1,129.8,5.991c26.256,10.119,42.92,25.814,60.566,42.432,10.071,9.484,20.485,19.29,33.274,28.669l109.476,80.269c16.4,12.028,33.968,23.505,52.617,20.352,16.722-2.829,30.844-16.948,43.171-43.164q1.2-2.55,2.4-5.144c8.471-18.274,17.232-37.171,34.57-46.919,19.38-10.89,42.438-6.627,64.74-2.5,2.851.527,5.684,1.052,8.489,1.538a289.986,289.986,0,0,0,120.74-4.768l3.174-.822c15.152-3.937,30.822-8.011,44.7-1.406,10.766,5.125,18.893,16.758,21.738,31.122a48.8,48.8,0,0,1,.486,14.113c-.378,5.241-.736,10.191,2.031,16.7,4.718,11.1-4.163,22.412-13.47,32.011-8.717,8.99-15.719,21.688-9.23,30.367,6.578,8.8,20.814,5.494,31.938-.526,5.653-3.058,11.44-6.4,17.037-9.629,27.066-15.62,55.07-31.772,85.5-27.5,40.257,5.645,64.968,44.9,70.889,78.973,6.686,38.475-3.966,78.775-12.527,111.157-7.183,27.174-15.326,57.977-32.69,83.74-1.049,1.557-2.139,3.122-3.238,4.7-7.115,10.213-14.471,20.773-13.171,32.607,1.487,13.541,14.067,22.6,24.387,26.241a116.055,116.055,0,0,0,18.123,4.26c7.6,1.361,15.461,2.769,22.625,6.045,22.55,10.313,33,35.715,41.777,60.847,8.221,23.542,18.9,49.454,41.657,59Z" transform="translate(254.591 1.592)" fill="#fff"/>
    <path d="M1690.942,1198.491c-14.687-4.756-27.4-16.753-37.8-35.65-3.875-7.049-7.209-14.506-10.434-21.718-3.81-8.522-7.748-17.334-12.585-25.464a123.333,123.333,0,0,0-67.789-53.8l-1.411-.444c-6.255-1.96-12.723-3.987-16.421-9.394-4.4-6.441-2.724-14.808.313-20.489,2.55-4.768,6.257-8.785,9.842-12.668,1.065-1.153,2.128-2.3,3.159-3.473,12.938-14.65,21.461-32.606,29.7-49.968,8.653-18.233,17.6-37.086,21.769-57.173,7.01-33.8.3-71.985-18.89-107.533-12.047-22.308-27.964-38.978-44.819-56.628-7.74-8.106-15.742-16.487-23.46-25.561-10.209-12-28.227-11.1-35.5-10.151a165.948,165.948,0,0,0-17.7,3.639c-6.808,1.66-13.847,3.376-20.968,4.01-12.28,1.092-28.173-1.922-35.92-13.664-5.912-8.959-6.175-19.973-6.43-30.623-.41-17.089-.763-31.847-23.955-34.333-9.9-1.062-20.058.454-29.869,1.921l-2.613.389a648.92,648.92,0,0,1-97.292,6.917c-2.241-.017-4.539.043-6.874.1-6.212.144-12.621.292-18.508-.716-4.236-.724-7.14-2.411-10.215-4.2-1.307-.76-2.661-1.546-4.2-2.32-8-4.01-16.792-6.649-25.293-9.2-5.343-1.6-10.868-3.263-16.156-5.248-13.774-5.172-31.828-10.759-49.425-8.059l-.889.138c-5.864.918-13.165,2.056-17.2-2.8-3.824-4.589-1.845-11.559,1.611-16.092,6.1-8.007,16.893-13.1,30.392-14.357a157.635,157.635,0,0,1,18.81-.233c4.949.138,10.072.28,15.075.025,22.275-1.132,43.98-10.505,61.118-26.4,10.326-9.575,24.963-8.873,39.115-8.2,6.5.311,12.637.6,18.4-.029,19.055-2.086,36.8-11.973,52.468-20.7,6.982-3.889,15.672-8.727,20.049-16.544,5.826-10.4,3.042-23.45-.306-35.923-10.114-37.641-21.575-80.3-50.836-110.333-4.931-5.061-10.4-9.762-15.684-14.31a227.731,227.731,0,0,1-16.833-15.493c-8.533-8.985-18.677-23.144-18.544-39.565a84.839,84.839,0,0,1,1.033-10.8c1.027-7.417,2-14.422-1.008-20.734-3.721-7.809-12.271-11.62-20.538-15.3-1.872-.836-3.733-1.665-5.526-2.533a79.48,79.48,0,0,1-34.011-32.041c-5.789-10.177-5.511-20.392-5.218-31.208.075-2.787.152-5.67.126-8.583-.252-26.926-4.155-47.949-12.284-66.163a240.59,240.59,0,0,0-11.855-22.19c-7.895-13.617-16.06-27.7-18.3-43.5a125.922,125.922,0,0,1-.827-17.545c0-8.372-.005-17.028-2.562-25.028l1.715-.55c2.641,8.268,2.644,17.067,2.647,25.576a124.914,124.914,0,0,0,.808,17.293c2.187,15.453,10.263,29.38,18.072,42.848a242.561,242.561,0,0,1,11.941,22.359c8.234,18.447,12.187,39.7,12.439,66.88.029,2.946-.05,5.844-.126,8.649-.288,10.555-.559,20.528,4.982,30.268a77.662,77.662,0,0,0,33.23,31.31c1.777.861,3.621,1.682,5.476,2.51,8.563,3.818,17.42,7.766,21.427,16.174,3.242,6.8,2.188,14.4,1.166,21.756a83.3,83.3,0,0,0-1.013,10.571c-.129,15.821,9.743,29.566,18.047,38.31,5.2,5.478,11.049,10.507,16.7,15.37,5.316,4.572,10.813,9.3,15.8,14.416,29.586,30.367,41.112,73.271,51.281,111.122,3.448,12.831,6.3,26.277.141,37.27-4.627,8.262-13.563,13.239-20.745,17.237-15.81,8.805-33.73,18.785-53.145,20.913-5.9.645-12.4.338-18.678.037-13.785-.656-28.035-1.337-37.808,7.726-17.446,16.176-39.553,25.719-62.249,26.873-5.074.259-10.229.116-15.217-.024a155.915,155.915,0,0,0-18.593.227c-12.993,1.2-23.338,6.052-29.128,13.653-3.036,3.984-4.849,10.017-1.658,13.85,3.386,4.066,9.844,3.059,15.543,2.171l.89-.139c18-2.771,36.354,2.9,50.333,8.152,5.23,1.964,10.727,3.614,16.042,5.209,8.574,2.575,17.441,5.237,25.58,9.318,1.593.8,2.972,1.6,4.3,2.371,3.059,1.777,5.7,3.311,9.613,3.983,5.72.98,12.043.831,18.163.689,2.352-.055,4.664-.107,6.924-.1a646.642,646.642,0,0,0,97.02-6.9l2.611-.389c9.925-1.484,20.187-3.019,30.33-1.93,24.759,2.652,25.148,18.889,25.561,36.079.25,10.4.507,21.148,6.131,29.675,7.312,11.083,22.5,13.909,34.261,12.861,6.985-.621,13.957-2.321,20.7-3.966a167.59,167.59,0,0,1,17.9-3.675c7.568-.98,26.328-1.9,37.106,10.771,7.683,9.034,15.669,17.4,23.392,25.484,16.938,17.738,32.938,34.5,45.1,57.016,19.393,35.92,26.166,74.543,19.067,108.752-4.208,20.3-13.2,39.252-21.9,57.581-8.3,17.474-16.875,35.543-29.979,50.386-1.044,1.179-2.114,2.339-3.187,3.5-3.509,3.8-7.138,7.731-9.576,12.3-2.664,4.978-4.368,12.842-.414,18.626,3.343,4.892,9.507,6.823,15.471,8.692l1.416.447a125.161,125.161,0,0,1,68.793,54.6c4.891,8.22,8.851,17.081,12.681,25.65,3.209,7.18,6.528,14.6,10.367,21.585,10.162,18.485,22.534,30.193,36.773,34.805Z" transform="translate(423.122 0.001)" fill="#fff"/>
    <path d="M864.361,248.188c-7.69,0-15.474-2.039-23.079-4.031-1.438-.377-2.871-.753-4.3-1.112a202.1,202.1,0,0,0-81.214-3.494c-7.632,1.24-18.082,2.939-24.178-3.671-7.147-7.745-1.858-20.191-.066-23.822,10.522-21.318,30.114-34.379,44.695-41.582,15.189-7.5,37.44-16.811,57.194-18.576,14.968-1.334,33.734,9.553,45.246,19.287C891.356,181.923,899,196.82,899.11,211.039c.127,16.235-10.454,31.612-24.61,35.768a35.771,35.771,0,0,1-10.139,1.382m-76.557-13a203.331,203.331,0,0,1,49.623,6.116c1.43.361,2.867.738,4.312,1.116,10.735,2.813,21.834,5.723,32.254,2.663,13.413-3.937,23.436-18.566,23.317-34.026-.105-13.7-7.511-28.089-19.812-38.49-12.133-10.262-30.435-20.068-43.92-18.869-20.506,1.831-44.237,12.313-56.557,18.4-14.334,7.079-33.58,19.9-43.879,40.765-1.664,3.369-6.595,14.9-.226,21.806,5.025,5.447,13.544,4.579,22.567,3.113a201.675,201.675,0,0,1,32.321-2.59" transform="translate(279.755 58.334)" fill="#fff"/>
    <path d="M874.716,289.59q-1.825,0-3.634-.14c-6.507-.511-12.778-4.352-18.84-8.068-4.205-2.578-8.555-5.241-12.831-6.671a105.019,105.019,0,0,0-41.742-5.141c-7.971.627-15.888,2.726-23.546,4.758-7.09,1.88-14.424,3.826-21.854,4.628-15.18,1.632-34.238-3.462-40.206-18.525-4.844-12.228.73-25.763,6.336-37.492,9.855-20.614,20.09-40.211,36.851-53.408,13.231-10.417,29.477-15.935,45.189-21.268,12.108-4.111,24.629-8.364,35.708-14.831,2.406-1.406,4.8-2.95,7.118-4.442a111.977,111.977,0,0,1,12.675-7.4c9.1-4.291,16.841-5.229,23.007-2.787,12.308,4.871,15.366,13.554,18.6,22.745a70.057,70.057,0,0,0,5.9,13.52c8.5,14.045,21.817,33.78,36.972,48.031,1.149,1.081,2.233,2,3.232,2.846,4.07,3.446,7.009,5.936,7.5,13.461.443,6.755-1.674,14.657-6.12,22.848-12.711,23.414-42.653,47.333-70.322,47.333m-68.735-22.146a106.95,106.95,0,0,1,34,5.559c4.474,1.5,8.911,4.214,13.2,6.844,5.882,3.6,11.964,7.331,18.04,7.807,27.9,2.169,59.234-22.308,72.234-46.258,4.284-7.892,6.325-15.453,5.906-21.871-.443-6.762-2.86-8.811-6.868-12.205-1.024-.867-2.129-1.8-3.3-2.908-15.3-14.39-28.716-34.268-37.276-48.41a71.321,71.321,0,0,1-6.059-13.854c-3.234-9.175-6.023-17.1-17.567-21.67-5.687-2.249-12.945-1.329-21.58,2.741a110.678,110.678,0,0,0-12.467,7.284c-2.333,1.5-4.744,3.057-7.186,4.482-11.234,6.559-23.843,10.84-36.036,14.981-15.568,5.285-31.666,10.752-44.653,20.979-16.459,12.957-26.583,32.355-36.342,52.77-5.442,11.386-10.864,24.5-6.286,36.053,5.622,14.189,23.813,18.962,38.34,17.4,7.292-.788,14.559-2.715,21.584-4.578,7.735-2.052,15.734-4.174,23.867-4.812q4.236-.332,8.454-.332" transform="translate(272.935 45.149)" fill="#fff"/>
    <path d="M914.009,328.592a68.2,68.2,0,0,1-15.528-1.937c-10.216-2.506-19.807-7.212-29.086-11.767-2.537-1.246-5.075-2.49-7.623-3.693-11.036-5.2-24.121-10.411-37.656-9.617-9.656.568-19.048,4.206-28.129,7.723-10.7,4.145-21.778,8.44-33.385,7.749-11.548-.678-23.334-6.213-36.029-16.916-12.4-10.449-18.5-21-18.152-31.357.295-8.678,5.025-16.195,9.6-23.464,1.628-2.587,3.31-5.263,4.752-7.933a63.983,63.983,0,0,0-39.833-92.233c-2.454-.655-5.014-1.178-7.489-1.683-5.328-1.089-10.838-2.215-15.8-4.727-9.477-4.8-16.012-17.369-13.447-25.871,1.056-3.5,4.589-9.178,16.425-7.773,15.838,1.869,30.863,4.424,40.646,15.036a66.888,66.888,0,0,1,5.208,6.8c3.811,5.421,7.752,11.027,13.131,12.21,31.554,6.933,67.91,12.064,98.324-2.438,10.9-5.2,20.68-12.791,30.135-20.132,2.465-1.914,4.928-3.826,7.412-5.7,11.444-8.631,25.266-17.815,41-20.46,14.095-2.374,32.4,1.492,41.5,15.471,4.219,6.484,5.831,14.167,7.389,21.6.68,3.23,1.38,6.57,2.284,9.75,5.425,19.06,18.436,33.42,40.952,45.192a123.538,123.538,0,0,0,15.362,6.328c7.281,2.625,14.812,5.338,21.271,9.888,12.767,8.991,19.307,24.342,18.413,43.223-.766,16.122-8.4,19.239-22.275,24.9A351.161,351.161,0,0,0,954.7,303.938a88.98,88.98,0,0,0-11.411,10.119,87.175,87.175,0,0,1-10.985,9.768c-5.233,3.677-12.049,4.767-18.293,4.767M826.9,299.7c12.877,0,25.181,4.938,35.643,9.87,2.558,1.206,5.1,2.456,7.651,3.706,9.191,4.51,18.694,9.175,28.72,11.634,4.993,1.225,22.087,4.661,32.359-2.555a84.683,84.683,0,0,0,10.748-9.571,90.264,90.264,0,0,1,11.648-10.317,352.986,352.986,0,0,1,69.032-37.376c14.038-5.727,20.445-8.342,21.156-23.314.864-18.245-5.406-33.043-17.653-41.667-6.261-4.412-13.675-7.083-20.845-9.667a124.791,124.791,0,0,1-15.585-6.426c-22.982-12.016-36.281-26.727-41.849-46.3-.922-3.239-1.631-6.611-2.315-9.871-1.525-7.268-3.1-14.782-7.137-20.985-8.653-13.3-26.169-16.954-39.692-14.678-15.353,2.583-28.944,11.621-40.217,20.124-2.476,1.867-4.932,3.775-7.389,5.684-9.531,7.4-19.389,15.053-30.466,20.335-30.9,14.736-67.633,9.568-99.484,2.571-6.063-1.333-10.209-7.229-14.218-12.932a65.845,65.845,0,0,0-5.058-6.617c-9.366-10.159-24.045-12.641-39.534-14.469-7.8-.925-12.947,1.391-14.49,6.5-2.341,7.76,3.752,19.3,12.535,23.745,4.752,2.4,10.141,3.505,15.352,4.571,2.5.511,5.086,1.04,7.593,1.707a65.787,65.787,0,0,1,40.954,94.83c-1.471,2.722-3.171,5.422-4.816,8.034-4.445,7.067-9.044,14.375-9.319,22.568-.331,9.777,5.562,19.844,17.511,29.917,12.388,10.446,23.828,15.842,34.974,16.5,11.2.656,22.1-3.555,32.629-7.632,9.211-3.567,18.738-7.257,28.674-7.841.964-.057,1.927-.084,2.885-.084" transform="translate(248.119 34.495)" fill="#fff"/>
    <path d="M1661.094,1238.877c-9.406,0-18.283-.8-25.156-6-10.957-8.289-11.812-24.257-6.992-35.747,5-11.93,14.966-20.846,24.743-28.955a617.1,617.1,0,0,1,104.719-70.1c16.974-8.994,24.5-18.414,22.375-28-2.38-10.721-16.147-15.133-28.526-13.945-19.467,1.862-37.385,11.292-54.712,20.407-3.494,1.841-6.981,3.677-10.474,5.449-17.733,8.993-44.14,20.107-68.664,12.788-16.249-4.852-30.8-17.618-40.967-35.943-9.039-16.293-13.667-34.548-18.144-52.2l-19.274-75.98c-2.63-10.373-5.638-20.125-13.442-25.452-8.956-6.116-20.885-4.118-32.337-1.557-38.442,8.609-86.286,19.325-117.252,51.622-3.67,3.829-7.212,8.058-10.636,12.149-9.546,11.4-19.416,23.184-33.5,28.151-26.244,9.255-53.128-8.947-71.053-25.85-9.895-9.326-22.062-22.045-28.36-37.747-6.531-16.275-5.352-33.919,3.082-46.045,7.971-11.462,21.122-17.312,33.839-22.968,3.869-1.724,7.872-3.5,11.635-5.406a119,119,0,0,0,55.4-59.669c2.863-6.891,6.6-19.608-.532-27.34-6.271-6.789-17.316-5.845-27.294-4.023-5.832,1.064-11.57,2.269-17.12,3.432-21.98,4.611-42.742,8.965-65.722,4.138-18.078-3.8-23.955-22.351-30.176-42-5.267-16.631-10.716-33.831-24.168-41.507-7.67-4.379-16.688-5.825-25.407-7.226a133.48,133.48,0,0,1-15.706-3.174c-12.583-3.624-19.694-10.868-27.221-18.539a105.3,105.3,0,0,0-13.563-12.258c-11.282-8.138-32.119-15.47-44.588-15.691-.212,0-.422-.007-.631-.007-9.359,0-18.5,3.655-27,7.621a282.585,282.585,0,0,0-66.437,43.261c-2.991,2.614-5.95,5.3-8.915,8-12.646,11.5-25.723,23.386-41.868,29.483-19.761,7.463-40.419,2.364-56.677-13.986-13.214-13.289-15.541-29.257-18.006-46.162-.817-5.609-1.663-11.409-2.933-17.165-3.783-17.128-15.186-34.648-32.132-35.178-18.32-.537-30.407,18.115-38.9,34.463L721.71,703.1c-6.964,13.4-18.348,28.62-33.031,25.09-10.024-2.424-15.425-12.547-19.7-21.846-7.348-15.971-13.62-32.654-19.686-48.787-15.139-40.258-29.436-78.284-59.464-108-11.084-10.972-29.9-14.726-50.319-10.05-10.161,2.327-20.047,6.286-29.607,10.114-7.028,2.814-14.294,5.724-21.656,7.986-15.674,4.813-27.962,4.157-36.521-1.955-11.585-8.27-13.424-24.326-11.282-36.6,1.225-7.016,3.556-13.847,5.81-20.453a157.841,157.841,0,0,0,5.2-17.39c5.251-24.3-4.863-39.325-30.922-45.948-57.822-14.69-107.733-49.777-136.938-96.263-4.336-6.9-8.364-14.246-12.259-21.347-10.087-18.388-20.518-37.4-37.139-50.2-21.517-16.569-50.211-20.393-78.011-22.059-17.791-1.066-38.194-1.5-55.2,6.91-21.9,10.827-22.693,27.586-23.608,46.993-.584,12.369-1.935,25.049-3.242,37.31-1.25,11.738-2.543,23.874-3.169,35.77-1.293,24.526-4.621,52.686-19.51,75.6-2.756,4.242-6.657,9.408-12.406,11.739-8.75,3.542-18.656-.829-24.592-6.742C8.805,447.359,5.264,440.06,1.838,433l-1.1-2.269,1.618-.792,1.108,2.274c3.358,6.924,6.831,14.084,12.264,19.491,5.518,5.494,14.658,9.59,22.646,6.35,5.285-2.143,8.961-7.032,11.574-11.051,14.657-22.557,17.942-50.426,19.221-74.714.628-11.944,1.924-24.106,3.178-35.867,1.3-12.236,2.651-24.888,3.232-37.2.943-19.975,1.755-37.225,24.609-48.522,17.4-8.6,38.088-8.173,56.1-7.092,28.087,1.682,57.1,5.564,79,22.428,16.919,13.026,27.441,32.209,37.618,50.76,3.883,7.078,7.9,14.4,12.205,21.255,28.961,46.1,78.477,80.9,135.857,95.477,26.814,6.813,37.661,22.988,32.239,48.071a159.107,159.107,0,0,1-5.253,17.592c-2.231,6.541-4.541,13.3-5.741,20.182-2.047,11.729-.35,27.037,10.554,34.82,8.082,5.768,19.841,6.34,34.947,1.7,7.29-2.24,14.521-5.136,21.515-7.936,9.625-3.854,19.577-7.839,29.875-10.2,21.029-4.818,40.462-.882,51.987,10.526,30.309,29.995,44.674,68.2,59.884,108.647,6.055,16.1,12.316,32.755,19.636,48.669,4.1,8.913,9.247,18.612,18.49,20.846,13.548,3.275,24.343-11.336,31.01-24.17L750.8,643.2c8.735-16.817,21.261-36,40.553-35.434,17.913.562,29.9,18.781,33.834,36.588,1.284,5.82,2.135,11.653,2.957,17.3,2.42,16.6,4.7,32.283,17.5,45.152,15.734,15.825,35.7,20.769,54.766,13.572,15.824-5.975,28.773-17.748,41.294-29.133,2.972-2.7,5.94-5.4,8.94-8.021A284.266,284.266,0,0,1,1017.5,639.68c8.887-4.145,18.484-7.974,28.425-7.781,12.772.227,34.084,7.718,45.61,16.029a106.81,106.81,0,0,1,13.8,12.459c7.356,7.5,14.305,14.577,26.435,18.069a131.682,131.682,0,0,0,15.495,3.127c8.876,1.426,18.058,2.9,26.014,7.44,14.063,8.024,19.62,25.565,24.992,42.527,6.059,19.127,11.781,37.195,28.828,40.777,22.61,4.755,43.194.436,64.986-4.138,5.559-1.166,11.31-2.371,17.165-3.443,10.457-1.909,22.077-2.86,28.939,4.574,7.816,8.468,3.9,21.963.872,29.253a120.836,120.836,0,0,1-56.25,60.584c-3.8,1.923-7.825,3.713-11.717,5.442-12.49,5.558-25.407,11.3-33.093,22.351-8.09,11.636-9.2,28.627-2.888,44.347,6.168,15.378,18.163,27.91,27.923,37.109,17.565,16.559,43.823,34.415,69.222,25.463,13.62-4.8,23.328-16.4,32.719-27.611,3.443-4.111,7-8.365,10.716-12.236,31.342-32.692,79.479-43.473,118.158-52.135,11.839-2.647,24.2-4.692,33.747,1.829,8.323,5.681,11.451,15.775,14.17,26.5l19.272,75.982c4.449,17.54,9.049,35.68,17.976,51.77,9.937,17.911,24.109,30.374,39.907,35.089,23.911,7.143,49.876-3.81,67.334-12.669,3.486-1.766,6.964-3.6,10.452-5.433,17.481-9.2,35.557-18.711,55.376-20.608,13.176-1.251,27.851,3.61,30.457,15.348,2.357,10.622-5.261,20.427-23.288,29.978a615.314,615.314,0,0,0-104.414,69.892c-9.606,7.967-19.387,16.711-24.234,28.266-4.439,10.584-3.7,25.963,6.419,33.615,7.19,5.439,16.98,5.768,27.23,5.612l139.01-1.973.025,1.8-139.01,1.973c-1.067.017-2.132.025-3.187.025" transform="translate(0.281 93.4)" fill="#fff"/>
    <path d="M1231.707,454.3a50.525,50.525,0,0,1-8.408-.691c-30.006-5.086-43.822-24.616-58.447-45.293-7.521-10.631-15.3-21.627-25.575-30.871-19.566-17.6-43.576-25-64.239-19.777-7.342,1.852-14.326,5.3-21.081,8.635-7.258,3.584-14.766,7.29-22.815,9.088-21.153,4.726-41.842-4.085-61.853-12.6-18.011-7.666-36.642-15.59-55.658-13.783-9.632.918-18.957,4.345-27.975,7.659a159.171,159.171,0,0,1-20.665,6.544c-20.212,4.42-41.983.257-58.222-11.141-16.969-11.909-27.765-31.72-28.175-51.7-.152-7.439.174-14.678.491-21.68,1.244-27.469,2.317-51.19-26.014-70.428-4.437-3.011-9.2-5.707-13.813-8.315-5.143-2.91-10.461-5.919-15.385-9.4-14.358-10.146-25.413-24.261-36.105-37.913-3.245-4.145-6.6-8.429-9.989-12.527-9.96-12.039-22.2-21.138-34.04-29.937-7.458-5.543-15.17-11.275-22.333-17.737-18.952-17.1-32.993-17.28-52.425-17.535-6.4-.083-13.015-.17-20.6-.853-8.6-.774-17.373-1.164-25.86-1.543-11.135-.5-22.649-1.008-33.931-2.392-32.764-4.014-56.94-15.2-71.856-33.24l1.387-1.148c14.613,17.675,38.4,28.644,70.689,32.6,11.211,1.375,22.69,1.885,33.789,2.381,8.508.378,17.305.77,25.942,1.548,7.518.677,14.1.763,20.464.846,19.08.249,34.151.447,53.607,18,7.1,6.4,14.776,12.11,22.2,17.629,11.923,8.862,24.253,18.026,34.353,30.233,3.4,4.117,6.768,8.411,10.02,12.564,10.611,13.55,21.584,27.56,35.727,37.553,4.849,3.426,10.128,6.413,15.233,9.3,4.64,2.626,9.438,5.341,13.936,8.394,29.164,19.8,28.069,43.989,26.8,72-.316,6.973-.641,14.184-.49,21.562.4,19.419,10.9,38.679,27.408,50.265,15.834,11.113,37.069,15.173,56.806,10.856a157.868,157.868,0,0,0,20.427-6.474c9.127-3.354,18.562-6.823,28.428-7.762,19.482-1.858,38.316,6.166,56.532,13.919,20.662,8.794,40.178,17.095,60.754,12.5,7.841-1.751,15.249-5.408,22.413-8.945,6.84-3.376,13.911-6.868,21.439-8.767,21.232-5.357,45.867,2.183,65.879,20.185,10.428,9.38,18.265,20.457,25.842,31.17,14.405,20.363,28.008,39.6,57.281,44.556,17.884,3.036,41.071-4.132,48.838-23.372,7.594-18.813-3.256-39.489-16.551-50.737a106.537,106.537,0,0,0-49.42-23.947c-17.971-3.657-28.5-22.433-32.358-38.784-6.556-27.761-1.405-57.317,3.14-83.394,3.275-18.792-4.179-35.049-20.45-44.6-9.452-5.55-20.708-7.173-31.594-8.742-10.328-1.491-21.008-3.03-30.367-7.885-12.18-6.318-20.713-17.437-28.966-28.19-3.883-5.06-7.9-10.291-12.24-14.95-11.332-12.162-25.622-21.221-39.443-29.983-9.565-6.062-20.409-12.935-32.372-14.586C968.286,80.794,953,85.848,939.844,96.536c-11.946,9.709-20.986,22.5-29.728,34.871-9.272,13.126-28.316,15.507-58.215,7.28-14.65-4.03-28.306-11.267-41.515-18.266-4.375-2.319-8.9-4.715-13.385-6.955-8.882-4.437-17.853-8.666-26.529-12.756-24.689-11.638-48.007-22.632-70.591-38.492-12.773-8.97-17.376-20.881-22.705-34.673-.993-2.569-2.006-5.193-3.1-7.859L675.741,19c1.1,2.679,2.118,5.313,3.116,7.895,5.223,13.516,9.733,25.19,22.06,33.848,22.456,15.771,45.707,26.732,70.322,38.337,8.685,4.093,17.666,8.328,26.568,12.773,4.5,2.251,9.037,4.653,13.422,6.975,13.122,6.953,26.691,14.143,41.151,18.122,29.081,8,47.486,5.843,56.268-6.585,8.81-12.468,17.923-25.362,30.061-35.228,13.543-11,29.35-16.2,43.355-14.268,12.353,1.705,23.37,8.688,33.09,14.849,13.918,8.822,28.307,17.943,39.8,30.276,4.4,4.722,8.44,9.988,12.348,15.082,8.134,10.6,16.544,21.554,28.368,27.687,9.088,4.715,19.614,6.232,29.794,7.7,11.059,1.595,22.492,3.243,32.249,8.972,16.706,9.811,24.672,27.181,21.313,46.465-4.516,25.907-9.632,55.271-3.162,82.673,3.732,15.809,13.828,33.944,30.965,37.433a108.3,108.3,0,0,1,50.225,24.336c13.772,11.654,24.985,33.143,17.057,52.786-6.937,17.182-25.55,25.165-42.4,25.165" transform="translate(160.151 7.304)" fill="#fff"/>
    <path d="M1774.843,1210.874h-.051a423.317,423.317,0,0,1-43.142-2.208,64.657,64.657,0,0,0-8.567.086c-9.179.45-20.6,1.006-24.357-5.865-2.475-4.527-1.235-10.24,3.794-17.464,13.561-19.477,32.705-37.429,58.532-54.879,2.211-1.494,4.442-2.967,6.674-4.442,10.3-6.8,20.96-13.842,29.453-22.935,11.539-12.356,17.085-27.532,14.826-40.6-2.778-16.092-17.7-29.922-36.284-33.63-15.067-3.005-32.423-.177-51.584,8.421-9.1,4.084-17.957,9.074-26.522,13.9-6.765,3.814-13.761,7.756-20.857,11.242-15.553,7.637-28.4,11.225-40.423,11.294-15.73.078-29.664-6.3-37.468-17.1-7.018-9.715-7.316-20.1-7.6-30.136-.194-6.779-.395-13.789-2.713-20.441a138.827,138.827,0,0,0-7.882-17.271c-5.187-10.114-10.548-20.572-10.947-32.538-.361-10.839,3.548-21.206,7.33-31.233.957-2.535,1.91-5.066,2.8-7.6,5.7-16.3,5.739-28.726.13-37.984-7.715-12.734-25.027-16.181-38.76-13.955-10.116,1.643-19.8,5.734-29.172,9.693-4.178,1.762-8.5,3.587-12.816,5.18-15.551,5.739-32.358,8.959-48.611,12.071-26.332,5.043-53.558,10.259-75.026,26.393a178.146,178.146,0,0,0-14.945,13.094c-4.39,4.146-8.929,8.435-13.782,12.219-12.157,9.478-24.091,13.673-35.466,12.444-19.741-2.119-36.072-21.368-34.949-41.193.922-16.221,11.708-30.11,20.375-41.27l62.4-80.341c7.16-9.218,15.984-22.763,9.973-33.947-3.937-7.321-13.2-11.206-27.534-11.546a182,182,0,0,0-43.169,4.135c-2.248.49-4.514,1.023-6.79,1.557-13.66,3.209-27.787,6.526-40.86,1.609-14.892-5.6-23.933-20.292-31.918-34.861-10.2-18.606-22.888-41.764-44.469-50.952-5.631-2.4-11.8-3.794-17.769-5.147-8.3-1.88-16.884-3.825-24.2-8.487-4.354-2.776-8.094-6.419-11.713-9.942a78.227,78.227,0,0,0-10.8-9.308c-10.852-7.229-24.623-8.472-36.771-9.57-28.214-2.549-47.861,2.9-75.05,10.453-20.154,5.6-35.024,21.97-49.4,37.805-14.819,16.318-30.142,33.193-51.352,38.507-13.121,3.291-25.709.815-33.684-6.614-8.151-7.594-10.7-19.33-12.741-28.76l-10.814-49.88c-2.985-13.765-6.825-27.781-17.884-34.688-6.616-4.134-15.582-5.187-24.6-2.892-9.053,2.3-16.976,7.467-22.867,11.707a166.484,166.484,0,0,0-56.637,72.446c-.346.865-.685,1.737-1.026,2.608-1.923,4.931-3.913,10.031-7.132,14.379-6.238,8.432-12.892,12.05-19.8,10.739C664.154,698.238,643.3,623.383,641,614.862c-8.105-30.115-18.076-61.03-42.683-79.109-27.463-20.175-65.221-17.737-95.045-13.361-6.721.984-13.489,1.265-17.488-3.335-4.348-5-2.317-12.7.743-17.776,4.165-6.908,10.309-12.323,16.25-17.563,1.908-1.681,3.88-3.421,5.749-5.176,9.688-9.1,14.444-17.666,14.544-26.18.1-8.439-4.761-17.243-13-23.552-.922-.706-1.838-1.426-2.753-2.146-6.647-5.23-12.931-10.18-20.942-9.34-30.125,3.112-64.27,6.641-94.607-5.695-14.236-5.789-26.883-14.816-39.115-23.547-20.939-14.945-42.589-30.4-57.523-52.147-6.1-8.887-10.935-18.7-15.608-28.2-3.444-7-7.006-14.232-11.041-21.022A151.546,151.546,0,0,0,245.589,257.3c-1.981-1.988-3.9-4.223-5.752-6.383-3.853-4.492-7.838-9.135-12.717-12-17.576-10.326-40.5-11.4-60.722-12.349l-.691-.032c-23.284-1.095-46.9-1.449-70.188-1.052-18.45.313-40.239,8.439-47.324,25.888-3.641,8.966-3.621,19.894.06,33.409,1.211,4.446,2.709,8.908,4.158,13.223a161.7,161.7,0,0,1,5.764,19.976c4.994,25.334-2.359,51.378-8.847,74.359-1.776,6.286-3.609,11.785-8.079,15.392-6.718,5.422-16.535,3.675-22.812-.242C12.2,403.593,7.7,397.613,3.349,391.831L2.33,390.48l1.437-1.087,1.02,1.354c4.254,5.652,8.655,11.5,14.6,15.211,5.756,3.592,14.7,5.24,20.73.37,4.056-3.274,5.786-8.5,7.475-14.48,6.434-22.786,13.727-48.611,8.813-73.523a159.949,159.949,0,0,0-5.7-19.75c-1.458-4.34-2.964-8.825-4.189-13.323-3.788-13.911-3.785-25.215.01-34.559,7.395-18.212,29.919-26.689,48.961-27.01,23.327-.4,46.979-.042,70.3,1.053l.691.032c20.432.958,43.59,2.045,61.55,12.6,5.139,3.019,9.222,7.778,13.172,12.381,1.833,2.136,3.728,4.344,5.662,6.286A153.23,153.23,0,0,1,270.027,285.8c4.074,6.851,7.651,14.118,11.11,21.147,4.644,9.435,9.448,19.192,15.475,27.973,14.754,21.484,36.276,36.845,57.087,51.7,12.146,8.671,24.705,17.636,38.746,23.346,29.922,12.167,63.827,8.663,93.745,5.572,8.741-.9,15.6,4.495,22.239,9.714.908.716,1.819,1.431,2.735,2.133,8.689,6.652,13.813,16,13.707,25-.107,9.028-5.049,18.014-15.113,27.469-1.888,1.776-3.872,3.524-5.79,5.216-5.839,5.147-11.876,10.471-15.9,17.142-2.748,4.554-4.639,11.391-.926,15.663,3.432,3.948,9.657,3.648,15.868,2.737,30.165-4.428,68.38-6.873,96.372,13.692,25.075,18.421,35.527,51,43.356,80.09,2.262,8.408,22.827,82.28,47.808,87.009,6.161,1.166,12.223-2.214,18.015-10.042,3.074-4.156,5.021-9.14,6.9-13.963.342-.876.682-1.751,1.031-2.622a168.3,168.3,0,0,1,57.257-73.238c6.02-4.334,14.128-9.613,23.474-11.991,9.487-2.416,18.964-1.282,25.995,3.108,11.654,7.279,15.623,21.693,18.689,35.834l10.814,49.882c2.446,11.279,5.053,21.157,12.21,27.824,8.862,8.255,22.351,8.609,32.017,6.185,20.683-5.183,35.82-21.851,50.458-37.971,14.552-16.025,29.6-32.593,50.254-38.33,27.372-7.6,47.162-13.084,75.694-10.511,12.363,1.117,26.375,2.382,37.607,9.865a79.393,79.393,0,0,1,11.058,9.516c3.552,3.461,7.226,7.038,11.425,9.712,7.054,4.495,15.482,6.405,23.634,8.252,6.045,1.369,12.3,2.787,18.076,5.247,22.155,9.431,35.013,32.892,45.344,51.742,7.82,14.273,16.656,28.658,30.971,34.043,12.564,4.726,26.418,1.471,39.814-1.678,2.29-.536,4.564-1.07,6.82-1.563a183.921,183.921,0,0,1,43.6-4.176c15.028.357,24.811,4.56,29.077,12.493,6.509,12.108-2.669,26.291-10.139,35.9l-62.4,80.339c-8.512,10.964-19.109,24.609-20,40.269-1.072,18.912,14.51,37.278,33.345,39.3,10.9,1.179,22.39-2.892,34.166-12.074,4.787-3.732,9.294-7.99,13.653-12.107a179.248,179.248,0,0,1,15.1-13.224c21.8-16.385,49.238-21.639,75.771-26.721,16.181-3.1,32.911-6.305,48.327-11.992,4.279-1.578,8.579-3.4,12.737-5.152,9.466-4,19.254-8.131,29.584-9.809,14.322-2.334,32.435,1.343,40.589,14.8,5.9,9.745,5.915,22.669.028,39.509-.89,2.547-1.849,5.093-2.812,7.644-3.719,9.859-7.564,20.054-7.214,30.535.385,11.563,5.653,21.84,10.749,31.778a139.842,139.842,0,0,1,7.979,17.5c2.411,6.913,2.616,14.065,2.814,20.982.292,10.216.568,19.867,7.263,29.133,7.3,10.107,20.96,16.357,35.7,16.357h.3c11.744-.067,24.341-3.6,39.639-11.11,7.05-3.462,14.023-7.392,20.769-11.193,8.6-4.847,17.493-9.858,26.666-13.973,19.512-8.754,37.235-11.631,52.675-8.544,19.3,3.85,34.8,18.28,37.707,35.089,2.388,13.822-3.185,29.181-15.285,42.138-8.639,9.248-19.383,16.344-29.773,23.208-2.229,1.471-4.455,2.94-6.659,4.43-25.64,17.326-44.632,35.125-58.064,54.418-4.6,6.607-5.807,11.7-3.693,15.569,3.218,5.883,14.016,5.353,22.692,4.932a64.985,64.985,0,0,1,8.837-.078,422.194,422.194,0,0,0,42.959,2.2h.051a421.53,421.53,0,0,0,86.977-9.067l.372,1.761a423.4,423.4,0,0,1-87.349,9.106" transform="translate(0.895 85.902)" fill="#fff"/>
    <path d="M1231.323,481.048q-3.343,0-6.662-.263c-19-1.509-36.766-9.883-48.732-22.971-6.245-6.833-11.073-16.1-15.739-25.059-7.086-13.6-14.413-27.662-26.961-34.227-23.271-12.173-44.591-15.535-63.368-10-3.988,1.175-7.961,2.746-11.8,4.265-6.407,2.535-13.032,5.154-20.014,6.065-17.514,2.28-33.883-6.139-49.716-14.282-2.424-1.247-4.834-2.486-7.234-3.679-27.595-13.723-50.953-16.6-69.427-8.569-9.675,4.211-17.827,11.436-25.712,18.424-2,1.77-3.994,3.54-6.013,5.262-14.286,12.187-34.263,24.8-48.275,15.649-6.22-4.059-11.581-12.449-16.311-19.852-2.04-3.192-3.967-6.209-5.817-8.663L785.9,351.773c-9.39-12.464-22.253-29.534-22.315-47.25-.023-7.061,1.584-13.573,3.138-19.87,2.472-10.015,4.809-19.477.882-30.7-5.068-14.485-18.224-26.374-40.225-36.345-3.83-1.736-7.806-3.41-11.65-5.026-13.432-5.652-27.319-11.5-38.306-21.357-14.693-13.187-21.295-30.855-24.245-43.355-6.586-27.9-42.725-41.3-53.646-44.736-13.49-4.251-28.04-4.639-42.113-5.014l-3.023-.082a1056.936,1056.936,0,0,1-110.136-9c-12.151-1.627-23.777-3.706-32.436-11.2-10.224-8.85-13.357-22.617-16.386-35.932q-.452-1.991-.909-3.958l1.754-.41q.459,1.968.911,3.969c2.965,13.032,6.03,26.507,15.809,34.97,8.284,7.169,19.625,9.189,31.5,10.778a1054.827,1054.827,0,0,0,109.948,8.981l3.02.082c14.195.378,28.874.77,42.607,5.1,11.146,3.512,48.05,17.211,54.856,46.042,2.891,12.248,9.35,29.552,23.694,42.427,10.762,9.66,24.508,15.443,37.8,21.037,3.855,1.622,7.842,3.3,11.7,5.047,22.473,10.184,35.943,22.415,41.182,37.39,4.1,11.729,1.592,21.9-.835,31.727-1.528,6.192-3.109,12.593-3.084,19.431.059,17.12,12.713,33.913,21.952,46.175l23.638,31.375c1.89,2.51,3.836,5.554,5.9,8.776,4.632,7.25,9.883,15.467,15.778,19.314,13.764,8.988,34.808-5.86,46.123-15.511,2.01-1.715,4-3.477,5.987-5.241,7.989-7.079,16.252-14.4,26.188-18.725,18.979-8.256,42.852-5.366,70.945,8.606,2.407,1.2,4.824,2.441,7.255,3.691,15.587,8.018,31.714,16.3,48.661,14.1,6.76-.882,13.281-3.461,19.586-5.954,3.877-1.534,7.888-3.119,11.953-4.318,19.242-5.674,41.012-2.265,64.71,10.132,13.05,6.826,20.51,21.144,27.723,34.991,4.826,9.265,9.386,18.015,15.472,24.674,11.663,12.756,28.992,20.918,47.547,22.392,17.233,1.375,35.163-2.738,51.871-11.875,10.813-5.911,24.892-16.292,30.551-32.177,4.441-12.467,3.132-27.9-3.6-42.353-6.358-13.662-17.72-31.365-35.744-38.121l-1.555-.583c-15.1-5.647-30.711-11.486-40.968-24.463-11.3-14.29-14.03-35.979-7.5-59.507,3.1-11.184,7.809-21.984,12.36-32.429,3.508-8.05,7.135-16.375,9.993-24.8,5.512-16.25,9.876-39.667-.645-58.939-.868-1.591-1.855-3.18-2.807-4.716-2.333-3.758-4.744-7.647-5.784-12.067-2.666-11.35,4.062-21.494,10.566-31.3a120.98,120.98,0,0,0,7.22-11.833,50.584,50.584,0,0,0-3.725-50.75,50.58,50.58,0,0,0-46.575-20.5c-21.257,2.712-36.661,17.689-52.966,33.544-13.1,12.733-26.641,25.9-43.539,32.164-19.476,7.219-39.781,3.854-53.383-.235-12.5-3.761-23.85-9.816-34.825-15.672-4.322-2.306-8.789-4.689-13.289-6.915-12.582-6.222-29.692-10.1-45.773-10.378-16.1-.28-30.508,4.892-39.541,14.186a80.471,80.471,0,0,0-8.806,11.609,87.291,87.291,0,0,1-8.375,11.195c-10.425,11.209-18.45,8.508-28.607,5.087-1.977-.664-4.017-1.352-6.192-1.977-5.292-1.521-10.694-2.882-15.917-4.2a285.8,285.8,0,0,1-27.858-8.04,301.279,301.279,0,0,1-77.3-41.605l1.077-1.444a299.4,299.4,0,0,0,76.837,41.357,284.588,284.588,0,0,0,27.68,7.986c5.237,1.319,10.652,2.684,15.973,4.214,2.215.637,4.276,1.33,6.269,2,9.914,3.338,17.081,5.752,26.716-4.607a85.968,85.968,0,0,0,8.2-10.969,81.8,81.8,0,0,1,9.013-11.865c9.377-9.65,24.311-15.009,40.863-14.732,16.332.281,33.731,4.232,46.539,10.565,4.525,2.238,9.006,4.629,13.339,6.941,10.9,5.814,22.165,11.826,34.494,15.535,13.345,4.012,33.238,7.316,52.241.273,16.544-6.131,29.947-19.164,42.909-31.768,15.8-15.364,32.139-31.251,53.993-34.039,18.246-2.321,37.657,6.207,48.272,21.245a52.423,52.423,0,0,1,3.862,52.6,122.079,122.079,0,0,1-7.327,12.017c-6.582,9.928-12.8,19.3-10.314,29.9.972,4.134,3.2,7.727,5.562,11.531.966,1.556,1.964,3.167,2.856,4.8,10.833,19.845,6.4,43.79.772,60.382-2.883,8.5-6.525,16.857-10.048,24.942-4.527,10.388-9.207,21.13-12.276,32.191-6.37,22.968-3.754,44.075,7.182,57.909,9.945,12.583,25.319,18.332,40.186,23.894l1.556.581c14.715,5.516,27.422,19.019,36.744,39.047,6.926,14.873,8.259,30.808,3.66,43.718-5.851,16.418-20.3,27.089-31.382,33.151-14.879,8.133-30.726,12.351-46.218,12.352" transform="translate(151.618 7.846)" fill="#fff"/>
    <path d="M1258.762,515.47c-13.925,0-27.852-4.419-39.587-8.141-19.334-6.135-43.4-13.77-58.052-31.8-4.48-5.51-8.39-13.439-12.532-21.835-9.343-18.936-19.975-40.381-40.178-38.824-7.931.615-15.669,3.9-23.152,7.082a114.726,114.726,0,0,1-16.077,5.91c-18.533,4.745-37.966-1.523-50.974-6.65-4.428-1.747-8.781-3.21-12.989-4.625-11.07-3.724-21.526-7.24-31.353-15.15-11.339-9.127-28.1-6.314-39.692.522-9.109,5.371-16.686,13.165-24.018,20.7-2.587,2.662-5.265,5.415-7.976,8.029-13.455,12.967-25.945,19.418-38.182,19.724-10.237.235-21.257-4.014-31.043-12.02-8.739-7.146-15.622-16.228-22.279-25.014l-35.97-47.461c-4.553-6.011-9.715-12.823-11.7-20.769-1.633-6.553-1-13.371-.395-19.964.2-2.118.392-4.236.515-6.344,1.288-22.167-6.382-45.042-21.04-62.763-6.481-7.834-15.175-17.117-24.956-19.4-6.559-1.528-13.8-1.2-20.813-.876a123.589,123.589,0,0,1-13.574.129c-17.253-1.141-30.456-8.473-35.316-19.616-3-6.874-2.684-14.487-2.381-21.848.137-3.3.277-6.722.112-10.008-1.152-22.963-19.768-44.221-42.378-48.4-12.046-2.226-24.21-.576-35.972,1.02-12.265,1.661-24.945,3.38-37.643.778-5.889-1.207-11.984-1.91-17.878-2.591a186.7,186.7,0,0,1-20.7-3.185c-2.742-.635-5.479-1.3-8.217-1.959-10.176-2.46-20.7-5-31.284-6.016a73.613,73.613,0,0,0-14.208.519c-5.962.6-12.125,1.225-17.891-.091-11.657-2.656-22.755-10.774-28.273-20.681-5.332-9.572-5.929-20.756-6.506-31.569-.507-9.5-1.031-19.326-4.779-27.963-4.113-9.476-11.726-16.865-19.17-23.623l1.208-1.332c7.592,6.888,15.358,14.434,19.611,24.238,3.877,8.934,4.412,18.923,4.927,28.584.566,10.609,1.152,21.58,6.281,30.79,5.28,9.481,15.918,17.254,27.1,19.8,5.475,1.246,11.223.669,17.308.054a75.036,75.036,0,0,1,14.562-.519c10.712,1.024,21.3,3.584,31.534,6.058,2.733.66,5.465,1.321,8.2,1.953a184.913,184.913,0,0,0,20.5,3.152c5.932.687,12.067,1.394,18.032,2.616,12.4,2.54,24.923.843,37.04-.8,11.9-1.613,24.211-3.284,36.541-1.006,23.4,4.322,42.656,26.318,43.849,50.08.169,3.368.026,6.827-.112,10.172-.309,7.488-.6,14.559,2.233,21.054,4.586,10.514,17.216,17.445,33.785,18.539a122.439,122.439,0,0,0,13.372-.13c7.129-.325,14.5-.666,21.306.922,10.3,2.4,19.272,11.953,25.933,20,14.945,18.066,22.763,41.4,21.45,64.014-.123,2.129-.321,4.266-.519,6.407-.6,6.443-1.21,13.107.35,19.362,1.892,7.589,6.937,14.244,11.386,20.117l35.968,47.462c6.593,8.7,13.412,17.7,21.984,24.707,9.453,7.733,20.067,11.866,29.858,11.613,11.765-.292,23.861-6.58,36.979-19.218,2.69-2.594,5.356-5.336,7.935-7.989,7.413-7.622,15.078-15.5,24.394-21,12.124-7.149,29.729-10.036,41.734-.374,9.578,7.709,19.887,11.176,30.8,14.845,4.229,1.423,8.6,2.895,13.075,4.657,12.773,5.036,31.839,11.192,49.867,6.581a113.411,113.411,0,0,0,15.82-5.821c7.616-3.236,15.493-6.584,23.717-7.222,21.493-1.685,32.337,20.375,41.932,39.824,4.1,8.3,7.965,16.142,12.313,21.5,14.318,17.612,38.095,25.157,57.2,31.217,15.132,4.8,33.964,10.774,51.412,6.7,14.56-3.4,26.357-12.914,39.178-24.076,13.791-12.006,27.6-24.38,41.051-36.779,7.976-7.352,15.32-14.735,17.567-24.193,2.344-9.862-1.1-21.347-10.233-34.138a130.4,130.4,0,0,0-55.044-44.206c-1.758-.749-3.545-1.467-5.337-2.186-7.684-3.088-15.63-6.279-21.649-12.143-13.393-13.051-11.549-32.1-9.923-48.9l.115-1.186c1.7-17.648,6.614-36.671,14.614-56.536,1.314-3.261,2.709-6.548,4.114-9.853,7.921-18.64,16.109-37.913,11.091-56.914-1.4-5.313-3.854-10.435-6.225-15.389-3.081-6.438-6.27-13.094-7.244-20.317-1.073-7.914.59-15.845,2.2-23.515.689-3.286,1.4-6.683,1.883-10.018a79.518,79.518,0,0,0-29.113-72.756,79.515,79.515,0,0,0-77.582-11.054c-18.842,7.586-34.084,21.565-48.826,35.085-11.044,10.132-22.467,20.607-35.387,28.417-23.4,14.141-58.442-5.253-81.634-18.084-2.635-1.459-5.129-2.839-7.445-4.082-26.226-14.077-54.224-27.372-82.823-22.012-13.372,2.506-25.8,9.111-37.818,15.5-13.2,7.013-26.839,14.265-41.845,16.178C824.8,61.7,806.23,54.248,794.169,47.538c-15.378-8.556-28.777-20.287-41.734-31.633l1.186-1.354c12.887,11.283,26.212,22.95,41.424,31.413,11.823,6.578,30.016,13.9,49.543,11.409,14.681-1.872,28.176-9.045,41.227-15.982,12.139-6.452,24.688-13.123,38.333-15.68,29.17-5.471,58.656,8.591,84,22.2,2.321,1.246,4.821,2.629,7.465,4.092,22.828,12.633,57.331,31.716,79.83,18.119,12.767-7.716,24.121-18.132,35.1-28.2,14.859-13.63,30.225-27.721,49.37-35.43a81.34,81.34,0,0,1,79.363,11.31,81.345,81.345,0,0,1,29.786,74.428c-.491,3.392-1.21,6.816-1.9,10.129-1.574,7.522-3.2,15.3-2.176,22.906.939,6.942,4.064,13.469,7.085,19.78,2.407,5.029,4.9,10.23,6.344,15.709,5.175,19.595-3.137,39.158-11.176,58.076-1.4,3.295-2.791,6.571-4.1,9.822-7.936,19.707-12.812,38.56-14.492,56.036l-.116,1.188c-1.588,16.4-3.386,34.987,9.387,47.434,5.764,5.615,13.543,8.739,21.065,11.761,1.8.724,3.6,1.447,5.371,2.2a132.2,132.2,0,0,1,55.8,44.817c9.449,13.233,12.987,25.21,10.518,35.6-2.364,9.952-9.91,17.552-18.1,25.1-13.461,12.41-27.287,24.8-41.089,36.814-13.006,11.322-24.988,20.978-39.954,24.47a56.058,56.058,0,0,1-12.776,1.4" transform="translate(138.449 0.331)" fill="#fff"/>
    <path d="M1882.609,1199.223a247.142,247.142,0,0,1-60.339-18.447c-14.066-6.361-21.122-13.824-21.569-22.817-.428-8.587,5.875-15.532,9.669-18.908,2.456-2.187,5.148-4.143,7.749-6.037a83.953,83.953,0,0,0,8.832-7.052c10.3-9.877,15.514-25.621,13.961-42.115-1.276-13.525-6.7-27.5-16.578-42.728-9.613-14.819-19.243-24.009-30.307-28.924-17.36-7.716-37.754-4.07-53.582-.035a315.293,315.293,0,0,0-62.431,23.194c-13.43,6.686-31.826,15.838-46.392,7.369-9.64-5.611-13.764-16.555-17.47-28.231l-14.819-46.676c-2-6.3-4.264-13.433-3.754-20.59.911-12.8,10.184-22.738,17.8-28.827,4.313-3.445,9.006-6.5,13.545-9.448a156.949,156.949,0,0,0,14.379-10.14c5.734-4.732,8.379-9.177,8.09-13.594-.613-9.327-9.777-10.507-18.638-11.646a54.262,54.262,0,0,1-8.388-1.5c-11.134-3.375-21.509-9.012-31.541-14.465q-2.284-1.242-4.56-2.471c-16.534-8.886-34.295-16.8-52.126-14.549-13.251,1.672-25.09,8.783-36.541,15.661a184.219,184.219,0,0,1-20.164,10.994c-15.431,6.8-32.3,9.03-48.622,11.192l-51.949,6.879c-5.406.713-10.993,1.452-16.524.379-6.294-1.221-11.3-4.834-13.395-9.661-3.382-7.806.795-13.9,4.834-19.784.933-1.362,1.9-2.768,2.729-4.15,1.274-2.122,2.524-4.43,3.733-6.661a92.375,92.375,0,0,1,7.863-12.82,59.285,59.285,0,0,1,7.672-7.676,65.2,65.2,0,0,0,6.9-6.74c9.873-11.771,14.812-26.434,13.551-40.235a43.317,43.317,0,0,0-16.045-30.535c-13.44-11.073-35.192-16.589-56.777-14.39-4.268.433-8.594,1.049-13.174,1.7-21.41,3.044-45.676,6.5-62.168-11.339-6.473-7-11.16-15.481-15.692-23.68-1.217-2.2-2.434-4.4-3.682-6.573-5.5-9.556-12.562-20.107-23.3-25.925-4.949-2.68-10.53-4.229-15.928-5.727-2.867-.8-5.83-1.618-8.692-2.607-13.9-4.792-25.983-13.259-32.333-22.644-7.758-11.468-14.094-17.86-27.2-20.975-11.1-2.637-22.715-2.11-33.951-1.6l-60.268,2.738c-26.865,1.222-53.534,4.927-66.64,23.6-6.613,9.424-41.352,56.125-75.64,50.541-18.843-3.081-20.3-25.662-21.26-40.6l-.09-1.38a297.127,297.127,0,0,0-7.443-49.319c-1.851-7.763-4.308-16.588-10.057-23.053-10.814-12.164-30.312-12.373-44.836-7.189-19.959,7.126-35.934,22.636-48.928,36.869-2.76,3.023-5.489,6.092-8.217,9.163-10.975,12.349-22.322,25.118-35.978,34.871-6.264,4.471-18.24,11.141-28.072,5.575-5.2-2.944-8.107-8.443-10.644-13.822-2.746-5.827-5.134-11.876-7.442-17.727-1.629-4.129-3.315-8.4-5.109-12.546a68.4,68.4,0,0,0-6.191-10.627,82.618,82.618,0,0,1-5.565-9.2c-6.9-13.97-13.379-28.457-19.65-42.468-3.184-7.115-6.366-14.228-9.611-21.3-4.985-10.861-9.56-22.366-6.08-33.139,2.477-7.668,8.508-13.3,14.341-18.741,1.39-1.3,2.775-2.59,4.107-3.9,4.081-4.028,13.2-14.5,9.759-24.787-3.3-9.851-15.552-13.187-27.107-15.155-23.827-4.057-54.706-10.624-82.225-25.518-1.6-.868-3.2-1.762-4.788-2.658-6.305-3.544-12.825-7.208-19.855-8.979-15.183-3.822-29.4,1.459-43.143,6.57C443.829,407,428.5,412.7,411.9,407.076c-15.482-5.238-28.32-16.261-39.648-25.985-34.015-29.2-63.844-56.16-84.392-90.333-3.094-5.143-6-10.505-8.81-15.692-4.738-8.745-9.639-17.787-15.539-25.954-7.623-10.553-20.331-23.9-37.587-27.543-20.042-4.239-41.406-5.937-62.065-7.58-5.525-.439-11.016-.875-16.444-1.357-33.009-2.926-60.267-3.8-85.788-2.751-13.948.573-28.093,2.395-37.078,11.754-7.1,7.394-10.238,18.714-9.6,34.613.706,17.568,4.8,35.055,8.77,51.962,2.346,10.014,4.773,20.369,6.485,30.671.915,5.505,1.644,11.337-.309,16.785-1.884,5.253-7.246,10.291-13.479,9.283-3.93-.637-6.982-3.509-9.435-5.815l1.232-1.312c2.794,2.627,5.36,4.845,8.491,5.35,5.079.825,9.834-3.479,11.5-8.115,1.808-5.039,1.1-10.608.227-15.881-1.7-10.244-4.122-20.569-6.463-30.554-3.981-16.991-8.1-34.56-8.814-52.3-.66-16.414,2.643-28.165,10.1-35.932,9.427-9.817,23.98-11.717,38.305-12.305,25.6-1.052,52.931-.176,86.019,2.757,5.424.479,10.91.915,16.429,1.355,20.716,1.646,42.138,3.35,62.295,7.611,17.817,3.768,30.865,17.444,38.673,28.252,5.969,8.261,10.9,17.355,15.662,26.151,2.8,5.169,5.7,10.514,8.77,15.622,20.41,33.943,50.128,60.793,84.023,89.894,11.2,9.618,23.9,20.517,39.051,25.646,16,5.411,30.351.078,45.546-5.57,14-5.206,28.481-10.591,44.21-6.628,7.263,1.83,13.89,5.554,20.3,9.154,1.585.891,3.17,1.783,4.762,2.644,27.287,14.769,57.982,21.295,81.671,25.326,12.081,2.057,24.915,5.609,28.514,16.36,3.627,10.839-4.835,21.342-10.2,26.639-1.344,1.326-2.741,2.632-4.143,3.94-5.666,5.287-11.523,10.755-13.857,17.978-3.284,10.165.966,20.859,6,31.835,3.247,7.076,6.431,14.193,9.619,21.314,6.263,14,12.738,28.467,19.62,42.407a81.212,81.212,0,0,0,5.45,9,69.951,69.951,0,0,1,6.344,10.91c1.8,4.172,3.5,8.458,5.13,12.6,2.3,5.824,4.675,11.844,7.4,17.618,2.414,5.119,5.168,10.341,9.9,13.023,8.961,5.078,20.223-1.25,26.14-5.472,13.49-9.635,24.769-22.326,35.678-34.6,2.734-3.076,5.466-6.152,8.234-9.181,13.143-14.4,29.321-30.092,49.652-37.351,13.99-4.994,34.637-5.977,46.786,7.687,6.026,6.779,8.56,15.857,10.463,23.833a299.051,299.051,0,0,1,7.489,49.617l.09,1.382c.98,15.233,2.324,36.094,19.754,38.943,33.236,5.438,67.371-40.527,73.876-49.8,13.552-19.312,40.707-23.123,68.033-24.366l60.268-2.738c11.354-.518,23.1-1.049,34.447,1.646,13.687,3.252,20.261,9.865,28.279,21.717,6.138,9.075,17.888,17.281,31.429,21.952,2.809.969,5.746,1.784,8.585,2.573,5.5,1.524,11.177,3.1,16.306,5.879,11.137,6.031,18.383,16.836,24.005,26.609,1.254,2.18,2.475,4.39,3.7,6.6,4.481,8.1,9.115,16.487,15.439,23.33,15.847,17.145,38.594,13.908,60.592,10.777,4.6-.653,8.941-1.271,13.245-1.709,17.268-1.758,41.611,1.2,58.1,14.79a45.078,45.078,0,0,1,16.695,31.761c1.3,14.273-3.789,29.422-13.966,41.557a66.967,66.967,0,0,1-7.086,6.931,57.075,57.075,0,0,0-7.445,7.435,90.933,90.933,0,0,0-7.7,12.571c-1.218,2.248-2.476,4.574-3.772,6.731-.858,1.427-1.84,2.857-2.787,4.24-3.938,5.738-7.655,11.157-4.667,18.05,1.854,4.283,6.373,7.5,12.085,8.61,5.252,1.023,10.69.3,15.946-.4l51.948-6.879c16.192-2.143,32.937-4.361,48.135-11.054a182.906,182.906,0,0,0,19.96-10.89c11.61-6.973,23.616-14.184,37.243-15.9,18.336-2.3,36.406,5.721,53.2,14.75q2.282,1.229,4.568,2.474c9.953,5.41,20.245,11,31.2,14.325a53.019,53.019,0,0,0,8.094,1.434c8.685,1.116,19.494,2.506,20.207,13.31.329,5.039-2.528,9.978-8.74,15.1a158,158,0,0,1-14.545,10.26c-4.5,2.926-9.157,5.954-13.4,9.344-7.341,5.865-16.271,15.4-17.133,27.547-.486,6.814,1.723,13.777,3.674,19.919l14.819,46.677c3.594,11.328,7.572,21.933,16.659,27.219,13.727,7.986,30.891-.558,44.685-7.422A316.793,316.793,0,0,1,1740,1010.419c16.112-4.109,36.9-7.8,54.759.132,11.4,5.064,21.274,14.466,31.085,29.588,10.041,15.476,15.557,29.718,16.86,43.54,1.6,17.038-3.819,33.33-14.509,43.583a85.475,85.475,0,0,1-9.016,7.207c-2.569,1.869-5.222,3.8-7.613,5.926-3.552,3.162-9.458,9.636-9.069,17.477.406,8.137,7.308,15.294,20.514,21.267a245.313,245.313,0,0,0,59.9,18.309Z" transform="translate(2.683 79.803)" fill="#fff"/>
    <path d="M1141.653,611.09c-5.76,0-11.614-.828-16.891-3.548-12.613-6.5-19.326-19.614-18.9-36.922.6-24.25,15.226-50.411,32.613-58.316,25.9-11.773,66.026-6.851,101.433-2.508,13.1,1.606,25.477,3.124,35.862,3.6,6.271.285,12.258.853,16.61,4.614,7.767,6.715,5.565,19.533-.064,29.257-15.047,26-41.163,39.97-60.425,47.115-24.454,9.071-50.663,12.363-76.008,15.546a114.179,114.179,0,0,1-14.23,1.164m-16.065-5.148c9.319,4.8,20.827,3.358,30.07,2.2,25.246-3.17,51.349-6.448,75.608-15.447,18.983-7.041,44.713-20.8,59.493-46.33,5.256-9.082,7.432-20.951.443-26.992-3.915-3.385-9.571-3.908-15.513-4.178-10.457-.478-22.864-2-36-3.612-35.171-4.313-75.036-9.206-100.467,2.36-16.822,7.65-30.979,33.1-31.559,56.723-.408,16.58,5.96,29.109,17.927,35.277" transform="translate(424.975 194.062)" fill="#fff"/>
    <path d="M1156.092,581.344a47.388,47.388,0,0,1-15.069-2.254c-9.085-3.044-18.832-11.131-20.122-22.336-1.827-15.889,14.1-28.85,29.915-31.748,8.862-1.624,17.987-1.185,26.817-.759a157.041,157.041,0,0,0,19.92.116c3.3-.263,6.656-.748,9.9-1.217,6.015-.869,12.241-1.768,18.425-1.321,11.089.8,19.444,6.193,21.8,14.076,2.164,7.221-1.093,15.017-8.71,20.857-17.379,13.32-55.766,20.957-67.119,22.981a90.135,90.135,0,0,1-15.762,1.6m9.246-55.689a78.842,78.842,0,0,0-14.2,1.123c-15.011,2.751-30.158,14.916-28.447,29.772,1.2,10.418,10.359,17.97,18.905,20.832,10.227,3.426,21.372,2.115,29.942.587,23.184-4.132,52.786-12.25,66.34-22.639,7-5.367,10.021-12.435,8.082-18.912-2.14-7.147-9.884-12.049-20.209-12.8-6-.43-12.121.453-18.038,1.308-3.275.472-6.66.962-10.015,1.229a158.853,158.853,0,0,1-20.153-.112c-4.027-.2-8.118-.392-12.207-.392" transform="translate(430.706 200.494)" fill="#fff"/>
    <path d="M1092.618,564.807c-14.538,0-29.926-9.261-40.452-15.6l-60.588-36.463c-13.359-8.04-27.171-16.353-38.126-27.97-9.15-9.705-28.193-29.9-17.607-43.56,10.925-14.1,36.579,3.973,45.01,9.913a199.7,199.7,0,0,1,18.5,15.4,210.246,210.246,0,0,0,17.243,14.491,105.19,105.19,0,0,0,96.967,13.347l.31.846-.31-.846c.708-.262,2.078-.4,3.271,1.595,5.277,8.843,4.071,53.556-5.291,61.81a27.688,27.688,0,0,1-18.928,7.031M947.238,437.715a11.88,11.88,0,0,0-9.969,4.607c-8.5,10.964,4.074,26.991,17.494,41.22,10.785,11.438,24.49,19.686,37.743,27.664l60.588,36.462c20.208,12.161,41.276,22.851,57.26,8.757,8.5-7.5,9.606-51.712,4.938-59.539-.6-1.011-.981-.873-1.1-.826a107.005,107.005,0,0,1-98.644-13.58,211.131,211.131,0,0,1-17.394-14.611A198.52,198.52,0,0,0,979.818,452.6c-14.114-9.941-24.906-14.887-32.581-14.887" transform="translate(358.448 167.542)" fill="#fff"/>
    <path d="M1236.292,459.755a45.312,45.312,0,0,1-6.943-.511c-8.722-1.348-23.89-6.706-27.466-15.341-3.218-7.767-4.308-19.927-.839-23.375,3.138-3.119,7.809-3.844,11.963-4.143a99.566,99.566,0,0,1,50.165,9.552c5.163,2.482,13.771,7.875,13.371,16.115-.453,9.426-11.468,13.485-20.628,15.229-6.416,1.222-12.994,2.475-19.624,2.475M1220.1,417.932q-3.48,0-6.959.249c-3.827.276-8.1.922-10.824,3.624-2.385,2.369-2.283,12.925,1.232,21.41,3.119,7.531,17.128,12.867,26.079,14.251,8.664,1.337,17.455-.334,25.953-1.953,8.526-1.624,18.77-5.292,19.17-13.548.347-7.2-7.593-12.117-12.356-14.4a97.775,97.775,0,0,0-42.294-9.628" transform="translate(460.739 159.921)" fill="#fff"/>
    <path d="M355.817,291.678a34.882,34.882,0,0,1-4.272-.256c-22.8-2.809-37.888-28.006-51.205-50.238-4.56-7.615-8.868-14.806-13.071-20.3a177.063,177.063,0,0,0-110.1-66.29l-1.919-.32c-18.145-3.029-40.727-6.8-46.428-24.685-4.722-14.815,6.822-30.431,20.564-35.722,14.635-5.633,31.147-2.566,43.9.738,2.78.718,5.557,1.487,8.338,2.256,11.229,3.108,22.844,6.325,34.538,6.124,7.611-.127,15.416-1.693,22.963-3.207,12.639-2.535,25.708-5.155,38.067-1,14.337,4.817,24.353,17.774,32.4,28.186l63.478,82.119c8.7,11.254,15.953,21.574,16.573,33.906.538,10.71-5.079,22.363-15.41,31.975-11.227,10.442-25.852,16.715-38.416,16.715M167.608,92.545a48.709,48.709,0,0,0-17.575,3.005c-12.978,5-23.908,19.647-19.5,33.495,5.366,16.839,27.347,20.507,45.01,23.456l1.92.321A178.876,178.876,0,0,1,288.7,219.792c4.266,5.572,8.6,12.806,13.187,20.466,13.105,21.879,27.957,46.676,49.88,49.378,12.906,1.588,29.087-4.689,41.241-15.991,9.942-9.249,15.35-20.389,14.838-30.567-.594-11.809-7.688-21.884-16.2-32.9l-63.478-82.119c-7.9-10.219-17.73-22.936-31.55-27.579-11.906-4-24.162-1.541-37.141,1.062-7.625,1.531-15.511,3.112-23.287,3.242-11.949.2-23.7-3.047-35.046-6.189-2.771-.766-5.54-1.532-8.31-2.249-7.5-1.942-16.314-3.8-25.226-3.8" transform="translate(49.093 34.874)" fill="#fff"/>
    <path d="M600.866,340.159c-4.739,0-9.3-2.8-13.737-5.522-1.157-.71-2.3-1.413-3.434-2.053-9.56-5.4-21.151-6.647-32.359-7.852-13.778-1.48-28.024-3.009-38.32-12.373-6.809-6.192-16.529-31.717-16.774-48.369-.093-6.192,1.146-10.57,3.677-13.012,11.7-11.292,65.637,14.053,73.372,18.269,21.45,11.683,35.837,29.564,39.472,49.054,1.545,8.284-.3,18.447-8.016,21.19a11.5,11.5,0,0,1-3.88.669m-86.639-29.133c9.863,8.969,23.19,10.4,37.3,11.916,11.391,1.224,23.169,2.489,33.053,8.075,1.149.651,2.315,1.364,3.49,2.085,5.278,3.239,10.738,6.587,16.075,4.691,6.714-2.387,8.259-11.606,6.848-19.161-3.535-18.957-17.593-36.379-38.564-47.805-11.771-6.412-61.334-28.123-71.261-18.554-2.128,2.054-3.21,6.1-3.129,11.692.234,15.829,9.7,41.165,16.187,47.062" transform="translate(190.704 95.348)" fill="#fff"/>
  </g>
</svg>