<svg xmlns="http://www.w3.org/2000/svg" width="1921" height="1182" viewBox="0 0 1921 1182">
  <g transform="matrix(0.358, -0.934, 0.934, 0.358, -578.596, 944.308)" opacity="0.052">
    <path d="M79.789,1414.166c8.4-4.478,17.921-9.554,24.7-17.274,7.532-8.575,10.276-19.769,6.985-28.516-2.05-5.455-6.147-9.706-10.109-13.817-3.027-3.144-6.159-6.394-8.326-10.142-6.958-12.034-3.529-27.094.581-41.487,5.932-20.774,12.066-42.257,24.148-60.651,13.282-20.223,32.856-33.238,52.344-34.818,8.454-.683,17.044.666,25.351,1.972,4.816.757,9.8,1.539,14.728,1.926,7.914.624,27.393.623,37.3-12.8,7.829-10.6,6.551-27.388-2.977-39.042-9.8-11.991-25.1-16.891-36.206-18.889-8.863-1.6-17.993-2.03-26.821-2.449-4.688-.223-9.537-.454-14.28-.855-6.535-.554-13.321-1.558-18.679-5.125-5.02-3.34-9.019-9.993-6.958-16.246,2.833-8.592,13.8-10.327,24.792-11.366,24.091-2.281,40.327-7.139,49.642-14.852,3.275-2.713,6.509-5.452,9.734-8.186,11.936-10.115,24.279-20.574,38.119-28.867,22.458-13.456,45.432-20.111,66.441-19.239,3.434.143,6.925.488,10.3.822a133.393,133.393,0,0,0,14.332.895c12.1-.115,37.08-5.146,37.09-19.959,0-5.962-4.318-10.259-8.5-14.413a41.124,41.124,0,0,1-6.614-7.735c-5.768-9.746-1.328-21.929,4.325-33.644,5.99-12.407,12.779-26.47,24.542-35.372,11.143-8.43,25.417-11.242,39.225-13.959,3.519-.693,7.16-1.41,10.682-2.207,15.907-3.6,36.134-11.683,42.171-29.727a61.693,61.693,0,0,0,2.348-12.672,71.752,71.752,0,0,1,1.752-10.636c4.582-16.883,17.032-32.929,33.3-42.921,4.216-2.59,7.135-7.441,8.675-14.42.424-1.917.741-3.883,1.048-5.784a53.878,53.878,0,0,1,2.4-10.43c3.715-9.84,13.8-17.744,26.941-21.11,8.774-2.253,18.054-2.569,27.028-2.874,2.923-.1,5.943-.2,8.906-.37a194.97,194.97,0,0,0,45.208-7.984c2.315-.7,4.624-1.442,6.934-2.185,8.269-2.658,16.822-5.411,25.547-5.968,14.511-.924,28.639,4.2,42.3,9.151,6.211,2.252,12.633,4.58,19.045,6.332,5.543,1.512,12.652,2.848,18.446-.273,4.647-2.5,8.044-7.789,9.565-14.884,1.9-8.84.937-18.01.01-26.88l-.194-1.862c-.961-9.324-1.656-19.173,1.261-28.083,3.332-10.182,10.486-17.512,21.261-21.785,25.535-10.133,63.559-.593,81.218,9.039,1.91,1.042,3.828,2.165,5.683,3.251a89.443,89.443,0,0,0,14.241,7.233c8.269,3.025,16.416,2.833,22.344-.527,6.545-3.708,9.916-10.686,11.592-15.887a94.577,94.577,0,0,0,2.8-12.384c.4-2.245.817-4.566,1.315-6.82.635-2.862,1.434-5.826,2.206-8.692,2.959-10.984,6.02-22.343,1.45-32.656-3.046-6.875-8.958-11.809-14.674-16.581-1.048-.874-2.094-1.747-3.118-2.628a121.162,121.162,0,0,1-25.516-30.567c-7.37-12.548-9.491-23.35-6.307-32.106,3.965-10.9,15.674-17.077,24.138-20.774a174.68,174.68,0,0,1,31.44-10.3c2.208-.5,4.4-.849,6.511-1.189,6.148-.988,11.959-1.92,17.157-6.2l3.623-2.976c13.206-10.838,26.862-22.044,37.155-36.191,4.069-5.6,12.089-8.5,21.451-7.762a91.514,91.514,0,0,1,13.321,2.4c3.516.814,7.152,1.656,10.8,2.14,11.962,1.591,23.392-.8,32.183-6.728,9.753-6.578,15.748-17.785,15.272-28.551-.084-1.9-.358-3.834-.62-5.7-.577-4.107-1.123-7.986.128-11.666,1.9-5.585,7.346-8.985,12.617-12.274l.661-.413c18.438-11.54,30.1-24.829,34.672-39.5,2.409-7.743,2.861-15.955,3.3-23.9a139.884,139.884,0,0,1,1.615-16.862,69.227,69.227,0,0,1,21.467-38.525c3.717-3.406,10.658-9.767,16.833-11.389,4.35-1.155,9.346-.575,14.179-.014a60.9,60.9,0,0,0,9.781.616c8.853-.441,17.19-3.6,25.252-6.663l.14-.053c18.371-6.972,35.723-13.557,52.945-22.555l37.3-19.489c6.237-3.259,12.692-6.628,19.746-7.607l-.2-1.466c-7.317,1.014-14.177,4.6-20.228,7.76l-37.3,19.489c-17.142,8.958-34.456,15.528-52.785,22.484l-.138.052c-7.957,3.02-16.182,6.14-24.8,6.569a59.012,59.012,0,0,1-9.536-.607c-4.969-.577-10.109-1.174-14.729.053-5.775,1.534-11.789,6.538-17.454,11.728a70.72,70.72,0,0,0-21.924,39.356,140.888,140.888,0,0,0-1.636,17.042c-.432,7.852-.879,15.972-3.235,23.539-4.459,14.324-15.912,27.339-34.042,38.685l-.661.413c-5.234,3.267-11.167,6.969-13.235,13.053-1.364,4.014-.768,8.252-.191,12.349.258,1.834.524,3.73.605,5.561.455,10.263-5.284,20.963-14.619,27.259-8.489,5.724-19.556,8.031-31.161,6.488-3.578-.476-7.179-1.309-10.661-2.116a92.712,92.712,0,0,0-13.539-2.43c-9.881-.774-18.389,2.354-22.765,8.368-10.181,13.993-23.762,25.138-36.9,35.917l-3.625,2.979c-4.887,4.027-10.5,4.93-16.451,5.885-2.137.343-4.347.7-6.6,1.206a176.164,176.164,0,0,0-31.706,10.385c-8.714,3.806-20.779,10.189-24.937,21.625-3.343,9.191-1.182,20.416,6.421,33.363A122.657,122.657,0,0,0,923.74,586.98c1.03.887,2.08,1.763,3.134,2.643,5.587,4.663,11.363,9.484,14.269,16.043,4.358,9.835,1.367,20.936-1.526,31.672-.777,2.882-1.579,5.862-2.221,8.757-.506,2.283-.924,4.62-1.328,6.88a93.475,93.475,0,0,1-2.747,12.19c-1.6,4.951-4.783,11.58-10.913,15.052-5.556,3.141-13.246,3.3-21.106.426a88.366,88.366,0,0,1-14-7.121c-1.864-1.092-3.792-2.221-5.722-3.273-17.906-9.766-56.513-19.408-82.473-9.116-11.2,4.444-18.647,12.082-22.122,22.7-3.007,9.186-2.3,19.213-1.327,28.7l.194,1.865c.915,8.753,1.861,17.8.015,26.415-.826,3.859-3.073,10.8-8.819,13.891-5.333,2.871-12.078,1.588-17.353.147-6.355-1.735-12.748-4.053-18.932-6.3-13.806-5-28.081-10.18-42.9-9.236-8.909.565-17.55,3.347-25.906,6.035-2.3.741-4.6,1.481-6.908,2.177a193.472,193.472,0,0,1-44.864,7.924c-2.947.167-5.96.269-8.873.369-9.054.308-18.415.626-27.346,2.919-13.6,3.5-24.073,11.729-27.958,22.021a54.936,54.936,0,0,0-2.48,10.716c-.3,1.881-.619,3.827-1.032,5.7-1.449,6.572-4.144,11.107-8.006,13.479-16.584,10.184-29.278,26.556-33.955,43.795a72.851,72.851,0,0,0-1.8,10.856,60.723,60.723,0,0,1-2.279,12.369c-5.82,17.39-25.562,25.235-41.095,28.752-3.5.794-7.133,1.509-10.642,2.2-13.97,2.748-28.414,5.593-39.832,14.232-12.05,9.118-18.92,23.35-24.98,35.909-5.835,12.084-10.389,24.7-4.269,35.04a42.309,42.309,0,0,0,6.844,8.032c4.147,4.122,8.064,8.016,8.06,13.363-.009,13.57-24.466,18.373-35.624,18.479a132.4,132.4,0,0,1-14.171-.889c-3.4-.336-6.912-.682-10.389-.828-21.293-.885-44.552,5.838-67.262,19.449-13.944,8.355-26.333,18.855-38.313,29.008-3.223,2.73-6.452,5.467-9.723,8.174-9.079,7.517-25.052,12.266-48.839,14.518-9.035.857-22.686,2.149-26.057,12.378-2.293,6.956,2.058,14.29,7.542,17.941,5.638,3.753,12.644,4.8,19.376,5.367,4.772.4,9.633.636,14.333.86,8.783.416,17.864.848,26.63,2.426,10.863,1.955,25.807,6.729,35.322,18.369,9.114,11.148,10.373,27.152,2.932,37.228-9.467,12.817-28.325,12.8-35.994,12.2-4.876-.384-9.826-1.162-14.614-1.914-8.393-1.318-17.071-2.682-25.7-1.984-19.952,1.615-39.932,14.879-53.463,35.48-12.2,18.585-18.371,40.175-24.333,61.057-4.2,14.7-7.689,30.1-.44,42.634,2.257,3.906,5.453,7.222,8.544,10.43,4.034,4.187,7.844,8.14,9.787,13.309,3.1,8.243.466,18.849-6.714,27.018-6.6,7.518-15.589,12.31-24.282,16.946Z" transform="translate(101.81 0.001)" fill="#fff"/>
    <path d="M111.761,1419.247c2.777-6.141,8.482-10.435,14-14.588,5.821-4.384,11.84-8.915,14.646-15.686,2.463-5.946,2.259-13.242-.607-21.685-1.107-3.26-2.5-6.46-3.843-9.554A110.674,110.674,0,0,1,131.8,1347.2a55.488,55.488,0,0,1,1.834-38.029,110.883,110.883,0,0,1,8.956-15.853,120,120,0,0,0,8.6-15,120.05,120.05,0,0,0,5.262-15.109c1.732-5.8,3.524-11.794,6.3-17.231,3.563-6.97,8.774-13.089,13.815-19.006,1.495-1.754,2.988-3.508,4.444-5.284,5.734-7,12.487-16.434,13.824-27.313,1.738-14.143-7.533-23.27-15.615-28.437-6.987-4.468-14.55-8.382-21.862-12.168-6.414-3.319-13.048-6.752-19.257-10.541-9.2-5.613-21.379-14.486-20.911-26.676.215-5.571,3.32-11.351,8.52-15.86,4.671-4.047,10.385-6.753,16.322-9.393,21.808-9.7,47.627-19.36,73.784-17.392,4.405.332,8.913,1,13.271,1.641,10.051,1.483,20.445,3.017,30.463.6,11.966-2.9,21.714-10.93,31.153-18.712,1.676-1.385,3.35-2.764,5.03-4.111l2.495-2c32.128-25.785,68.544-55.015,108.669-44.883a7.185,7.185,0,0,0,6.435-1.56A13.879,13.879,0,0,0,418,994.211a40.434,40.434,0,0,0-1.517-8.533,35.783,35.783,0,0,1-1.478-8.967c.1-9.221,7.2-16.674,14.47-23.516l32.636-30.712c9.624-9.057,20.533-19.322,33.781-24.223a106.973,106.973,0,0,1,13.573-3.692c7.251-1.635,14.755-3.331,21.177-7.357,10.618-6.659,16.4-18.4,20.25-27.883,1.035-2.546,2.011-5.124,2.988-7.7,3.06-8.076,6.224-16.427,11.184-23.57a107.717,107.717,0,0,1,9.344-11.139,95.453,95.453,0,0,0,10.573-12.958c4.427-6.95,6.97-14.919,9.431-22.627,1.121-3.516,2.282-7.151,3.6-10.631.459-1.208.9-2.426,1.35-3.638,3.654-9.968,7.1-19.382,16.864-22.463a179.042,179.042,0,0,1,55.78-8.307c3.688.036,7.448.19,11.084.336,8.675.352,17.644.718,26.41-.454,8.608-1.148,17.123-3.786,25.361-6.336,12.307-3.812,25.037-7.757,37.906-6.554a99.2,99.2,0,0,1,12.174,2.177c3.258.724,6.627,1.471,10,1.933,6.411.879,15.463.864,22.187-4.188,9.321-7.005,10.518-20.422,11.393-30.219,2.054-23.013,17.6-48.242,46.891-49.247a125.05,125.05,0,0,0,16.489-2.045c8.435-1.43,17.157-2.909,25.926-1.471,5.765.945,11.566,2.276,17.177,3.565,5.793,1.329,11.783,2.7,17.766,3.664,13.143,2.1,22.3.4,28-5.229,7.173-7.083,6.8-18.609,3.243-26.888-3.2-7.458-8.7-13.632-14.021-19.6-.872-.979-1.743-1.956-2.6-2.936-12.4-14.153-20.591-27.494-25.047-40.786-4.852-14.472-8.322-29.865-.917-44.365,6.345-12.427,19.941-19.124,30.229-22.554,5.662-1.886,11.586-3.315,17.314-4.7a180.871,180.871,0,0,0,20.528-5.822c21.964-8.157,39.137-24.175,53.039-38.769,1.7-1.786,3.3-3.651,4.846-5.455,4.956-5.782,9.638-11.245,17.041-13.581a89.855,89.855,0,0,1,33.2-4.088c.8.054,1.606.121,2.411.184,4.21.339,8.563.688,12.73-.429,4.955-1.346,9.922-5.538,9.893-11.029-.02-3.878-2.422-7.083-4.745-10.182-2.4-3.2-4.661-6.22-4.318-9.781.55-5.732,7.171-8.461,13.575-10.376,2.805-.838,5.674-1.639,8.564-2.446,17.13-4.779,34.828-9.722,45.027-23.809,9.892-13.663,13.132-30.837,16.265-47.446a240.905,240.905,0,0,1,5.566-24.729c4.348-14.405,8.786-26.952,19.09-34.6,9.92-7.368,22.989-8.2,35.626-9l1.591-.1c26.46-1.706,47.054-5.55,64.8-12.1,20.35-7.506,39.064-21.661,52.694-39.86l-1.184-.887c-13.462,17.973-31.937,31.95-52.022,39.357-17.611,6.5-38.071,10.31-64.382,12.008l-1.591.1c-12.854.816-26.143,1.66-36.416,9.289-11.535,8.565-16.209,24.054-19.623,35.363a242.187,242.187,0,0,0-5.6,24.883c-3.1,16.448-6.311,33.457-16.009,46.852-9.9,13.668-27.343,18.533-44.226,23.251-2.9.809-5.776,1.612-8.59,2.453-6.474,1.936-13.987,5.01-14.626,11.654-.4,4.131,2.148,7.526,4.608,10.81,2.279,3.041,4.432,5.913,4.449,9.3.026,4.742-4.453,8.464-8.795,9.592-3.921,1.051-8.144.71-12.228.384-.812-.066-1.623-.132-2.43-.186a90.973,90.973,0,0,0-33.748,4.152c-7.808,2.464-12.622,8.081-17.72,14.029-1.534,1.789-3.121,3.641-4.794,5.4-13.785,14.47-30.8,30.35-52.483,38.4a179.462,179.462,0,0,1-20.359,5.77c-5.757,1.388-11.712,2.824-17.435,4.732-10.551,3.518-24.506,10.412-31.08,23.284-7.653,14.989-4.123,30.73.832,45.51,4.52,13.482,12.808,26.987,25.338,41.289q1.293,1.477,2.61,2.946c5.241,5.883,10.661,11.964,13.767,19.2,3.355,7.82,3.753,18.659-2.923,25.253-5.336,5.268-14.076,6.846-26.723,4.818-5.934-.951-11.9-2.321-17.669-3.644-5.632-1.294-11.457-2.632-17.268-3.585-9.013-1.477-17.859.023-26.414,1.474a123.979,123.979,0,0,1-16.292,2.025c-30.187,1.039-46.2,26.954-48.315,50.6-1.06,11.885-2.685,23.062-10.807,29.164-6.322,4.752-14.962,4.747-21.1,3.906-3.313-.453-6.652-1.2-9.881-1.911a100.31,100.31,0,0,0-12.357-2.206c-13.16-1.229-26.032,2.76-38.481,6.612-8.18,2.534-16.632,5.151-25.12,6.286-8.637,1.152-17.541.79-26.152.441-3.647-.149-7.419-.3-11.13-.339a180.428,180.428,0,0,0-56.241,8.378c-10.454,3.3-14.194,13.5-17.809,23.364-.442,1.208-.886,2.419-1.342,3.622-1.337,3.517-2.5,7.172-3.631,10.706-2.431,7.617-4.946,15.495-9.269,22.282a94.389,94.389,0,0,1-10.413,12.752,109.007,109.007,0,0,0-9.472,11.3c-5.064,7.292-8.261,15.729-11.351,23.89-.974,2.568-1.946,5.136-2.974,7.67-3.769,9.278-9.407,20.752-19.666,27.185-6.208,3.893-13.584,5.56-20.717,7.167a108.682,108.682,0,0,0-13.762,3.749c-13.529,5.005-24.554,15.379-34.282,24.534l-32.636,30.711c-7.5,7.061-14.833,14.774-14.934,24.579a36.808,36.808,0,0,0,1.523,9.346,39.363,39.363,0,0,1,1.473,8.216,12.313,12.313,0,0,1-4.119,9.479,5.808,5.808,0,0,1-5.144,1.277C366.42,994.7,329.7,1024.176,297.3,1050.179l-2.493,2c-1.685,1.35-3.364,2.734-5.047,4.123-9.308,7.675-18.935,15.623-30.556,18.413-9.741,2.349-19.989.835-29.9-.628-4.384-.647-8.919-1.317-13.377-1.652-26.482-1.99-52.519,7.738-74.495,17.514-6.043,2.688-11.868,5.448-16.69,9.629-5.509,4.777-8.8,10.944-9.03,16.92-.5,12.969,12.1,22.191,21.619,28,6.254,3.817,12.91,7.261,19.348,10.594,7.283,3.77,14.814,7.668,21.745,12.1,7.724,4.939,16.586,13.633,14.943,27.01-1.292,10.5-7.894,19.708-13.5,26.555-1.45,1.769-2.938,3.517-4.425,5.264-5.1,5.982-10.366,12.167-14.008,19.291-2.84,5.558-4.651,11.619-6.4,17.48a118.829,118.829,0,0,1-5.191,14.926,119.049,119.049,0,0,1-8.5,14.807,112.076,112.076,0,0,0-9.071,16.07,57,57,0,0,0-1.883,39.058,112.259,112.259,0,0,0,4.212,10.675c1.334,3.066,2.712,6.238,3.8,9.44,2.746,8.094,2.962,15.038.64,20.642-2.651,6.4-8.245,10.61-14.168,15.069-5.666,4.266-11.524,8.677-14.459,15.161Z" transform="translate(30.048 0.001)" fill="#fff"/>
    <path d="M296.461,746.056l.346-.1c12.42-3.6,23.02-12.089,32.373-19.577l40.9-32.749c9.894-7.922,21.11-16.9,26.381-29.616a83.8,83.8,0,0,0,3.229-10.185c1.76-6.5,3.423-12.64,7.683-17.383,5.72-6.368,14.162-8.191,23.106-10.121,7.441-1.6,15.131-3.266,21.195-7.782,4.45-3.314,9.74-5.658,14.856-7.925,7.051-3.124,14.344-6.356,19.569-12.183,9.115-10.165,19.308-19.777,32.075-21.214,11.372-1.285,21.55,4.008,32.326,9.612a135.383,135.383,0,0,0,15.549,7.268c24.884,9.1,56.464,1.045,78.573-20.054,13.416-12.8,24.02-30.163,31.515-51.6,7.152-20.455,9.43-38.936,7.862-63.789-1.027-16.276-.721-34.711,9.324-48.039,7.864-10.433,20.458-16.136,32.636-21.651,13.313-6.028,27.079-12.261,34.685-24.7,6.74-11.025,7.082-24.4,7.412-37.335q.05-1.935.1-3.854c.275-9.022,1.461-19.02,8.166-24.778,5.582-4.793,13.021-5.276,20.9-5.788a79.356,79.356,0,0,0,11.6-1.324c7.688-1.671,14.582-5.786,21.244-9.765,6.587-3.934,13.4-8,20.886-9.607,10.217-2.19,20.669-.237,30.227,5.648.842.519,1.687,1.049,2.535,1.582,6.455,4.053,13.13,8.246,20.784,8.556,8.718.352,17.951-4.861,24.091-13.606,5.515-7.855,8.174-17.133,10.745-26.106,5.71-19.93,11.614-40.539,12.263-61.719.205-6.7-.122-13.811-.439-20.694-1-21.75-2.034-44.241,12.435-61.326a54.86,54.86,0,0,1,39.463-19.086c12.506-.411,25.251,7.622,37.233,15.885,10.763,7.42,23.381,15.18,36.952,13.293,9.153-1.27,16.894-6.773,24.379-12.092,1.566-1.113,3.128-2.223,4.7-3.29,25.671-17.472,59.66-26.445,98.293-25.951,18.165.233,36.317,4.042,53.871,7.726,15.792,3.315,32.121,6.741,48.491,7.586l.076-1.478c-16.255-.839-32.527-4.254-48.263-7.557-17.623-3.7-35.847-7.523-54.156-7.757-38.938-.5-73.221,8.564-99.145,26.207-1.577,1.073-3.147,2.188-4.721,3.307-7.338,5.215-14.923,10.605-23.726,11.833-13.044,1.814-25.374-5.783-35.907-13.047-12.184-8.4-25.166-16.57-38.122-16.145a56.389,56.389,0,0,0-40.545,19.609c-14.843,17.528-13.8,40.315-12.782,62.351.33,7.17.641,13.943.437,20.581-.644,20.995-6.522,41.513-12.207,61.357-2.537,8.855-5.16,18.011-10.532,25.662-4.589,6.536-12.994,13.375-22.82,12.977-7.26-.294-13.765-4.38-20.057-8.33-.851-.535-1.7-1.068-2.546-1.589-9.889-6.089-20.717-8.107-31.313-5.835-7.724,1.665-14.645,5.788-21.335,9.784-6.56,3.918-13.339,7.969-20.8,9.59a78.415,78.415,0,0,1-11.377,1.293c-7.769.5-15.807,1.027-21.764,6.142-7.142,6.132-8.4,16.512-8.682,25.856q-.059,1.922-.1,3.862c-.326,12.74-.662,25.913-7.2,36.6-7.369,12.054-20.923,18.193-34.032,24.128C713,393.214,700.235,399,692.143,409.731c-10.335,13.713-10.662,32.477-9.618,49.024,1.554,24.64-.7,42.952-7.783,63.206-7.417,21.212-17.894,38.376-31.139,51.016-21.712,20.72-52.672,28.65-77.042,19.734a134.07,134.07,0,0,1-15.375-7.191c-10.5-5.46-21.356-11.1-33.175-9.77-13.265,1.5-23.7,11.314-33.011,21.7-5.014,5.59-11.84,8.615-19.066,11.817-5.191,2.3-10.558,4.679-15.141,8.092-5.808,4.326-13.338,5.949-20.624,7.522-8.777,1.894-17.855,3.853-23.894,10.579-4.5,5.006-6.283,11.6-8.011,17.986a82.843,82.843,0,0,1-3.167,10c-5.127,12.363-16.184,21.217-25.941,29.028l-40.9,32.749c-9.244,7.4-19.721,15.789-31.86,19.31-13.745,3.942-29.312,1.508-43.913-6.955-5.247-3.041-9.518-7.057-13.65-10.941-6.04-5.679-11.746-11.043-20.217-13.634-17.883-5.471-36.333-2.876-54.175-.366-12.278,1.726-24.973,3.511-37.342,2.638-8.294-.585-19.413-5.514-24.616-13.8-3.731-5.942-3.727-13.285-3.356-21.571.664-14.792,1.351-30.089,5.544-44.533,3.813-13.138,8.134-28.029,22.366-33.246,15.343-5.626,31.21-11.442,44.072-22.192,11.238-9.39,22.216-25.835,19.325-43.825-1.74-10.816-8.388-20.47-13.73-28.227l-1.032-1.5c-7.449-10.806-15.153-21.98-20.82-33.994-6.681-14.169-9.567-27.655-8.578-40.086.306-3.825.995-7.7,1.662-11.442.981-5.512,2-11.212,1.824-16.929-.279-9.257-3.624-18.077-6.86-26.607-1.014-2.671-2.061-5.432-2.994-8.156l-1.4.48c.941,2.746,1.993,5.519,3.01,8.2,3.192,8.416,6.493,17.118,6.764,26.127.167,5.563-.833,11.186-1.8,16.625-.673,3.779-1.369,7.688-1.679,11.583-1.011,12.691,1.92,26.431,8.714,40.835,5.718,12.124,13.456,23.349,20.941,34.2l1.03,1.5c5.258,7.634,11.8,17.135,13.486,27.622,2.795,17.378-7.885,33.324-18.809,42.454-12.667,10.585-28.409,16.356-43.632,21.938-14.937,5.475-19.369,20.748-23.281,34.224-4.241,14.614-4.932,30-5.6,44.878-.312,6.954-.7,15.608,3.581,22.426,5.464,8.705,17.1,13.879,25.765,14.491,12.524.884,25.3-.913,37.653-2.651,17.682-2.487,35.966-5.058,53.535.317,8.141,2.49,13.724,7.739,19.636,13.3,4.192,3.941,8.528,8.016,13.922,11.143,14.831,8.6,30.7,11.147,44.722,7.2" transform="translate(132.336 0.001)" fill="#fff"/>
    <path d="M119.981,1427.2c9.74-6.894,19.81-14.024,27.583-23.457,8.776-10.649,12.95-22.637,11.753-33.757-.556-5.166-2.276-10.181-3.939-15.031-2.06-6.009-4.191-12.222-3.982-18.561.35-10.631,6.978-19.795,13.387-28.656l1.516-2.1a257.6,257.6,0,0,0,27.413-48.538c5.519-12.854,16.192-44.995-3.818-65.8-4.47-4.648-9.99-8.263-15.327-11.76-6.734-4.411-13.7-8.972-18.328-15.555-4.806-6.829-6.734-15.293-8.6-23.479-.42-1.847-.841-3.692-1.292-5.515a143.91,143.91,0,0,0-16.712-40.185c-.55-.908-1.114-1.82-1.682-2.738-5.213-8.438-10.6-17.163-9.186-26.545a21.341,21.341,0,0,1,10.413-14.986,18.664,18.664,0,0,1,16.051-1.7,93.592,93.592,0,0,0,45.887,5.514,184.166,184.166,0,0,0,19.8-4.234c9.377-2.369,19.074-4.82,28.836-4.888,10.111-.072,20.195,2.413,29.949,4.817,9.568,2.357,19.462,4.793,29.468,4.863,22.833.159,45.875-11.4,70.439-35.324,5.631-5.483,11.135-11.313,16.46-16.952,12.8-13.552,26.036-27.567,41.9-37.714Q434,961.067,440,957.28c26.6-16.853,51.723-32.772,74.748-53.915,2.689-2.471,5.364-5.049,7.951-7.543,6.37-6.143,12.956-12.495,20.26-17.682,3.277-2.327,6.785-4.483,10.179-6.568,6.275-3.856,12.766-7.844,18.117-13.113,7.995-7.873,8.628-12.109,10.156-22.343l.04-.263c1.3-8.7,5.245-17.7,11.727-26.758a203.391,203.391,0,0,1,22.308-25.588c5.04-5.005,7.165-9.714,9.626-15.167.7-1.557,1.442-3.2,2.3-4.951A69.93,69.93,0,0,1,667.634,727.6c13.836-4.626,28.825-4.719,43.317-4.806,10.543-.063,21.444-.128,31.954-1.915,9.726-1.652,19.389-4.816,28.735-7.874,15.779-5.165,32.091-10.5,48.565-8.357,2.766.36,5.562.941,8.265,1.5a86.148,86.148,0,0,0,11.1,1.8c4.593.338,13.141.051,18.784-5.674,5.113-5.187,5.861-12.593,6.583-19.755.45-4.456.915-9.065,2.414-13.136,5.978-16.226,16.252-27.789,30.539-34.367,8.727-4.019,18.431-5.742,27.816-7.411,4.689-.833,9.539-1.7,14.234-2.834,10.241-2.484,28.383-9,34.666-24.661,3.519-8.772,2.99-19.543-1.619-32.929-.979-2.842-2.01-5.636-3.036-8.413-3.708-10.045-7.21-19.534-7.985-30.306-.9-12.472,8.351-24.989,16.509-34.5,17.033-19.86,40.333-32.482,62.974-43.164,4.644-2.191,9.321-4.33,14-6.47,18.52-8.471,37.671-17.231,54.491-29.267,11.972-8.567,19.552-16.827,23.855-26a90.324,90.324,0,0,0,3.629-9.554c1.67-4.954,3.4-10.077,6.42-14.355a27.351,27.351,0,0,1,18.04-11.08,123.755,123.755,0,0,1,15.779-1.019c9.992-.208,19.433-.4,29.851-5.717,14.768-7.529,26.3-20.291,31.632-35.013a85.529,85.529,0,0,0,3.464-15.245c1-6.111,2.042-12.429,4.606-17.9,1.649-3.518,3.661-6.961,5.608-10.291,2.1-3.592,4.269-7.307,6.065-11.227,6.43-14.043,17.147-33.895,35.9-44.136,12.3-6.72,26.641-8.628,40.508-10.47,5.55-.738,11.288-1.5,16.835-2.561a145.7,145.7,0,0,0,64.045-29.73c9.668-7.822,15.862-15.141,19.493-23.032,4.649-10.1,4.562-21.459-.226-29.639-5.265-9-15.766-14.777-31.213-17.188-18.833-2.941-38.033-1.172-56.6.539-22.444,2.066-45.654,4.207-66.82,13.406-6.458,2.808-12.783,6.311-18.9,9.7-12.077,6.689-24.564,13.6-38.311,15.2-9.5,1.1-19.464-.362-29.1-1.776-14.255-2.093-29-4.253-42.033,2.084-8.741,4.251-10.289,12.8-11.927,21.851-.338,1.868-.688,3.8-1.1,5.709-1.245,5.705-2.017,11.579-2.764,17.26-.705,5.355-1.433,10.893-2.555,16.252-2.649,12.665-7.607,24.924-12.4,36.78-4.566,11.292-9.288,22.968-12.045,35.037-.718,3.137-1.33,6.394-1.923,9.543-2.057,10.936-4.185,22.246-11.082,30.822-12.527,15.577-37.3,15.67-52.588,5.984a101.837,101.837,0,0,1-8.7-6.436c-4.074-3.241-8.285-6.592-13.081-8.893-11.623-5.575-27.054-4.719-41.283,2.3-12.809,6.314-23.252,16.235-33.351,25.829-6.252,5.938-8.423,13.924-10.523,21.649-1.54,5.665-3.133,11.523-6.311,16.708-8.455,13.792-19.091,24.087-30.757,29.769a83.385,83.385,0,0,1-10.89,4.073c-7.3,2.353-14.853,4.786-20.119,10.862-9.961,11.492-15.764,23.7-17.246,36.292-1.354,11.492-.064,23.2,1.184,34.514.288,2.605.575,5.207.83,7.807,1.284,13.033,1.893,28.146-3.321,41.422-5.088,12.956-15.222,23.2-24.464,31.514-31.623,28.447-66.2,53.145-104.715,41.35-3.528-1.08-7.121-2.307-10.6-3.493-12.307-4.2-25.033-8.549-38.125-7.575-14.422,1.076-27.614,8.523-39.253,15.1-22.807,12.876-48.657,27.471-66.838,48.977-4.325,5.116-8.283,10.692-12.109,16.085-6.736,9.494-13.7,19.31-22.8,26.726-5.371,4.377-11.511,7.929-17.447,11.364-6,3.469-12.2,7.056-17.666,11.516A132.576,132.576,0,0,0,484.625,738.2a130.076,130.076,0,0,1-11.868,11.433A64.978,64.978,0,0,1,440.1,763.49c-15.815,1.922-27.514-4.83-41.061-12.648q-2.133-1.231-4.333-2.488c-2.41-1.37-4.83-2.8-7.266-4.236-14.835-8.759-30.174-17.815-47.09-16.007-6.689.715-13.054,3.154-19.207,5.512a108.763,108.763,0,0,1-13.468,4.5c-21.9,5.207-44.392-3.8-67.436-14.3-7.56-3.447-14.584-7.1-17.47-13.836-2.712-6.335-.894-13.626,1.475-20.56,1.235-3.611,2.6-7.3,3.914-10.878,6.111-16.572,12.429-33.709,9.478-51.105-3.336-19.662,10.372-33.988,22.687-44.272,6.219-5.192,14.006-8.268,21.538-11.242,1.793-.708,3.584-1.416,5.354-2.15,8.468-3.512,18.862-8.772,24.1-18.35,8.439-15.432-.527-33.815-4.774-41-2.67-4.518-5.749-8.886-8.726-13.111-5.053-7.168-10.278-14.582-13.532-22.808-6.649-16.814-4.7-35.537-2.816-53.643.543-5.221,1.105-10.619,1.45-15.879.178-2.734.468-5.482.749-8.14,1.018-9.646,1.978-18.757-1.772-28.164-.966-2.424-2.075-4.835-3.148-7.167-2.263-4.922-4.6-10.011-5.648-15.355-2.2-11.228,1.29-22.618,5.383-33.255l-1.382-.531c-4.173,10.843-7.722,22.475-5.453,34.07,1.077,5.518,3.455,10.689,5.756,15.69,1.063,2.315,2.165,4.709,3.117,7.1,3.614,9.068,2.673,18,1.675,27.461-.282,2.672-.575,5.436-.756,8.2-.342,5.232-.9,10.615-1.445,15.822-1.9,18.284-3.869,37.19,2.914,54.34,3.319,8.392,8.595,15.878,13.7,23.118,2.961,4.2,6.023,8.545,8.662,13.01,4.118,6.97,12.825,24.773,4.749,39.539C305,559.884,294.89,564.985,286.645,568.4c-1.762.731-3.545,1.435-5.331,2.14-7.64,3.018-15.541,6.138-21.942,11.483-12.619,10.538-26.66,25.251-23.2,45.656,2.886,17.008-3.363,33.955-9.406,50.345-1.321,3.582-2.687,7.285-3.926,10.911-2.466,7.215-4.345,14.827-1.436,21.623,3.094,7.222,10.383,11.027,18.217,14.6,23.288,10.619,46.042,19.712,68.393,14.4a109.573,109.573,0,0,0,13.654-4.553c6.067-2.326,12.34-4.732,18.834-5.423,16.43-1.756,31.554,7.174,46.181,15.81,2.442,1.441,4.87,2.874,7.288,4.248q2.2,1.251,4.325,2.484c13.776,7.95,25.672,14.816,41.98,12.834a66.475,66.475,0,0,0,33.414-14.173,131.355,131.355,0,0,0,12-11.561,131.836,131.836,0,0,1,11.729-11.32c5.376-4.385,11.524-7.942,17.47-11.382,5.986-3.463,12.179-7.045,17.642-11.5,9.255-7.543,16.28-17.443,23.073-27.017,3.81-5.368,7.748-10.918,12.034-15.987,18.008-21.3,42.625-35.2,66.433-48.642,11.507-6.5,24.549-13.859,38.636-14.908,12.79-.952,25.371,3.344,37.537,7.5,3.485,1.19,7.089,2.421,10.64,3.508,39.224,12.009,74.193-12.927,106.139-41.665,9.37-8.429,19.651-18.83,24.851-32.074,5.329-13.568,4.718-28.9,3.417-42.108-.257-2.6-.544-5.214-.832-7.824-1.239-11.236-2.52-22.855-1.186-34.179,1.447-12.289,7.131-24.231,16.895-35.5,5-5.763,12.018-8.026,19.455-10.421a84.763,84.763,0,0,0,11.083-4.151c11.92-5.807,22.768-16.293,31.371-30.327,3.29-5.366,4.91-11.328,6.478-17.094,2.141-7.874,4.162-15.311,10.114-20.964,10.019-9.517,20.379-19.359,32.987-25.574,13.819-6.81,28.77-7.67,39.986-2.288,4.646,2.228,8.791,5.526,12.8,8.715a103.046,103.046,0,0,0,8.836,6.529c18.065,11.449,42.529,8.62,54.534-6.307,7.13-8.866,9.292-20.36,11.383-31.477.591-3.135,1.2-6.377,1.911-9.487,2.731-11.953,7.43-23.574,11.975-34.811,4.819-11.917,9.8-24.238,12.479-37.031,1.132-5.415,1.864-10.98,2.573-16.363.742-5.65,1.511-11.493,2.743-17.137.422-1.935.775-3.881,1.115-5.761,1.637-9.047,3.052-16.86,11.117-20.783,12.629-6.14,26.493-4.1,41.171-1.952,9.731,1.429,19.794,2.906,29.486,1.783,14.037-1.626,26.655-8.615,38.857-15.374,6.086-3.371,12.379-6.857,18.772-9.636,20.949-9.109,44.039-11.234,66.367-13.29,18.478-1.7,37.585-3.462,56.237-.551,14.986,2.34,25.134,7.882,30.163,16.473,4.548,7.77,4.609,18.6.16,28.273-3.533,7.676-9.6,14.826-19.081,22.5a144.175,144.175,0,0,1-63.39,29.427c-5.507,1.053-11.224,1.812-16.753,2.547-14,1.86-28.475,3.782-41.024,10.639-19.135,10.452-30.013,30.584-36.531,44.818-1.765,3.854-3.917,7.537-6,11.1-1.962,3.358-3.992,6.831-5.67,10.409-2.651,5.653-3.706,12.075-4.726,18.285a84.423,84.423,0,0,1-3.4,14.98c-5.209,14.373-16.476,26.838-30.911,34.2-10.119,5.16-19.393,5.351-29.21,5.555a125.2,125.2,0,0,0-15.965,1.035,28.884,28.884,0,0,0-19.034,11.691c-3.148,4.454-4.909,9.681-6.613,14.736a89.729,89.729,0,0,1-3.566,9.4c-4.191,8.93-11.619,17.007-23.377,25.421-16.7,11.952-35.789,20.682-54.246,29.124-4.684,2.142-9.367,4.284-14.015,6.477-22.79,10.752-46.253,23.468-63.466,43.538-8.862,10.331-17.795,22.635-16.863,35.571.79,10.981,4.328,20.564,8.074,30.712,1.021,2.767,2.049,5.55,3.024,8.382,4.488,13.035,5.026,23.469,1.645,31.9-6.037,15.049-23.68,21.352-33.641,23.774-4.65,1.127-9.477,1.985-14.144,2.815-9.477,1.683-19.276,3.425-28.176,7.524-14.657,6.747-25.191,18.591-31.309,35.2-1.564,4.247-2.039,8.95-2.5,13.5-.728,7.224-1.417,14.048-6.164,18.863-5.226,5.3-13.283,5.557-17.621,5.238a85.173,85.173,0,0,1-10.91-1.774c-2.73-.567-5.552-1.153-8.375-1.52-16.807-2.191-33.285,3.2-49.215,8.417-9.294,3.044-18.9,6.19-28.523,7.823-10.391,1.766-21.232,1.831-31.716,1.894-14.608.086-29.715.174-43.778,4.882a71.409,71.409,0,0,0-41.088,36.541c-.861,1.769-1.606,3.421-2.314,4.991-2.5,5.537-4.475,9.912-9.321,14.725a204.759,204.759,0,0,0-22.469,25.777c-6.619,9.252-10.651,18.471-11.986,27.4l-.039.262c-1.477,9.888-2.089,13.98-9.732,21.507-5.231,5.151-11.648,9.094-17.854,12.907-3.413,2.1-6.943,4.266-10.26,6.622-7.394,5.252-14.021,11.643-20.432,17.823-2.58,2.488-5.247,5.06-7.924,7.518-22.927,21.054-48,36.938-74.538,53.755q-5.994,3.8-12.026,7.643C411.16,973.916,397.86,988,385,1001.617c-5.314,5.627-10.81,11.445-16.416,16.907-24.271,23.642-46.97,35.058-69.4,34.9-9.831-.068-19.638-2.484-29.124-4.82-9.84-2.425-20.017-4.932-30.314-4.86-9.938.07-19.724,2.542-29.187,4.933a182.7,182.7,0,0,1-19.644,4.2,92.1,92.1,0,0,1-45.157-5.43,20.129,20.129,0,0,0-17.324,1.81,22.834,22.834,0,0,0-11.132,16.043c-1.5,9.92,4.039,18.878,9.392,27.543.565.916,1.127,1.826,1.676,2.728a142.376,142.376,0,0,1,16.539,39.772c.45,1.816.868,3.652,1.287,5.49,1.9,8.326,3.858,16.935,8.831,24,4.794,6.814,11.878,11.454,18.728,15.941,5.268,3.452,10.715,7.021,15.073,11.55,19.394,20.162,8.924,51.6,3.523,64.185a256.171,256.171,0,0,1-27.255,48.259l-1.514,2.1c-6.54,9.042-13.3,18.392-13.667,29.475-.218,6.611,1.958,12.954,4.062,19.09,1.637,4.772,3.328,9.708,3.867,14.71,1.155,10.719-2.9,22.317-11.424,32.656-7.648,9.281-17.636,16.354-27.294,23.192Z" transform="translate(-19.298 0.001)" fill="#fff"/>
    <path d="M471.107,1416.232c16.306-4.915,22.355-25.493,21.075-42.53-.389-5.171-1.194-10.433-1.972-15.521-1.738-11.361-3.533-23.111-.7-34.246,3.88-15.247,15.633-26.868,27-38.105,2.256-2.231,4.5-4.452,6.679-6.691,12.39-12.744,25.9-32.008,19.876-51.414-3.1-10-10.818-17.533-18.279-24.819-1.391-1.358-2.777-2.712-4.127-4.074-20.062-20.253-34.051-45.6-47.58-70.1-10.067-18.239-21.477-38.911-22.024-61.259-.512-20.8,12.405-45.362,34.167-48.773,11.552-1.813,23.034,2.447,34.136,6.567,3.109,1.153,6.323,2.345,9.484,3.383,40.178,13.194,83.682,4.692,122.063-2.809,4.523-.883,9.538-2.176,11.707-6.364,4.044-7.793-5.748-15.326-10.144-18.2a382.081,382.081,0,0,1-68.981-57.8c-5.438-5.777-11.408-13.412-9.3-21.24,2.32-8.6,12.758-11.858,21.6-13.734,8.884-1.886,18.363-3.267,28.4-4.728,19.328-2.817,39.314-5.725,55.749-12.56,5.824-2.422,11.117-6.049,16.236-9.557,10.406-7.129,20.233-13.865,34.106-11.186,14.187,2.74,22.84,14.574,32,27.1,7.635,10.441,15.53,21.238,27,26.538,10.532,4.865,24.082,4.673,37.186-.534,11.962-4.753,22.2-12.724,31.659-20.481,21.6-17.715,39.36-34.719,54.291-51.982,11.319-13.087,19.931-27.453,28.258-41.346,4.051-6.757,8.241-13.744,12.73-20.584,18.97-28.9,44.945-68.518,86.063-79.446,12.654-3.377,26.039-4,38.982-4.6,5.749-.268,11.694-.545,17.512-1.059,24.67-2.178,48.9-8.762,72.341-15.129,12.483-3.392,26.632-7.235,37.562-15.941,9.21-7.335,15.491-17.56,21.564-27.449,2.691-4.38,5.473-8.908,8.468-13.118,10.075-14.156,30.376-26.149,46.213-27.3,14.215-1.036,23.623-14.608,26.348-26.78,2.341-10.453,1.289-21.328.271-31.846-.244-2.516-.488-5.029-.686-7.534-.912-11.54-.974-26.228,6.719-37.468,5.556-8.115,13.99-13.014,22.919-18.2,7.151-4.154,14.546-8.449,20.221-14.534,4.561-4.89,7.876-10.8,11.082-16.512a123.013,123.013,0,0,1,6.968-11.429c13.736-19.211,32.551-24.443,52.491-29.989,7.45-2.074,15.168-4.219,22.749-7.154,10.658-4.127,23.141-17.843,24.012-30.929.365-5.491-1.2-13.137-10.748-18.38-6-3.294-14.045-4.011-21.827-4.7a101.433,101.433,0,0,1-11.655-1.469,93.279,93.279,0,0,1-12.519-4.275c-8.129-3.159-16.535-6.425-22.118-5.761-4.414.526-9.094.841-13.621,1.144-15.415,1.037-31.357,2.11-43.615,11.386-12.6,9.536-22.3,22.406-31.686,34.852q-1.887,2.5-3.771,4.984c-8.614,11.308-19.775,18.671-31.591,26.466-7.408,4.886-15.068,9.939-22.038,16.055-13.764,12.076-14.444,32.544-12.59,47.588.56,4.544,1.342,9.161,2.1,13.626,2.024,11.954,4.118,24.316,2.1,36.315-2.6,15.523-12.4,30.866-27.586,43.2-13.7,11.131-29.927,18.8-45.62,26.218-24.785,11.715-52.875,24.994-82.268,25.349-6.323.077-12.773-.45-19.011-.959-9.412-.768-19.142-1.563-28.678-.311-18.829,2.472-33.806,12.882-48.292,22.95-7.236,5.029-14.716,10.228-22.595,14.386-11.221,5.92-19.412,15.655-27.333,25.07-8.314,9.88-16.91,20.1-28.987,25.808-21.141,10-37.2,19.756-51.932,37.489-17.354,20.891-34.29,32.473-50.321,34.4-18.63,2.251-35.364-9.072-51.548-20.022-16.479-11.152-33.521-22.684-52.779-20.185-6.9.894-13.417,3.607-19.714,6.23a126.309,126.309,0,0,1-12,4.524c-19.631,5.942-40.837,1.7-59.563-1.993-17.242-3.405-34.852-7.85-44.16-21.245-11.024-15.869-6.168-39.014-.7-57.406,2.342-7.884,4.933-15.784,7.44-23.424,4.015-12.235,8.165-24.886,11.42-37.86,6.7-26.687,18.076-43.858,33.826-51.036a97.253,97.253,0,0,1,9.142-3.423c8.049-2.712,16.373-5.517,20.513-12.91,3.288-5.874,3.1-13.842-.517-21.861a84.638,84.638,0,0,0-7.282-12.251c-1.434-2.13-2.917-4.333-4.255-6.558-13.817-23.006-14.347-52.52-14.774-76.234-.627-34.929-1.277-71.048,4.022-106.2l-1.466-.221c-5.314,35.272-4.664,71.454-4.035,106.444.428,23.892.963,53.625,14.984,76.97,1.357,2.258,2.851,4.477,4.3,6.623a83.534,83.534,0,0,1,7.16,12.033c3.421,7.586,3.631,15.068.574,20.528-3.862,6.9-11.552,9.487-19.693,12.231a98.076,98.076,0,0,0-9.284,3.479c-16.18,7.374-27.837,24.877-34.647,52.023-3.243,12.922-7.385,25.548-11.392,37.759-2.51,7.649-5.1,15.559-7.452,23.463-5.559,18.71-10.478,42.287.907,58.672,9.622,13.85,27.551,18.39,45.089,21.853,18.9,3.732,40.329,7.987,60.277,1.959a127.07,127.07,0,0,0,12.14-4.575c6.211-2.586,12.63-5.258,19.337-6.129,18.7-2.427,35.506,8.945,51.759,19.943,16.409,11.1,33.375,22.584,52.554,20.267,16.423-1.984,33.678-13.736,51.282-34.927,14.621-17.6,29.928-26.931,51.427-37.1,12.37-5.85,21.072-16.192,29.487-26.194,7.83-9.306,15.926-18.928,26.89-24.714,7.961-4.2,15.478-9.426,22.749-14.479,14.34-9.967,29.173-20.27,47.639-22.7,9.382-1.231,19.033-.443,28.366.319,6.272.512,12.758,1.041,19.15.963,29.716-.361,57.962-13.71,82.883-25.49,15.772-7.455,32.08-15.163,45.921-26.408,15.464-12.563,25.447-28.227,28.112-44.105,2.055-12.247-.06-24.733-2.1-36.808-.753-4.449-1.532-9.049-2.088-13.56-1.81-14.689-1.181-34.645,12.1-46.294,6.894-6.049,14.511-11.073,21.877-15.932,11.4-7.521,23.187-15.3,31.954-26.806q1.889-2.478,3.775-4.989c9.323-12.365,18.963-25.151,31.4-34.561,11.906-9.014,27.623-10.068,42.823-11.09,4.543-.306,9.243-.621,13.695-1.151,5.217-.621,13.818,2.721,21.407,5.671a94.234,94.234,0,0,0,12.746,4.342,102.59,102.59,0,0,0,11.833,1.5c7.629.68,15.52,1.383,21.245,4.528,7.014,3.853,10.467,9.726,9.984,16.984-.834,12.53-12.827,25.681-23.07,29.647-7.513,2.908-15.189,5.037-22.61,7.107-20.193,5.617-39.259,10.918-53.3,30.555a124.4,124.4,0,0,0-7.055,11.565c-3.163,5.638-6.434,11.467-10.873,16.228-5.526,5.924-12.825,10.164-19.883,14.263-8.678,5.041-17.652,10.254-23.4,18.645-7.955,11.622-7.9,26.638-6.972,38.421.2,2.513.442,5.035.687,7.56,1.007,10.4,2.048,21.157-.241,31.38-2.61,11.655-11.548,24.646-25.012,25.627-16.224,1.182-37.01,13.448-47.311,27.921-3.025,4.25-5.82,8.8-8.523,13.2-6.007,9.78-12.219,19.893-21.226,27.066-10.689,8.514-24.68,12.315-37.026,15.67-23.376,6.35-47.546,12.917-72.084,15.084-5.787.511-11.717.786-17.452,1.054-13.02.6-26.485,1.232-39.294,4.65-.391.105-.787.213-1.177.323-40.979,11.549-66.821,50.918-85.742,79.741-4.507,6.865-8.7,13.866-12.761,20.636-8.678,14.476-16.874,28.148-28.109,41.138-14.876,17.2-32.575,34.145-54.11,51.806-9.369,7.683-19.5,15.575-31.267,20.25-12.731,5.051-25.853,5.261-36.017.566-11.124-5.139-18.9-15.778-26.427-26.068-8.927-12.208-18.159-24.832-32.916-27.682-14.479-2.8-25.024,4.429-35.224,11.419-5.056,3.465-10.286,7.049-15.967,9.41-16.263,6.764-36.154,9.66-55.394,12.462-10.06,1.465-19.562,2.849-28.493,4.745-9.252,1.962-20.188,5.42-22.719,14.8-2.3,8.535,3.946,16.582,9.648,22.64a383.639,383.639,0,0,0,69.248,58.029c4.061,2.656,13.128,9.562,9.642,16.283-1.866,3.6-6.486,4.77-10.677,5.592-38.205,7.466-81.507,15.928-121.318,2.855-3.133-1.029-6.334-2.216-9.43-3.365-11.281-4.185-22.946-8.513-34.881-6.641-22.865,3.593-35.956,28.378-35.419,50.272.556,22.71,12.06,43.551,22.208,61.94,13.577,24.6,27.618,50.029,47.824,70.43,1.357,1.369,2.748,2.727,4.144,4.091,7.331,7.156,14.91,14.556,17.9,24.2,5.806,18.712-7.413,37.489-19.524,49.945-2.17,2.232-4.409,4.445-6.656,6.668-11.51,11.381-23.411,23.149-27.392,38.794-2.908,11.427-1.089,23.327.67,34.834.774,5.061,1.575,10.294,1.958,15.408,1.239,16.468-4.5,36.322-20.024,41Z" transform="translate(-387.951 0.001)" fill="#fff"/>
    <path d="M736.125,1404.269c16.366-13.013,19.1-36.281,20.372-57.07,1.32-21.537,3.871-43.635,18.979-56.454,4.8-4.073,10.62-6.9,16.251-9.632a96.693,96.693,0,0,0,13.6-7.537c7.71-5.434,16.017-15.941,14.06-27.671-1.7-10.207-10.1-17.1-18.224-23.775-1.214-1-2.421-1.989-3.592-2.982-19.307-16.361-32.558-38.816-44.247-58.627-13.928-23.6-31.263-52.975-34.521-84.6-2.861-27.785,7.692-63.678,37.624-76.832,22.7-9.972,48.2-3.492,72.869,2.775,5.161,1.311,10.5,2.667,15.675,3.832,10.757,2.42,23.529,1.688,27.11-7.623,4.45-11.563-10.143-21.135-14.72-23.794-9.091-5.278-18.232-11.886-17.083-20.869.783-6.128-.663-10.131-2.2-14.368a39.021,39.021,0,0,1-2.681-10.9c-.914-11.543,2.737-22.106,9.766-28.257,9.1-7.971,22.147-8.236,34.756-8.494l2.7-.058a239.983,239.983,0,0,0,97.258-23.309c2.115-1.014,4.246-2.063,6.39-3.119,16.5-8.122,33.561-16.525,50.811-12.351,15.436,3.735,26.43,16.556,37.062,28.956,1.02,1.19,2.036,2.375,3.051,3.544,15.948,18.4,30.7,26.589,45.085,25.042,16.034-1.726,27.627-14.982,38.123-28.412l68.762-87.974c8.09-10.35,14.169-20.477,20.048-30.271,10.185-16.963,19.8-32.986,38.1-46.682a168.558,168.558,0,0,1,100.538-33.41c2.35,0,4.725.05,7.107.1,12.334.242,25.082.5,35.933-5.417a70.9,70.9,0,0,0,8.768-5.98c5.045-3.825,9.809-7.443,16.04-8.468a72.735,72.735,0,0,1,12.108-.644c6.073.016,12.348.038,18.795-2.289,10.726-3.869,18.6-11.529,21.054-20.492,2.3-8.392.789-15.139-4.371-19.513-8.832-7.487-27.165-6.793-38.742-1.452-7.957,3.671-15.14,8.924-22.086,14-2.225,1.628-4.45,3.255-6.7,4.833-8.079,5.665-18.877,12.317-30.738,13.485-10.979,1.079-20.292-3.007-29.3-6.959-6.538-2.868-13.3-5.835-20.713-6.88-13.681-1.928-31.306,5.69-45.132,12.545-28.021,13.891-50.966,35.488-75.93,60.214l-61.9,61.307c-18.521,18.342-38.638,36.2-62.946,35.5-16.5-.471-31.326-9.726-45.665-18.677-15.43-9.632-31.386-19.592-49.439-18.571-8.826.5-17.329,3.669-25.551,6.733-9.536,3.554-19.39,7.225-29.512,6.535-8.9-.608-17.261-4.558-25.348-8.377-7.815-3.69-15.9-7.507-24.585-8.427-8.331-.882-16.893.915-25.174,2.652-11.681,2.452-22.714,4.767-32.935.091-10.192-4.662-17.5-16.581-18.609-30.366-1.023-12.7,2.471-25.159,5.849-37.212l24.3-86.708c8.043-28.7,16.31-53.758,36.071-69.862.955-.779,1.949-1.554,2.95-2.335,5.968-4.659,12.141-9.476,13.1-16.872.8-6.185-2.452-11.775-5.6-17.18l-.8-1.379a112.614,112.614,0,0,1-10.9-85.505c4.942-17.95,4.623-36.148,4.315-53.747-.236-13.5-.48-27.461,1.606-41.408l-1.465-.219c-2.1,14.068-1.858,28.091-1.622,41.653.307,17.494.623,35.584-4.261,53.329A114.1,114.1,0,0,0,906.88,508.02l.8,1.385c3.021,5.191,6.142,10.56,5.407,16.245-.879,6.793-6.807,11.42-12.54,15.894-1.01.788-2.011,1.57-2.976,2.356-20.1,16.378-28.448,41.667-36.56,70.609l-24.3,86.709c-3.255,11.611-6.945,24.771-5.9,37.73.919,11.389,6.514,25.669,19.469,31.594,10.663,4.878,22.453,2.4,33.855.011,8.168-1.714,16.615-3.487,24.713-2.629,8.44.894,16.406,4.656,24.109,8.294,8.212,3.878,16.7,7.888,25.879,8.514,10.44.714,20.449-3.015,30.13-6.624,8.116-3.024,16.514-6.155,25.117-6.641,17.585-.994,33.338,8.838,48.572,18.348,14.506,9.056,29.508,18.419,46.406,18.9,24.9.71,45.283-17.359,64.031-35.925l61.9-61.308c24.872-24.633,47.723-46.147,75.545-59.94,13.635-6.759,30.988-14.277,44.27-12.406,7.211,1.017,13.878,3.943,20.323,6.771,9.18,4.028,18.672,8.194,30.036,7.076,12.2-1.2,23.215-7.976,31.443-13.746,2.259-1.584,4.493-3.217,6.726-4.85,6.886-5.037,14.007-10.245,21.83-13.854,11.171-5.152,28.765-5.884,37.166,1.237,4.756,4.031,6.068,10.084,3.9,17.99-2.329,8.5-9.854,15.787-20.126,19.492-6.2,2.233-12.345,2.218-18.29,2.2a73.888,73.888,0,0,0-12.353.663c-6.6,1.1-11.729,4.986-16.693,8.75a69.815,69.815,0,0,1-8.582,5.86c-10.505,5.724-23.056,5.475-35.2,5.237-2.393-.047-4.776-.093-7.135-.095a170.025,170.025,0,0,0-101.425,33.7c-18.528,13.869-28.22,30.013-38.482,47.1-5.857,9.755-11.913,19.843-19.947,30.121l-68.761,87.974c-10.3,13.181-21.647,26.188-37.115,27.852-13.87,1.491-28.2-6.535-43.809-24.54-1.011-1.167-2.025-2.35-3.044-3.538-10.784-12.578-21.937-25.583-37.838-29.432-17.773-4.3-35.076,4.222-51.812,12.463-2.14,1.053-4.266,2.1-6.378,3.112a238.529,238.529,0,0,1-96.652,23.164l-2.7.058c-12.873.263-26.188.534-35.7,8.859-7.38,6.459-11.218,17.482-10.266,29.489a40.183,40.183,0,0,0,2.764,11.281c1.469,4.065,2.858,7.9,2.12,13.677-1.258,9.841,8.3,16.815,17.807,22.338,8.907,5.172,17.283,13.663,14.083,21.982-3.245,8.433-15.253,8.994-25.4,6.709-5.158-1.16-10.485-2.513-15.637-3.822-24.913-6.328-50.687-12.866-73.828-2.7-30.612,13.451-41.417,50.038-38.5,78.337,3.291,31.953,20.715,61.481,34.718,85.207,11.749,19.911,25.068,42.481,44.563,59,1.179,1,2.391,1.995,3.612,3,7.912,6.5,16.092,13.217,17.7,22.876,1.844,11.052-6.094,21.03-13.452,26.216a95.649,95.649,0,0,1-13.4,7.416c-5.714,2.773-11.622,5.641-16.564,9.834-15.551,13.2-18.158,35.638-19.5,57.492-1.256,20.472-3.926,43.368-19.816,56Z" transform="translate(-688.731 0.001)" fill="#fff"/>
    <path d="M1201.178,1401.651c10.566-7.043,17.957-19.377,21.969-36.656,1.494-6.445,2.47-13.093,3.414-19.522a202.418,202.418,0,0,1,4.281-22.968,101.445,101.445,0,0,1,41.664-57.721l1.017-.667c4.516-2.948,9.183-5.995,10.9-11.1,2.049-6.081-1.147-12.331-4.82-16.151-3.081-3.206-6.912-5.559-10.618-7.833-1.1-.675-2.2-1.348-3.276-2.045-13.511-8.712-24.264-21.025-34.662-32.932-10.919-12.5-22.211-25.432-29.991-40.406-13.09-25.191-16.3-56.921-9.037-89.346,4.56-20.349,13.442-37.1,22.848-54.831,4.319-8.145,8.785-16.566,12.87-25.471,5.405-11.78,19.872-15.083,25.841-15.958a136.506,136.506,0,0,1,14.83-1.069,117.322,117.322,0,0,0,17.494-1.5c9.966-1.874,21.876-7.806,25.389-18.832,2.681-8.411.433-17.19-1.742-25.679-3.488-13.62-6.5-25.383,11.3-32.525,7.6-3.052,15.982-4.117,24.076-5.144l2.157-.275a533.717,533.717,0,0,0,78.567-16.231c1.771-.513,3.6-.979,5.465-1.456,4.949-1.272,10.056-2.585,14.493-4.7a23.638,23.638,0,0,0,7.149-5.6c.866-.894,1.762-1.818,2.811-2.775,5.44-4.96,11.81-9.01,17.97-12.928,3.873-2.462,7.877-5.008,11.621-7.759,9.751-7.168,22.8-15.619,37.331-17.408l.734-.088c4.847-.582,10.881-1.311,13-6.053,2-4.487-1.118-9.564-4.866-12.382-6.614-4.978-16.3-6.6-27.265-4.584a129.5,129.5,0,0,0-14.943,4.012c-3.886,1.214-7.912,2.469-11.929,3.383a80.359,80.359,0,0,1-54.275-7.26c-10.311-5.277-21.743-1.456-32.8,2.232a98.312,98.312,0,0,1-14.571,4.082c-15.55,2.6-31.809-1.267-46.155-4.678-6.4-1.521-14.354-3.413-19.563-8.624-6.934-6.936-7.641-17.887-7.773-28.508-.391-32.056-.836-68.388,15.629-98.692,2.775-5.107,6.052-10.048,9.224-14.827a187.481,187.481,0,0,0,9.87-16.022c4.75-9.018,9.623-22.49,5.853-35.46a69.622,69.622,0,0,0-3.227-8.323c-2.469-5.642-4.8-10.971-3.829-16.64,1.2-7.012,7.122-11.937,12.845-16.7,1.3-1.078,2.584-2.151,3.81-3.238a65.365,65.365,0,0,0,19.777-32.955c2.312-9.349-.187-17.374-2.832-25.87-.682-2.19-1.386-4.455-2.015-6.767-5.809-21.373-7.41-38.888-5.037-55.121a197.9,197.9,0,0,1,4.434-20.213c3.212-12.542,6.535-25.512,4.78-38.518a103.622,103.622,0,0,0-3.261-14.075c-1.866-6.628-3.8-13.482-3.555-20.386l-1.48-.052c-.247,7.135,1.714,14.1,3.61,20.839a102.548,102.548,0,0,1,3.218,13.871c1.717,12.721-1.569,25.549-4.746,37.953a199.334,199.334,0,0,0-4.465,20.367c-2.4,16.441-.791,34.147,5.073,55.723.635,2.338,1.344,4.616,2.03,6.819,2.583,8.293,5.022,16.127,2.809,25.075a63.884,63.884,0,0,1-19.322,32.2c-1.215,1.079-2.492,2.14-3.776,3.209-5.928,4.933-12.058,10.036-13.356,17.586-1.049,6.107,1.483,11.891,3.932,17.485a68.22,68.22,0,0,1,3.161,8.141c3.632,12.5-1.117,25.581-5.74,34.357a186.639,186.639,0,0,1-9.8,15.9c-3.188,4.8-6.485,9.775-9.292,14.938-16.648,30.643-16.2,67.18-15.806,99.416.134,10.927.878,22.208,8.2,29.537,5.506,5.509,13.692,7.455,20.269,9.019,14.482,3.443,30.9,7.345,46.741,4.7a101.11,101.11,0,0,0,14.8-4.137c10.767-3.595,21.9-7.313,31.656-2.319a81.84,81.84,0,0,0,55.278,7.386c4.074-.927,8.124-2.19,12.042-3.414a128.619,128.619,0,0,1,14.771-3.969c10.554-1.945,19.826-.415,26.106,4.311,3.293,2.477,6.075,6.849,4.4,10.6-1.775,3.974-7.111,4.618-11.821,5.186l-.736.09c-14.869,1.822-28.134,10.409-38.03,17.683-3.7,2.722-7.685,5.255-11.536,7.7-6.215,3.952-12.64,8.038-18.173,13.084-1.084.988-2,1.929-2.878,2.838a22.182,22.182,0,0,1-6.721,5.3c-4.31,2.052-9.349,3.346-14.227,4.6-1.874.482-3.716.957-5.5,1.467a531.939,531.939,0,0,1-78.349,16.187l-2.153.275c-8.189,1.039-16.656,2.113-24.443,5.238-19.01,7.625-15.7,20.566-12.187,34.267,2.123,8.286,4.318,16.855,1.767,24.861-3.315,10.405-14.706,16.032-24.254,17.827a116.125,116.125,0,0,1-17.271,1.479,137.631,137.631,0,0,0-14.992,1.084c-6.21.912-21.268,4.368-26.973,16.806-4.067,8.866-8.524,17.268-12.833,25.394-9.452,17.823-18.381,34.658-22.984,55.2-7.338,32.765-4.083,64.853,9.169,90.353,7.861,15.131,19.212,28.128,30.188,40.7,10.466,11.984,21.289,24.375,34.975,33.2,1.089.7,2.195,1.381,3.3,2.061,3.628,2.227,7.377,4.528,10.325,7.6,3.22,3.347,6.324,9.193,4.485,14.654-1.556,4.619-6.005,7.524-10.309,10.333l-1.022.67a102.943,102.943,0,0,0-42.28,58.574,203.383,203.383,0,0,0-4.317,23.137c-.939,6.4-1.91,13.017-3.392,19.4-3.921,16.9-11.1,28.931-21.347,35.759Z" transform="translate(-1186.74 0.001)" fill="#fff"/>
    <path d="M133.918,1406.564c7.447-2.1,14.295-4.714,18.576-10.364,6.825-9.006,3.941-21.839-2.44-29.86-6.622-8.329-16.5-13.164-26.049-17.4a507.424,507.424,0,0,0-98.544-32.128c-15.446-3.334-23.507-9.113-23.961-17.175-.508-9.019,9.406-15.583,19.473-17.405,15.827-2.869,32.116.6,47.868,3.949,3.176.678,6.346,1.353,9.507,1.976,16.046,3.163,39.431,6.071,57.213-5.2,11.783-7.466,20.453-20.819,24.414-37.6,3.521-14.916,3.112-30.4,2.718-45.374L161,1135.535c-.231-8.8-.027-17.191,4.962-23.149,5.726-6.839,15.616-7.92,25.255-8.448,32.354-1.762,72.623-3.953,104.343,14.708,3.76,2.212,7.508,4.77,11.132,7.244,10.1,6.894,20.544,14.023,32.8,14.814,22.842,1.471,40.065-18.938,50.484-36.32,5.754-9.59,12.547-22.375,14.031-36.211,1.54-14.343-3.331-28.048-12.714-35.766-8.867-7.295-20.583-8.993-31.914-10.633-3.447-.5-7.014-1.018-10.418-1.684a97.879,97.879,0,0,1-57.171-34.879c-3.8-4.816-9.6-14.05-5.68-21.763,3.451-6.774,12.405-8.491,20.711-9.274,4.855-.459,9.666-.786,14.319-1.1,18.431-1.254,35.839-2.439,52.956-11.388,13.464-7.041,13.977-23.04,14.519-39.98.46-14.341.936-29.174,9.874-38.252,5.1-5.178,11.911-8.335,18.5-11.389a109.815,109.815,0,0,0,11.726-6.018c9.153-5.677,13.166-13,17.414-20.75a86.438,86.438,0,0,1,8-12.731c7.116-8.96,21.976-19.413,31.8-22.371.166-.05.333-.1.5-.145,7.41-2.089,15.464-1.237,23.079.007a232.431,232.431,0,0,1,62.25,19.425c2.951,1.4,5.894,2.872,8.842,4.344,12.577,6.281,25.583,12.776,39.725,14,17.309,1.5,32.527-7.146,41.751-23.719,7.5-13.469,5.776-26.63,3.954-40.562-.6-4.623-1.229-9.4-1.507-14.245-.826-14.4,4.292-30.818,17.59-35.019,14.384-4.512,28.116,7.558,38.485,18.6l37.475,39.924c8.505,9.059,20.911,18.565,31.749,12.495,7.394-4.156,9.412-13.375,10.723-21.69,2.253-14.284,3.5-28.891,4.7-43.017,3-35.249,5.837-68.543,22.979-98.77,6.328-11.161,20.382-18.329,37.6-19.184,8.564-.425,17.274.5,25.7,1.4,6.192.66,12.594,1.343,18.926,1.491,13.484.313,23.064-2.948,28.478-9.7,7.326-9.13,5.2-22.253.766-31.488a112.573,112.573,0,0,0-9.163-14.9,129.865,129.865,0,0,1-7.995-12.608c-9.578-18.063-4.924-32.219,14.23-43.275,42.5-24.531,74.185-63.445,86.933-106.763,1.893-6.432,3.444-13.145,4.943-19.636,3.884-16.808,7.9-34.189,18.2-48.029,13.339-17.917,35.2-27.347,56.839-34.868,13.847-4.813,29.9-9.709,45.242-6.846,19.756,3.685,24.121,16.777,29.175,31.936,3.223,9.663,7.122,19.4,10.891,28.815,3.608,9.013,7.34,18.334,10.491,27.612,6.495,19.128,15.413,40.68,32.312,55.5,3.129,2.743,7.37,5.962,12.442,6.525,7.717.853,14.584-4.818,17.965-10.824,3.216-5.713,4.391-12.281,5.528-18.633l.369-2.043-1.457-.266-.369,2.049c-1.115,6.23-2.268,12.673-5.361,18.166-3.143,5.581-9.465,10.863-16.512,10.079-4.662-.518-8.663-3.568-11.628-6.167-16.637-14.587-25.456-35.919-31.887-54.86-3.163-9.316-6.9-18.655-10.519-27.686-3.762-9.4-7.651-19.112-10.86-28.733-5.2-15.6-9.695-29.079-30.308-32.924-15.7-2.927-31.977,2.028-46,6.9-21.861,7.6-43.963,17.144-57.541,35.383-10.489,14.088-14.539,31.622-18.457,48.578-1.495,6.471-3.041,13.162-4.921,19.551-12.642,42.957-44.08,81.556-86.253,105.9-19.709,11.377-24.687,26.6-14.8,45.25a130.594,130.594,0,0,0,8.084,12.756,111.231,111.231,0,0,1,9.047,14.7c4.239,8.829,6.309,21.326-.586,29.922-5.111,6.37-14.293,9.445-27.288,9.141-6.271-.146-12.642-.826-18.8-1.482-8.481-.9-17.249-1.839-25.927-1.409-17.724.878-32.23,8.331-38.81,19.933-17.3,30.509-20.151,63.961-23.167,99.376-1.2,14.1-2.443,28.678-4.687,42.912-1.257,7.972-3.169,16.8-9.988,20.628-9.995,5.617-21.8-3.544-29.942-12.216L721.683,731.87c-10.667-11.363-24.864-23.753-40.011-19-14.057,4.441-19.481,21.54-18.622,36.516.281,4.894.91,9.7,1.517,14.352,1.789,13.684,3.479,26.607-3.78,39.651-8.926,16.039-23.627,24.406-40.329,22.963-13.861-1.2-26.739-7.632-39.192-13.851-2.956-1.476-5.907-2.95-8.868-4.355a233.778,233.778,0,0,0-62.647-19.549c-7.961-1.3-16.414-2.189-24.241.18-10.06,3.031-25.262,13.716-32.532,22.868a87.809,87.809,0,0,0-8.143,12.941c-4.151,7.576-8.073,14.732-16.9,20.2a108.6,108.6,0,0,1-11.569,5.932c-6.71,3.11-13.649,6.325-18.935,11.7-9.343,9.49-9.829,24.617-10.3,39.243-.53,16.495-1.028,32.075-13.726,38.715-16.839,8.809-34.1,9.983-52.371,11.223-4.661.318-9.483.646-14.357,1.1-8.705.822-18.116,2.662-21.891,10.078-4.3,8.448,1.812,18.258,5.837,23.354a99.389,99.389,0,0,0,58.049,35.412c3.439.675,7.024,1.194,10.49,1.695,11.129,1.613,22.637,3.28,31.186,10.311,9,7.407,13.669,20.612,12.182,34.465-1.453,13.551-8.154,26.149-13.828,35.609-10.211,17.029-27.014,37.024-49.12,35.6-11.854-.763-22.128-7.777-32.064-14.559-3.644-2.487-7.412-5.06-11.214-7.3-32.107-18.888-72.621-16.683-105.176-14.911-9.964.545-20.2,1.685-26.31,8.977-5.32,6.354-5.546,15.044-5.305,24.138l1.694,64.453c.391,14.88.8,30.267-2.68,45-3.87,16.4-12.31,29.425-23.765,36.683-17.336,10.99-40.336,8.112-56.134,4.993-3.154-.621-6.317-1.295-9.487-1.97-15.892-3.382-32.324-6.879-48.439-3.959C10,1282.72-.534,1289.843.021,1299.717c.5,8.935,8.723,15,25.126,18.538A506.144,506.144,0,0,1,123.4,1350.29c9.381,4.164,19.077,8.9,25.492,16.972,5.876,7.389,8.719,19.729,2.419,28.045-4.479,5.91-12.157,8.354-20.308,10.518L20.515,1435.279l.382,1.43,110.492-29.453c.849-.226,1.694-.457,2.529-.692" transform="translate(268.757 0.001)" fill="#fff"/>
    <path d="M83.688,1403.976l.04-.011a347.957,347.957,0,0,0,33.662-11.374,53.124,53.124,0,0,1,6.8-1.843c7.367-1.692,16.53-3.8,17.974-10.079.95-4.136-1.308-8.382-6.9-12.979-15.081-12.395-34.243-22.335-58.583-30.388-2.085-.689-4.179-1.358-6.276-2.027-9.676-3.088-19.681-6.282-28.433-11.587-11.893-7.207-19.669-17.986-20.8-28.835-1.392-13.361,7.336-27.639,21.222-34.722,11.257-5.739,25.628-7.373,42.718-4.841,8.114,1.2,16.24,3.177,24.1,5.086,6.207,1.509,12.626,3.07,19.02,4.247,14.018,2.576,24.988,2.551,34.523-.078,12.471-3.448,22.079-11.608,25.847-21.9,3.389-9.258,1.308-17.544-.7-25.556-1.359-5.409-2.764-11-2.413-16.787a114.3,114.3,0,0,1,2.387-15.432c1.85-9.164,3.761-18.641,1.407-28.2-2.133-8.661-7.54-16-12.771-23.09-1.323-1.794-2.643-3.585-3.91-5.394-8.147-11.634-10.953-21.461-8.578-30.042,3.267-11.8,16.2-18.4,27.573-19.7,8.376-.956,16.957.121,25.257,1.165,3.7.464,7.527.945,11.3,1.242,13.592,1.074,27.617-.126,41.178-1.289,21.972-1.883,44.691-3.828,65.286,4.155a146.51,146.51,0,0,1,14.753,7.032c4.4,2.3,8.951,4.685,13.637,6.6,11.74,4.791,22.124,5.449,30.855,1.938,15.156-6.083,23.79-24.965,18.478-40.409-4.349-12.637-15.987-21.226-25.339-28.127l-67.325-49.683c-7.725-5.7-17.733-14.455-15.469-24.651,1.484-6.674,7.951-11.817,19.222-15.283a149.679,149.679,0,0,1,35.1-6.359c1.89-.113,3.8-.2,5.724-.282,11.53-.508,23.454-1.034,32.707-7.843,10.541-7.757,14.42-21.406,17.491-34.721,3.921-17.005,8.8-38.171,23.838-50.259a85.759,85.759,0,0,1,12.919-8.04c6.153-3.34,12.513-6.795,17.268-12.12a61.963,61.963,0,0,0,7.055-10.483,64.261,64.261,0,0,1,6.474-9.779c6.978-8.144,17.6-12.2,26.975-15.781,21.768-8.313,38.539-8.381,61.749-8.469,17.2-.066,32.63,9.579,47.547,18.907,15.373,9.613,31.269,19.553,49.247,19.028,11.121-.322,20.535-5.09,25.19-12.751,4.759-7.831,4.155-17.69,3.67-25.612l-2.567-41.9c-.708-11.564-.8-23.517,6.419-31.452,4.316-4.749,11.179-7.582,18.827-7.777,7.682-.2,15.106,2.124,20.716,4.166a136.937,136.937,0,0,1,61,44.718c.467.608.93,1.222,1.394,1.836,2.623,3.475,5.336,7.068,8.854,9.792,6.82,5.284,12.9,6.664,18.07,4.086,19.53-9.72,19.342-73.637,19.257-80.893-.3-25.651.694-52.351,16.142-72.153,17.241-22.1,47.677-28.594,72.264-31.784,5.541-.72,10.961-2.008,13.1-6.542,2.326-4.931-1-10.574-4.554-13.907-4.84-4.539-10.911-7.457-16.784-10.278-1.885-.906-3.836-1.843-5.707-2.816-9.7-5.045-15.377-10.763-17.355-17.48-1.962-6.659-.078-14.714,5.038-21.548.573-.764,1.138-1.539,1.7-2.313,4.1-5.623,7.967-10.944,14.5-12.066,24.544-4.258,52.364-9.083,73.629-25.618,9.978-7.759,17.977-17.728,25.713-27.368,13.242-16.5,26.935-33.57,33.906-54.119,2.848-8.4,4.484-17.247,6.065-25.8,1.166-6.308,2.371-12.83,4.051-19.106a124.6,124.6,0,0,1,11.56-28.4c1.124-2.016,2.143-4.213,3.129-6.337,2.048-4.415,4.167-8.98,7.39-12.339,11.612-12.1,29.519-18.062,45.318-23.325l.54-.179c18.189-6.062,36.808-11.612,55.333-16.493,14.676-3.869,33.738-2.3,43.241,9.936,4.882,6.286,7.3,14.942,7.407,26.463.034,3.79-.158,7.657-.342,11.4a133,133,0,0,0-.106,17.1c1.7,21.171,13.33,40.15,23.594,56.9,2.809,4.581,5.487,8.526,9.83,10.384,6.528,2.794,13.911-.78,18.006-5.282,4.068-4.473,6.3-10.212,8.454-15.761l.505-1.3-1.38-.539-.5,1.3c-2.107,5.423-4.286,11.032-8.169,15.3-3.755,4.128-10.466,7.427-16.329,4.918-3.941-1.687-6.476-5.435-9.149-9.8-10.177-16.6-21.712-35.422-23.381-56.24a131.716,131.716,0,0,1,.109-16.909c.185-3.761.378-7.649.344-11.482-.1-11.858-2.63-20.806-7.718-27.358-9.918-12.768-29.642-14.454-44.789-10.46-18.556,4.892-37.2,10.449-55.423,16.52l-.54.18c-15.961,5.317-34.053,11.344-45.918,23.7-3.4,3.536-5.566,8.216-7.665,12.741-.974,2.1-1.982,4.271-3.08,6.24a126.053,126.053,0,0,0-11.7,28.735c-1.7,6.332-2.906,12.884-4.077,19.22-1.572,8.506-3.2,17.3-6.011,25.6-6.887,20.3-20.5,37.264-33.659,53.668-7.682,9.574-15.625,19.474-25.467,27.127-20.974,16.308-48.6,21.1-72.974,25.327-7.12,1.236-11.349,7.039-15.438,12.653-.56.769-1.121,1.538-1.69,2.3-5.395,7.205-7.366,15.748-5.273,22.853,2.1,7.124,8.016,13.135,18.092,18.375,1.892.984,3.853,1.927,5.749,2.837,5.771,2.773,11.738,5.641,16.412,10.024,3.192,2.993,6.215,7.983,4.228,12.194-1.836,3.891-6.831,5.043-11.952,5.707-24.869,3.225-55.669,9.815-73.241,32.342-15.742,20.178-16.748,48.3-16.456,73.08.085,7.162.286,70.233-18.436,79.55-4.618,2.3-10.171.975-16.5-3.93-3.361-2.6-6.013-6.117-8.579-9.514-.466-.618-.931-1.235-1.4-1.846a138.427,138.427,0,0,0-61.671-45.207c-5.733-2.087-13.33-4.457-21.259-4.255-8.049.2-15.3,3.216-19.885,8.26-7.6,8.362-7.53,20.66-6.8,32.539l2.567,41.9c.581,9.476.721,17.878-3.457,24.753-5.174,8.513-15.775,11.8-23.968,12.041-17.531.511-33.233-9.308-48.419-18.8-15.1-9.44-30.705-19.2-48.338-19.133-23.365.091-40.256.163-62.271,8.567-9.538,3.643-20.349,7.771-27.572,16.2a65.329,65.329,0,0,0-6.631,10,60.81,60.81,0,0,1-6.877,10.238c-4.582,5.132-10.829,8.525-16.87,11.8a86.788,86.788,0,0,0-13.14,8.187c-15.435,12.41-20.381,33.852-24.354,51.081-3.007,13.045-6.792,26.4-16.925,33.861-8.891,6.545-20.586,7.059-31.894,7.555-1.932.086-3.852.171-5.748.285A151.255,151.255,0,0,0,323,939.718c-11.818,3.636-18.625,9.146-20.232,16.378-2.452,11.038,7.978,20.219,16.036,26.163l67.324,49.683c9.187,6.78,20.62,15.218,24.818,27.418,5.069,14.734-3.17,32.749-17.63,38.554-8.368,3.366-18.371,2.706-29.743-1.937-4.622-1.887-9.14-4.252-13.51-6.538a147.3,147.3,0,0,0-14.9-7.1c-20.915-8.108-43.809-6.146-65.949-4.249-13.5,1.156-27.463,2.351-40.935,1.288-3.74-.295-7.549-.775-11.234-1.237-8.386-1.053-17.057-2.142-25.609-1.165-11.86,1.348-25.38,8.3-28.832,20.773-2.5,9.033.375,19.267,8.793,31.285,1.273,1.818,2.6,3.619,3.931,5.424,5.144,6.976,10.463,14.19,12.524,22.565,2.275,9.241.4,18.552-1.42,27.556a115.059,115.059,0,0,0-2.413,15.635c-.366,6.011,1.068,11.718,2.454,17.238,2.048,8.154,3.983,15.856.749,24.685-3.526,9.63-12.943,17.626-24.611,20.915l-.238.067c-9.313,2.567-20.073,2.583-33.861.047-6.353-1.167-12.751-2.723-18.939-4.227-7.889-1.918-16.049-3.9-24.229-5.113-17.4-2.577-32.074-.9-43.608,4.988-14.421,7.354-23.476,22.237-22.024,36.194,1.194,11.475,9.032,22.391,21.5,29.949,8.9,5.394,18.991,8.615,28.748,11.73,2.093.668,4.183,1.334,6.26,2.021,24.165,8,43.172,17.851,58.111,30.128,5.116,4.205,7.209,7.968,6.4,11.5-1.235,5.376-9.9,7.364-16.863,8.967a53.563,53.563,0,0,0-7.015,1.911,347.332,347.332,0,0,1-33.519,11.325l-.041.011A346.77,346.77,0,0,1,12.4,1414.779l.1,1.477a348.274,348.274,0,0,0,71.186-12.28" transform="translate(220.527 0.001)" fill="#fff"/>
    <path d="M26.492,1414.367A203.245,203.245,0,0,0,70.146,1386.3c9.716-8.175,13.638-15.657,11.985-22.876-1.578-6.894-8.117-10.986-11.875-12.813-2.432-1.183-5-2.132-7.481-3.05a68.977,68.977,0,0,1-8.565-3.612c-10.355-5.522-18-16.822-20.449-30.227-2.008-10.992-.834-23.267,3.591-37.526,4.3-13.877,9.878-23.3,17.539-29.66,12.023-9.982,28.983-11.646,42.414-11.982a259.335,259.335,0,0,1,54.6,4.432c12.125,2.3,28.73,5.439,38.372-4.516,6.38-6.593,7.2-16.178,7.532-26.249l1.317-40.259c.178-5.431.379-11.587-1.621-17.139-3.576-9.926-13.136-15.728-20.528-18.849-4.184-1.765-8.579-3.134-12.831-4.457a128.932,128.932,0,0,1-13.646-4.82c-5.595-2.466-8.682-5.4-9.438-8.957-1.595-7.521,5.4-10.5,12.158-13.379a44.566,44.566,0,0,0,6.306-3.055c8.062-5.156,15.018-11.934,21.743-18.49q1.531-1.492,3.059-2.972c11.108-10.724,23.4-20.954,38.021-23.149,10.864-1.633,21.824,1.356,32.424,4.245a151.41,151.41,0,0,0,18.416,4.205c13.733,1.939,27.59-.059,40.991-1.988l42.662-6.145c4.438-.641,9.026-1.3,13.166-3.386,4.711-2.372,7.87-6.349,8.449-10.637.936-6.935-3.729-10.824-8.241-14.585-1.043-.87-2.121-1.768-3.086-2.677-1.482-1.4-2.987-2.944-4.442-4.44a75.882,75.882,0,0,0-9.085-8.395,48.794,48.794,0,0,0-7.786-4.366,53.627,53.627,0,0,1-6.968-3.8c-10.442-7.116-17.624-17.623-19.7-28.829a35.628,35.628,0,0,1,5.89-27.755c8.17-11.765,24.16-20.985,41.739-24.06,3.476-.609,7.039-1.086,10.811-1.593,17.628-2.366,37.611-5.045,46.687-22.847,3.562-6.987,5.381-14.746,7.14-22.248.472-2.015.944-4.028,1.449-6.026,2.218-8.79,5.458-18.721,12.664-25.723,3.321-3.226,7.394-5.7,11.332-8.088,2.092-1.27,4.255-2.582,6.3-4,9.932-6.9,17.612-16.3,20.545-25.143,3.583-10.809,7.174-17.284,16.856-22.674,8.2-4.565,17.513-6.739,26.522-8.841L575.4,761.622c21.542-5.027,43.482-8.044,58.025,3.816,7.338,5.986,45.259,35.208,71.159,23.136,14.23-6.644,10.344-24.845,7.772-36.889l-.237-1.113a244.372,244.372,0,0,1-5.111-40.705c-.266-6.559-.291-14.094,2.818-20.495,5.848-12.043,21.237-16.559,33.893-15.7,17.391,1.188,33.5,9.9,46.962,18.272,2.86,1.778,5.7,3.6,8.55,5.422,11.443,7.327,23.276,14.905,36.263,19.578,5.957,2.143,16.925,4.751,23.468-1.85,3.457-3.49,4.535-8.492,5.342-13.318.876-5.224,1.416-10.547,1.938-15.694.368-3.633.75-7.391,1.245-11.073a56.309,56.309,0,0,1,2.53-9.794,67.944,67.944,0,0,0,2.353-8.528c2.342-12.6,4.243-25.514,6.081-38.005.933-6.344,1.866-12.684,2.857-19.006,1.523-9.711,2.578-19.84-2.58-27.592-3.671-5.518-9.7-8.629-15.536-11.637-1.389-.717-2.774-1.431-4.123-2.175-4.129-2.278-13.686-8.538-13.256-17.446.412-8.534,9.371-13.911,18.079-18.047,17.959-8.528,40.94-20.617,59.4-38.548,1.075-1.044,2.136-2.108,3.2-3.172,4.2-4.212,8.545-8.567,13.716-11.538,11.167-6.413,23.6-5.4,35.622-4.425,12.962,1.056,26.368,2.149,38.258-6.007,11.088-7.6,18.793-19.193,25.591-29.419,20.413-30.709,38.015-58.7,46.658-90.342,1.3-4.762,2.4-9.656,3.473-14.39,1.8-7.98,3.662-16.232,6.511-24.014,3.681-10.055,10.765-23.455,23.612-30.193,14.92-7.826,31.455-13.938,47.445-19.848,4.275-1.58,8.526-3.151,12.716-4.744,25.48-9.681,46.864-16.452,67.3-21.318,11.17-2.657,22.776-4.372,31.977,1.033,7.269,4.269,12.281,12.532,15.322,25.261,3.361,14.067,4.017,28.823,4.651,43.1.376,8.451.765,17.19,1.709,25.728.5,4.563,1.228,9.343,3.988,13.219,2.665,3.74,8.033,6.531,12.743,4.343,2.969-1.382,4.746-4.336,6.173-6.71l-1.269-.763c-1.625,2.7-3.162,5.03-5.529,6.13-3.836,1.786-8.561-.56-10.913-3.86-2.554-3.585-3.239-8.152-3.722-12.521-.938-8.49-1.325-17.2-1.7-25.632-.638-14.34-1.3-29.169-4.691-43.373-3.139-13.142-8.377-21.709-16.012-26.194-9.653-5.669-21.6-3.926-33.07-1.2-20.5,4.879-41.944,11.671-67.485,21.374-4.187,1.591-8.433,3.16-12.7,4.74-16.034,5.926-32.613,12.054-47.62,19.925-13.265,6.958-20.544,20.7-24.314,31-2.882,7.872-4.755,16.172-6.565,24.2-1.065,4.716-2.165,9.6-3.457,14.324-8.585,31.426-26.122,59.313-46.463,89.914-6.724,10.114-14.345,21.577-25.2,29.017-11.455,7.853-24.01,6.833-37.3,5.752-12.247-1-24.91-2.03-36.479,4.617-5.342,3.069-9.758,7.495-14.027,11.776-1.056,1.059-2.112,2.118-3.181,3.155-18.308,17.781-41.151,29.794-59.007,38.273-9.1,4.324-18.473,10-18.923,19.314-.454,9.389,8.589,15.817,14.021,18.813,1.36.75,2.757,1.471,4.159,2.2,5.665,2.921,11.523,5.943,14.982,11.141,4.867,7.315,3.888,16.729,2.349,26.542-.991,6.327-1.925,12.672-2.859,19.021-1.836,12.477-3.735,25.379-6.071,37.95a66.887,66.887,0,0,1-2.307,8.342,57.459,57.459,0,0,0-2.589,10.052c-.5,3.706-.88,7.477-1.25,11.122-.52,5.124-1.058,10.421-1.925,15.6-.768,4.591-1.783,9.339-4.934,12.52-5.96,6.019-16.289,3.523-21.915,1.5-12.83-4.618-24.592-12.149-35.966-19.434-2.851-1.825-5.7-3.65-8.567-5.431-13.617-8.465-29.926-17.281-47.643-18.492-12.189-.833-28.755,2.995-35.324,16.525-3.259,6.711-3.24,14.463-2.966,21.2a245.97,245.97,0,0,0,5.141,40.953l.238,1.114c2.622,12.278,6.212,29.093-6.951,35.238-25.1,11.721-62.379-17.054-69.6-22.941-15.038-12.265-37.386-9.224-59.3-4.111l-48.325,11.279c-9.1,2.123-18.521,4.323-26.9,8.99-10.11,5.627-13.839,12.33-17.542,23.5-2.835,8.555-10.306,17.674-19.984,24.393-2.008,1.393-4.151,2.694-6.223,3.952-4.01,2.433-8.156,4.949-11.6,8.293-7.471,7.26-10.8,17.43-13.069,26.421-.505,2.007-.98,4.028-1.454,6.051-1.738,7.417-3.537,15.086-7.017,21.914-8.721,17.109-27.452,19.622-45.566,22.052-3.786.508-7.363.988-10.868,1.6-14.062,2.461-32.674,10.236-42.7,24.673a37.071,37.071,0,0,0-6.13,28.87c2.153,11.591,9.563,22.447,20.328,29.783a54.908,54.908,0,0,0,7.156,3.907,46.892,46.892,0,0,1,7.553,4.225,74.941,74.941,0,0,1,8.9,8.234c1.466,1.508,2.981,3.069,4.488,4.487,1,.939,2.093,1.851,3.152,2.735,4.4,3.664,8.55,7.125,7.722,13.249-.512,3.8-3.372,7.361-7.646,9.513-3.931,1.981-8.4,2.623-12.713,3.243l-42.662,6.145c-13.3,1.916-27.047,3.9-40.573,1.988a150.148,150.148,0,0,1-18.232-4.168c-10.748-2.93-21.862-5.96-33.034-4.281-15.03,2.268-27.545,12.653-38.828,23.548q-1.534,1.482-3.065,2.977c-6.673,6.505-13.573,13.229-21.508,18.3a43.5,43.5,0,0,1-6.087,2.942c-6.627,2.821-14.875,6.332-13.028,15.046.863,4.062,4.228,7.335,10.289,10.006a129.965,129.965,0,0,0,13.8,4.878c4.217,1.313,8.578,2.671,12.694,4.408,7.12,3.005,16.318,8.565,19.711,17.986,1.9,5.286,1.709,11.292,1.536,16.589l-1.318,40.26c-.319,9.77-1.1,19.054-7.116,25.267-9.086,9.385-24.58,6.45-37.032,4.093a260.644,260.644,0,0,0-54.913-4.459c-13.673.343-30.954,2.055-43.323,12.322-7.892,6.552-13.614,16.2-18.007,30.36-4.5,14.493-5.686,27-3.635,38.233,2.531,13.846,10.461,25.534,21.211,31.266a70.343,70.343,0,0,0,8.746,3.695c2.451.906,4.981,1.842,7.35,2.992,3.518,1.711,9.637,5.52,11.079,11.813,1.494,6.533-2.373,13.738-11.5,21.414a201.818,201.818,0,0,1-43.336,27.86Z" transform="translate(187.031 0.001)" fill="#fff"/>
    <path d="M1297.435,968.107a30.011,30.011,0,0,0,12.581-6.579c8.535-7.961,10.924-19.84,6.726-33.447-5.884-19.065-23.3-36.512-38.832-38.892-23.13-3.543-53.8,9.308-80.862,20.645-10.014,4.2-19.473,8.158-27.589,10.851-4.9,1.625-9.513,3.41-12.12,7.359-4.653,7.049-.049,16.705,6.578,23.148,17.712,17.226,41.507,22.461,58.349,23.819,21.383,1.726,42.868-1.516,63.644-4.651a93.981,93.981,0,0,0,11.525-2.253M1309,960.446c-6.3,5.882-15.738,7.306-23.315,8.449-20.693,3.123-42.092,6.352-63.305,4.64-16.6-1.339-40.037-6.486-57.437-23.4-6.186-6.018-10.558-14.929-6.372-21.271,2.344-3.553,6.7-5.23,11.35-6.77,8.171-2.71,17.655-6.684,27.695-10.891,26.883-11.263,57.352-24.029,80.066-20.547,15.023,2.3,31.909,19.289,37.64,37.865,4.021,13.036,1.777,24.375-6.322,31.929" transform="translate(-937.359 0.001)" fill="#fff"/>
    <path d="M1258,954.15A38.955,38.955,0,0,0,1269.423,949c6.514-4.437,12.425-13.014,10.947-22.172-2.1-12.987-17.6-19.694-30.765-18.46-7.38.692-14.506,3.075-21.4,5.383a129.084,129.084,0,0,1-15.745,4.536c-2.671.528-5.436.893-8.111,1.246-4.956.654-10.086,1.332-14.882,3.066-8.6,3.108-14.011,9.242-14.12,16.007-.1,6.2,4.216,11.646,11.549,14.569,16.73,6.669,48.826,4.15,58.265,3.219A74.036,74.036,0,0,0,1258,954.15m-19.745-42.025a64.918,64.918,0,0,1,11.492-2.28c12.5-1.171,27.2,5.081,29.165,17.223,1.375,8.516-4.192,16.539-10.32,20.712-7.332,4.994-16.448,6.442-23.573,7.145-19.277,1.9-44.524,2.08-57.572-3.121-6.739-2.688-10.709-7.61-10.617-13.17.1-6.136,5.135-11.745,13.144-14.639,4.653-1.681,9.7-2.347,14.571-2.99,2.7-.356,5.488-.724,8.2-1.261a130.365,130.365,0,0,0,15.928-4.586c3.145-1.052,6.34-2.121,9.577-3.033" transform="translate(-919.09 0.001)" fill="#fff"/>
    <path d="M1034.7,884.685c11.509-3.244,21.626-14.008,28.546-21.372l39.831-42.386c8.782-9.345,17.863-19.008,23.944-30.649,5.078-9.725,15.649-29.961,4.22-38.414-11.8-8.724-28.073,11.307-33.422,17.89a164.165,164.165,0,0,0-11.21,16.321,173.134,173.134,0,0,1-10.418,15.319,86.523,86.523,0,0,1-73.789,32.2l-.058.738.058-.738c-.62-.05-1.736.144-2.235,1.992-2.205,8.178,8.727,43.308,17.98,47.754a22.77,22.77,0,0,0,16.553,1.343m86.74-133.053a9.772,9.772,0,0,1,8.92,1.423c9.174,6.784,2.8,22.277-4.653,36.537-5.986,11.461-14.995,21.049-23.708,30.322L1062.162,862.3c-13.284,14.136-27.578,27.3-43.377,19.708-8.405-4.037-19.144-38.8-17.194-46.034.254-.935.582-.911.69-.9a88.015,88.015,0,0,0,75.066-32.76,174.122,174.122,0,0,0,10.51-15.449,163.339,163.339,0,0,1,11.106-16.176c8.956-11.019,16.4-17.343,22.472-19.055" transform="translate(-599.374 0.001)" fill="#fff"/>
    <path d="M1333.8,850.363a37.279,37.279,0,0,0,5.382-1.953c6.6-3.014,17.418-10.64,18.322-18.274.815-6.868-1.035-16.737-4.552-18.693-3.179-1.768-7.039-1.3-10.394-.611a81.9,81.9,0,0,0-37.584,18.754c-3.534,3.118-9.145,9.308-6.991,15.741,2.462,7.361,12.088,8.117,19.73,7.455a86.825,86.825,0,0,0,16.087-2.419m3.49-36.725q2.756-.777,5.565-1.356c3.091-.635,6.622-1.078,9.377.454,2.417,1.344,4.692,9.724,3.8,17.226-.789,6.658-10.689,14.007-17.466,17.1-6.561,2.991-13.894,3.63-20.983,4.243-7.112.617-16.041,0-18.2-6.448-1.882-5.623,3.308-11.286,6.568-14.161a80.422,80.422,0,0,1,31.336-17.059" transform="translate(-1118.346 0.001)" fill="#fff"/>
    <path d="M274.478,330.007a28.59,28.59,0,0,0,3.324-1.155c17.42-7.31,23.747-30.626,29.33-51.2a187.6,187.6,0,0,1,5.82-18.985,145.637,145.637,0,0,1,72.374-77.046l1.447-.682c13.69-6.447,30.727-14.469,31.25-29.9.433-12.782-12.19-22.57-24.25-23.692-12.844-1.195-25.232,4.917-34.591,10.378-2.04,1.189-4.067,2.417-6.1,3.647-8.2,4.965-16.673,10.1-25.977,12.554-6.053,1.6-12.582,2.1-18.895,2.585-10.571.812-21.5,1.654-30.361,7.7-10.276,7.013-15.314,19.506-19.362,29.545L226.557,272.93c-4.377,10.851-7.816,20.639-5.556,30.54,1.963,8.6,9.01,16.572,19.334,21.875,11.218,5.762,24.2,7.466,34.143,4.662M379.051,130.364a40.052,40.052,0,0,1,14.585-1.542c11.388,1.06,23.311,10.22,22.907,22.168-.492,14.528-17.075,22.337-30.4,28.612l-1.449.682a147.131,147.131,0,0,0-73.117,77.838,188.169,188.169,0,0,0-5.873,19.144c-5.494,20.245-11.72,43.191-28.473,50.221-9.863,4.137-24.074,2.778-36.218-3.459-9.934-5.1-16.7-12.716-18.567-20.888-2.165-9.482,1.2-19.041,5.485-29.657l31.933-79.176c3.973-9.852,8.918-22.115,18.824-28.874,8.533-5.823,18.785-6.611,29.64-7.445,6.379-.49,12.975-1,19.159-2.629,9.505-2.508,18.08-7.7,26.366-12.72,2.023-1.225,4.044-2.449,6.076-3.635a83.969,83.969,0,0,1,19.123-8.64" transform="translate(898.533 0.001)" fill="#fff"/>
    <path d="M592.47,502.535c3.752-1.057,6.737-4.289,9.644-7.436.757-.82,1.507-1.632,2.26-2.391,6.363-6.411,15.261-9.982,23.866-13.436,10.577-4.246,21.515-8.636,27.578-18.346,4.009-6.421,6.009-28.8,2.488-42.035-1.309-4.922-3.266-8.113-5.816-9.482-11.779-6.329-48.827,25.771-54.011,30.834-14.374,14.036-21.775,31.4-20.3,47.643.625,6.9,4.357,14.536,11.074,14.986a9.444,9.444,0,0,0,3.222-.337m62.092-42.394c-5.808,9.3-16.04,13.408-26.874,17.756-8.745,3.511-17.787,7.14-24.365,13.768-.765.771-1.528,1.6-2.3,2.429-3.457,3.742-7.033,7.61-11.679,7.3-5.85-.391-9.128-7.346-9.7-13.641-1.43-15.8,5.811-32.727,19.865-46.451,7.887-7.7,42.282-35.951,52.276-30.588,2.143,1.151,3.9,4.11,5.086,8.558,3.346,12.583,1.505,34.753-2.314,40.869" transform="translate(298.737 0.001)" fill="#fff"/>
  </g>
</svg>