<svg xmlns="http://www.w3.org/2000/svg" width="28" height="22" viewBox="0 0 28 22" fill="none">
<path opacity="1" d="M12.4444 2.43993C11.1271 3.1719 10.0621 3.809 9.24925 4.3512C8.43644 4.8663 7.60961 5.55761 6.76877 6.42514C5.98398 7.23845 5.38138 8.09242 4.96096 8.98706C4.54054 9.8817 4.24625 11.0339 4.07808 12.4436H6.0961C7.83383 12.4436 9.19319 12.8638 10.1742 13.7043C11.1832 14.5176 11.6877 15.724 11.6877 17.3235C11.6877 18.4621 11.2392 19.533 10.3423 20.536C9.47347 21.512 8.26827 22 6.72673 22C4.31632 22 2.59259 21.2409 1.55556 19.7227C0.518519 18.1774 0 16.1577 0 13.6636C0 11.9014 0.392392 10.3019 1.17718 8.86506C1.96196 7.40111 2.91492 6.09981 4.03604 4.96118C5.18519 3.79544 6.4044 2.80591 7.69369 1.99261C8.98298 1.1793 10.0621 0.515096 10.9309 0L12.4444 2.43993ZM28 2.43993C26.6827 3.1719 25.6176 3.809 24.8048 4.3512C23.992 4.8663 23.1652 5.55761 22.3243 6.42514C21.5115 7.26556 20.8949 8.13309 20.4745 9.02773C20.0821 9.89526 19.8018 11.0339 19.6336 12.4436H21.6517C23.3894 12.4436 24.7487 12.8638 25.7297 13.7043C26.7387 14.5176 27.2432 15.724 27.2432 17.3235C27.2432 18.4621 26.7948 19.533 25.8979 20.536C25.029 21.512 23.8238 22 22.2823 22C19.8719 22 18.1481 21.2409 17.1111 19.7227C16.0741 18.1774 15.5556 16.1577 15.5556 13.6636C15.5556 11.9014 15.9479 10.3019 16.7327 8.86506C17.5175 7.40111 18.4705 6.09981 19.5916 4.96118C20.7407 3.79544 21.96 2.80591 23.2492 1.99261C24.5385 1.1793 25.6176 0.515096 26.4865 0L28 2.43993Z" fill="#753bbd"/>
</svg>