<svg xmlns="http://www.w3.org/2000/svg" width="15.191" height="15.105" viewBox="0 0 15.191 15.105">
  <g id="Group_89481" data-name="Group 89481" transform="translate(-3405.5 -1117.358)">
    <g id="Group_89477" data-name="Group 89477" transform="translate(3405.5 1117.358)">
      <path id="Path_57266" data-name="Path 57266" d="M3414.129,1118.015l1.434,3.053a1.143,1.143,0,0,0,.861.644l3.3.5a1.142,1.142,0,0,1,.645,1.927l-2.456,2.517a1.141,1.141,0,0,0-.31.982l.57,3.493a1.142,1.142,0,0,1-1.68,1.183l-2.841-1.571a1.142,1.142,0,0,0-1.1,0l-2.841,1.571a1.142,1.142,0,0,1-1.68-1.183l.57-3.493a1.143,1.143,0,0,0-.31-.982l-2.456-2.517a1.142,1.142,0,0,1,.645-1.927l3.3-.5a1.141,1.141,0,0,0,.861-.644l1.434-3.053A1.142,1.142,0,0,1,3414.129,1118.015Z" transform="translate(-3405.5 -1117.358)" fill="#753bbd"/>
    </g>
  </g>
</svg>
