<svg xmlns="http://www.w3.org/2000/svg" width="355" height="355" viewBox="0 0 355 355">
  <defs>
    <clipPath id="clip-path">
      <circle cx="177.5" cy="177.5" r="177.5" fill="#753bbd"/>
    </clipPath>
  </defs>
  <g clip-path="url(#clip-path)">
    <g transform="translate(504.556 -110.457) rotate(99)" opacity="0.149">
      <g transform="translate(244.788 513.216) rotate(-121)">
        <path d="M88.524,39.16c-4.439,5.163-10.035,7.4-15.448,9.568a56.178,56.178,0,0,0-8.921,4.156C57.227,57.065,52.1,64.869,47.55,71.691L46.4,73.5c-.832,1.225-1.665,2.6-2.566,4.039-4.221,6.713-9.418,15.09-16.139,17.689-4.831,1.875-11.261,1.441-16.782-1.19-4.656-2.241-7.945-5.7-9.244-9.786-2.924-9.279-1.408-19.887.04-30.14.467-3.183.9-6.171,1.192-9.063C4.417,29.74,11.812,11.184,24.955,4.255,31.091,1.041,38.6,0,46.216,0A165.4,165.4,0,0,1,69.245,2.124l1.449.216c13.684,1.948,22.7,7,25.41,14.225,2.382,6.387-.142,14.007-7.58,22.595m5.888-21.946c-2.5-6.6-10.976-11.259-23.977-13.1L68.995,3.9C55.895,2.057,37.913-.509,25.787,5.88,13.293,12.449,6.108,30.863,4.7,45.23c-.283,2.924-.717,5.955-1.19,9.127C2.069,64.437.586,74.829,3.4,83.708c1.123,3.573,4.082,6.68,8.3,8.671a22.164,22.164,0,0,0,9.5,2.164,16.07,16.07,0,0,0,5.846-1.016c6.139-2.38,11.194-10.467,15.242-16.963.9-1.441,1.766-2.849,2.6-4.082l1.19-1.766c4.613-7,9.853-14.949,17.149-19.388a56.4,56.4,0,0,1,9.16-4.255C77.839,44.865,83,42.808,87.15,38.011c6.971-8.087,9.428-15.058,7.262-20.8" transform="translate(287.772 20.621)" fill="#fff"/>
        <path d="M145.716,70.9c-5.488,2.665-11.552,2.633-17.475,2.558s-12.051-.109-17.721,2.489C99.8,80.893,91.14,90.028,84.743,97.426c-3.6,4.221-6.638,9.352-9.853,14.8-6.82,11.518-13.858,23.436-27.251,26.859C29.193,143.814,12.585,131,4.933,117.105c-10.653-19.423-2.057-33.971,7-49.387A44.4,44.4,0,0,0,17.6,52.377c3.106-16.573,5.563-29.641,21.12-39.6C51.572,4.546,69.077,0,85.65,0a77.426,77.426,0,0,1,19.273,2.273c14.084,3.607,24.727,11.368,30.756,22.411,1.59,2.966,2.964,6.1,4.264,9.137,2.057,4.688,4.148,9.6,7.254,13.751.467.616.976,1.265,1.441,1.881,1.99,2.489,4.047,5.088,4.623,8.3,1.049,5.706-3,10.936-7.545,13.142m5.779-12.817c-.507-2.782-2.348-5.056-4.263-7.513-.5-.649-1.008-1.265-1.475-1.916-3.215-4.33-5.379-9.311-7.479-14.149-1.3-2.956-2.631-6.064-4.181-8.954C128.284,14.941,118.065,7.5,104.456,4,83.985-1.233,57.351,2.989,39.694,14.29c-14.906,9.529-17.289,22.272-20.32,38.52a46.805,46.805,0,0,1-5.888,15.848C2.833,86.739-2.938,98.941,6.523,116.238c7.287,13.284,23.136,25.594,40.684,21.079,12.667-3.247,19.489-14.842,26.135-26.026,3.1-5.272,6.313-10.728,10.069-15.058,6.462-7.545,15.306-16.824,26.351-21.912,6.03-2.782,12.35-2.706,18.479-2.665,5.965.067,11.594.109,16.683-2.39,3.823-1.873,7.438-6.42,6.571-11.184" transform="translate(261.589 0.224)" fill="#fff"/>
        <path d="M192.79,71.838a12.015,12.015,0,0,0,1.55-9.422c-1.55-7.04-7.327-11.37-12.886-15.523-5.6-4.187-10.831-8.121-12.275-14.476C166.543,20.649,170.912,10,181.163,3.142A36.292,36.292,0,0,1,186.976,0H182.86c-.9.471-1.8,1.047-2.708,1.627C169.431,8.81,164.666,20.469,167.41,32.815c1.588,7,7.363,11.336,12.958,15.523,5.561,4.15,10.8,8.087,12.2,14.44a10.369,10.369,0,0,1-1.3,8.087c-2.71,4.187-9.028,7.436-18.269,9.35-2.635.576-5.2,1.047-7.725,1.516-9.311,1.7-18.121,3.32-27.327,8.412-22.706,12.633-38.841,34.654-50.359,52.416l-1.948,2.995c-10.037,15.668-22.563,35.2-43.173,24.08C17.851,156.346-8.9,113.785,6.083,84.474c1.734-3.393,3.611-6.678,5.381-9.855,4.258-7.582,8.265-14.729,10.756-22.924a145.036,145.036,0,0,0,3.575-16.786c1.55-8.772,2.96-17.075,6.785-24.729.291-.576.612-1.263.974-1.948A64.137,64.137,0,0,1,38,0H35.829a83.025,83.025,0,0,0-3.9,7.438c-.36.685-.649,1.336-.936,1.912-3.973,7.907-5.49,16.715-6.967,25.234a139.265,139.265,0,0,1-3.54,16.606C18.068,59.2,14.1,66.243,9.912,73.716,8.1,76.928,6.227,80.25,4.5,83.643c-15.452,30.215,11.873,73.966,37.144,87.577,22.055,11.912,35.089-8.376,45.521-24.692l1.948-3c11.409-17.58,27.366-39.348,49.747-51.8,8.917-4.981,17.58-6.571,26.749-8.232,2.526-.469,5.09-.938,7.761-1.515,9.855-2.057,16.387-5.45,19.423-10.144" transform="translate(245.058 0.004)" fill="#fff"/>
        <path d="M15.09,12.888V10.037A49.36,49.36,0,0,0,5.777,1.192Q4.856.543,3.936,0H0A26.663,26.663,0,0,1,4.73,2.671,50.577,50.577,0,0,1,15.09,12.888" transform="translate(460.192 0.004)" fill="#fff"/>
        <path d="M179.99,0h-2.671a21.035,21.035,0,0,1-1.661,1.481c-11.623,9.673-28.012,15.341-46.17,15.955-9.242.325-19.35-3.1-29.132-6.462-3.827-1.3-7.438-2.526-10.974-3.5C79.272,4.621,67.288,1.229,55.412,1.518a51.411,51.411,0,0,0-9.675,1.119,43.619,43.619,0,0,0-6.462,1.732c-1.877.721-3.718,1.479-5.559,2.31-1.7.758-3.429,1.588-5.09,2.455-1.625.83-3.213,1.734-4.765,2.671-1.518.9-3,1.841-4.478,2.817-1.443.974-2.888,1.984-4.3,3.031-1.406,1.083-2.815,2.166-4.187,3.249-1.408,1.119-2.815,2.275-4.187,3.465-1.445,1.192-2.853,2.419-4.26,3.647C1.661,28.736.83,29.457,0,30.179v2.382c12.888-11.37,23-20,39.528-26.351l4.116-1.156c15.125-4.33,31.839.362,45.267,4.152,3.465.974,7.076,2.2,10.867,3.5,9.927,3.356,20.215,6.894,29.746,6.533,18.59-.612,35.376-6.462,47.289-16.39C177.9,1.95,178.979.974,179.99,0" transform="translate(0 0.004)" fill="#fff"/>
        <path d="M475.282,30V27.368q-.758-.812-1.408-1.515c-1.083-1.156-2.346-2.708-3.825-4.478-8.665-10.54-23.177-28.194-37.075-18.626-3.754,2.6-5.6,5.522-5.45,8.7.323,8.339,13.862,16.137,23.716,21.841a74.568,74.568,0,0,1,7.111,4.367c7.834,6.173,15.739,17.436,14.945,26.208-.36,4.369-2.851,7.761-7.4,10.18-7,3.718-13.646,2.924-20.685,2.1a73.006,73.006,0,0,0-9.855-.687c-32.381.325-62.6,22.922-78.155,45.2-4.114,5.884-7.652,13-11.37,20.54-7.076,14.223-14.4,28.952-26.317,36.281-8.772,5.377-21.082,3.573-36.531-5.343-20-11.516-36.606-33-44.475-57.435-5.452-16.965-5.27-30.178.542-44.149,1.877-4.476,4.152-8.951,6.317-13.284C250.024,48.125,254.825,38.7,256.3,28.2c.83-5.632-.36-9.82-3.32-11.768-2.924-1.95-7.113-1.445-11.841,1.37a61.085,61.085,0,0,0-10.323,8.485,74.256,74.256,0,0,1-7.329,6.462c-8.157,6.028-16.931,4.945-26.208,3.791-5.957-.723-12.094-1.481-18.085-.255-6.608,1.372-10.974,6.137-15.163,10.758a57.246,57.246,0,0,1-6.28,6.282c-7.725,6.244-16.1,12.2-25.739,10.467-8.159-1.479-13.466-7.074-19.132-12.995-4.658-4.874-9.5-9.927-16.03-12.346C75.16,30.365,56.459,46.32,40.647,61.879A57.6,57.6,0,0,1,0,78.3v1.8A59.588,59.588,0,0,0,41.912,63.142c15.414-15.161,33.608-30.72,54.329-23,6.137,2.273,10.613,6.931,15.341,11.912,5.6,5.85,11.409,11.914,20.108,13.5,10.4,1.914,19.134-4.332,27.184-10.829a61.3,61.3,0,0,0,6.5-6.462c4.189-4.621,8.159-8.954,14.187-10.216,5.7-1.156,11.7-.434,17.509.289,9.24,1.154,18.772,2.31,27.507-4.152a77.861,77.861,0,0,0,7.509-6.605,59.828,59.828,0,0,1,10-8.232c4.078-2.453,7.616-2.958,9.891-1.443,2.31,1.554,3.247,5.2,2.562,10.037-1.479,10.18-6.209,19.493-10.758,28.517-2.2,4.332-4.512,8.844-6.389,13.393-6.028,14.4-6.173,27.978-.578,45.412,7.978,24.836,24.909,46.675,45.269,58.409,16.1,9.277,28.988,11.081,38.374,5.306,12.344-7.582,19.782-22.526,26.966-37,3.718-7.472,7.22-14.51,11.263-20.287,15.307-21.876,44.943-44.113,76.71-44.438a83.293,83.293,0,0,1,9.6.687c7,.83,14.26,1.661,21.768-2.312,5.09-2.708,7.9-6.605,8.339-11.586.865-9.422-7.438-21.334-15.632-27.8a68.018,68.018,0,0,0-7.329-4.548c-8.951-5.163-22.524-12.96-22.813-20.326-.109-2.562,1.406-4.908,4.656-7.147,12.562-8.626,26.39,8.23,34.693,18.3,1.479,1.8,2.742,3.356,3.862,4.549.83.9,1.734,1.877,2.744,2.924" transform="translate(0 12.236)" fill="#fff"/>
        <path d="M28.109,5.7c-3.215,5.347-11.984,8.778-18.772,7.262A11.568,11.568,0,0,1,.168,3.647,11.455,11.455,0,0,1,.125,0H1.934a8.584,8.584,0,0,0,0,3.322,9.861,9.861,0,0,0,7.8,7.913,16.147,16.147,0,0,0,2.964.283c5.413,0,11.51-2.815,13.858-6.747A6.627,6.627,0,0,0,27.493,0h1.841a8.549,8.549,0,0,1-1.225,5.7" transform="translate(229.425 0)" fill="#fff"/>
        <path d="M23.536,23.252c-3.722,6.28-8.562,9.562-13.033,8.77A7.7,7.7,0,0,1,9.31,31.7C5.231,30.255,1.082,24.367.217,20.253c-1.483-7.187,4.872-15.7,11.51-18.847A13.21,13.21,0,0,1,17.4,0a10.157,10.157,0,0,1,8.046,4c3.581,4.405,1.74,13-1.907,19.247m.542-18.089c-3.9-4.8-8.919-3.389-11.592-2.132C6.5,5.888.716,13.716,1.981,19.9,2.739,23.468,6.53,28.806,9.927,30a8.9,8.9,0,0,0,.9.257,5.126,5.126,0,0,0,1.008.067c3.973,0,7.8-4,10.144-7.978,3.249-5.555,5.1-13.5,2.1-17.182" transform="translate(124.364 35.705)" fill="#fff"/>
        <path d="M51.171,17.006c-2.382,7.222-8.337,10.936-14.151,14.543-1.7,1.091-3.431,2.164-5.088,3.322-1.267.909-2.641,2.057-4.156,3.29-4.148,3.423-8.879,7.329-13.468,8.046a11.735,11.735,0,0,1-7.4-1.732C2.974,42.2.267,38.378.018,34.8-.382,28.518,5.9,20.471,9.7,16.715l.865-.865C17.232,9.2,26.368.109,36.047,0h.574C43.733,0,48.356,1.558,50.7,4.73c2.057,2.849,2.231,6.971.467,12.275M49.221,5.813c-1.99-2.74-6.462-4.148-13.142-4-8.954.107-17.8,8.911-24.26,15.341l-.867.833C7.638,21.3,1.459,29.057,1.825,34.7c.216,2.956,2.631,6.238,5.987,8.228a9.676,9.676,0,0,0,6.248,1.483c4.08-.616,8.594-4.34,12.6-7.654,1.473-1.233,2.922-2.425,4.221-3.324,1.7-1.233,3.465-2.306,5.2-3.4,5.781-3.607,11.194-7,13.393-13.609,1.558-4.688,1.481-8.262-.251-10.61" transform="translate(17.095 18.63)" fill="#fff"/>
        <path d="M35.42,19.313C26.173,25.594,7.2,26.06,1.774,18.123a9.1,9.1,0,0,1-1.55-7.295C.907,7.9,3.255,5.122,6.643,3.249,10.117,1.334,16.031,0,21.918,0c6.678,0,13.393,1.734,16.5,6.355,3.215,4.765,2.132,9.453-3,12.958m1.515-11.95C31.7-.4,14.265,1.117,7.518,4.831,4.554,6.464,2.531,8.8,1.954,11.227a7.326,7.326,0,0,0,1.3,5.88c2.455,3.54,8.161,5.165,14.3,5.165,6.1,0,12.635-1.592,16.858-4.474,2.989-2.023,5.846-5.488,2.524-10.435" transform="translate(185.905 15.24)" fill="#fff"/>
        <path d="M45.9,30.538c-2.89,5.373-9.893,8.521-17.038,7.654-6.68-.8-12.494-4.48-17.291-7.945C5.5,25.874,1.134,22.161.158,14.324A15.329,15.329,0,0,1,.915,6.678C3.082,1.441,7.779,0,12.393,0A39.409,39.409,0,0,1,22.579,1.657C29.366,3.5,36.362,5.846,41.417,10.718c4.981,4.73,8.121,13.068,4.48,19.821m-5.7-18.521C35.172,7.22,28.241,5.046,22.1,3.389,14.6,1.366,5.605,0,2.574,7.361a13.026,13.026,0,0,0-.608,6.755c.865,7.1,4.8,10.427,10.643,14.69,4.623,3.316,10.186,6.822,16.466,7.612a18.956,18.956,0,0,0,2.057.109c4.9,0,10.576-1.982,13.175-6.822,3.215-5.955.358-13.391-4.114-17.689" transform="translate(406.463 140.326)" fill="#fff"/>
        <path d="M475.282,38.5v-1.8c-5.126,0-10.649-.578-15.2-1.047a82.389,82.389,0,0,0-9.133-.687,107.582,107.582,0,0,0-51.08,15.379c-18.7,11.37-28.085,26.677-38.012,42.85-3.106,5.09-6.317,10.324-9.927,15.63-13.789,20.287-27.58,33.248-49.781,30.649-17.761-2.1-35.125-11.336-47.651-25.377-20.613-23.1-26.568-54.077-27.94-75.991l-.109-1.406c-.685-11.443-1.479-24.4-10.542-31.769C208.077-1.465,196.957-.742,189.2,2.073c-7.436,2.671-13.934,7.363-20.251,11.877l-3.14,2.273c-7.293,5.126-15.234,10.037-24.007,11.12C130.318,28.786,121,24.31,111.114,19.582,101.439,14.961,91.4,10.2,79.238,11.5c-15.27,1.661-25.992,10.4-33.571,17.832-9.133,8.881-22.31,16.1-35.3,19.35-3.575.9-7,1.734-10.362,2.346v1.768c3.538-.576,7.113-1.443,10.722-2.346l-.143-.9.216.867a82,82,0,0,0,36.1-19.819C58.047,19.726,67.795,14.565,79.454,13.3s21.443,3.393,30.9,7.941c9.675,4.621,19.639,9.386,31.66,7.907,9.2-1.156,17.364-6.209,24.836-11.479,1.047-.721,2.093-1.481,3.176-2.239,6.173-4.476,12.6-9.061,19.782-11.659,7.329-2.635,17.725-3.358,24.981,2.562,8.41,6.86,9.168,19.386,9.855,30.467l.107,1.408c1.372,22.2,7.438,53.608,28.374,77.072,12.851,14.367,30.613,23.826,48.807,25.955,24.511,2.924,39.239-13.393,51.512-31.407,3.611-5.306,6.824-10.576,9.964-15.7,9.818-15.991,19.061-31.118,37.4-42.236a105.334,105.334,0,0,1,50.215-15.125c1.877-.036,5.126.289,8.844.649A151.156,151.156,0,0,0,475.282,38.5" transform="translate(0 63.885)" fill="#fff"/>
      </g>
    </g>
  </g>
</svg>