<svg width="21" height="19" viewBox="0 0 21 19" fill="none" xmlns="http://www.w3.org/2000/svg">
<path id="Star 6" d="M9.62689 0.744721C9.79094 0.262755 10.4726 0.262755 10.6367 0.74472L12.643 6.63901C12.7166 6.85515 12.9196 7.00048 13.1479 7.00048L19.5859 7.00048C20.1086 7.00048 20.3193 7.67423 19.8899 7.97207L14.7247 11.5542C14.5291 11.6899 14.4471 11.9389 14.5238 12.1643L16.5067 17.9895C16.6724 18.4766 16.1206 18.8928 15.6978 18.5997L10.4357 14.9503C10.2529 14.8235 10.0106 14.8235 9.82783 14.9503L4.56571 18.5997C4.14295 18.8928 3.5911 18.4766 3.75688 17.9895L5.73975 12.1643C5.81648 11.9389 5.73448 11.6899 5.5388 11.5542L0.373663 7.97207C-0.0558044 7.67423 0.15496 7.00048 0.6776 7.00048L7.11563 7.00048C7.34395 7.00048 7.54694 6.85515 7.62052 6.63901L9.62689 0.744721Z" fill="#FFC30E"/>
</svg>
